<?xml version="1.0" encoding="utf-8"?>
<!-- Generator: Adobe Illustrator 27.4.1, SVG Export Plug-In . SVG Version: 6.00 Build 0)  -->
<svg version="1.1" id="Capa_1" xmlns="http://www.w3.org/2000/svg" xmlns:xlink="http://www.w3.org/1999/xlink" x="0px" y="0px"
	 viewBox="0 0 1133.858 850.394" enable-background="new 0 0 1133.858 850.394" xml:space="preserve">
<g>
	<ellipse fill="#DE8E98" cx="566.929" cy="700.251" rx="496.063" ry="85.039"/>
	<g>
		<g>
			<path fill="#1A69B2" d="M709.902,351.204v285.586c0,8.962,8.586,16.231,19.182,16.231h185.076c10.591,0,19.18-7.27,19.18-16.231
				V351.204H709.902z"/>
			<path fill="#ABD9F3" d="M844.681,351.204v301.818h69.48c10.591,0,19.18-7.27,19.18-16.231V351.204H844.681z"/>
			<path fill="#166CB3" d="M243.013,146.924h408.818l40.898,355.852H283.912c-24.301,0-44.007-16.664-44.007-37.232l-40.899-281.387
				C199.006,163.59,218.712,146.924,243.013,146.924z"/>
			<path fill="#498BC9" d="M315.644,465.544c0,20.568,19.69,37.232,44.007,37.232h370.873c24.296,0,44.005-16.664,44.005-37.232
				l-40.898-281.387c0-20.567-19.708-37.232-44.005-37.232H318.753c-24.317,0-44.007,16.665-44.007,37.232L315.644,465.544z"/>
			<rect x="317.199" y="466.189" fill="#1A6AB2" width="527.482" height="186.833"/>
			<rect x="317.199" y="597.491" fill="#ABD8F2" width="527.498" height="55.531"/>
			<g>
				<g>
					<path fill="#ABD8F2" d="M839.66,587.211H336.531c-10.669,0-19.332-6.402-19.332-14.301V461.484
						c0-5.325,8.964-11.426,19.332-14.301c158.702-22.354,488.822,0,488.822,0c11.887,3.041,15.514,6.368,19.333,14.301v120.687
						C844.686,582.172,845.183,587.211,839.66,587.211z"/>
				</g>
			</g>
			<g>
				<path fill="#488BC9" d="M844.686,462.72H317.199v110.19c0,7.899,8.663,14.301,19.332,14.301H839.66
					c5.524,0,5.026-5.039,5.026-5.039V462.72z"/>
			</g>
			<path fill="#FAB949" d="M912.549,653.211h-30.815l36.914,56.335c0,0,4.008,6.967,13.384,6.904c0,0,9.604,1.285,5.368-7.827
				L912.549,653.211z"/>
			<path fill="#B4B4B4" d="M881.734,653.211l36.914,56.335c0,0,4.008,6.967,13.384,6.904c0,0,7.861,1.031,6.182-5.56
				c-0.674,0.912-1.477,1.679-2.498,2.114c-4.155,1.767-8.881-0.06-11.793-3.368l-28.693-56.426H881.734z"/>
			<path fill="#FAB949" d="M355.511,653.211h30.815l-36.919,56.335c0,0-4,6.967-13.366,6.904c0,0-9.617,1.285-5.381-7.827
				L355.511,653.211z"/>
			<path fill="#B4B4B4" d="M386.327,653.211l-36.919,56.335c0,0-4,6.967-13.366,6.904c0,0-7.869,1.031-6.189-5.56
				c0.668,0.912,1.469,1.679,2.487,2.114c4.156,1.767,8.881-0.06,11.798-3.368l28.685-56.426H386.327z"/>
			<path fill="#FAB949" d="M197.022,653.211h30.814l-36.918,56.335c0,0-4.006,6.967-13.368,6.904c0,0-9.617,1.285-5.379-7.827
				L197.022,653.211z"/>
			<path fill="#B4B4B4" d="M227.836,653.211l-36.918,56.335c0,0-4.006,6.967-13.368,6.904c0,0-7.866,1.031-6.187-5.56
				c0.669,0.912,1.469,1.679,2.487,2.114c4.158,1.767,8.892-0.06,11.796-3.368l28.683-56.426H227.836z"/>
			<path fill="#1A6AB2" d="M182.42,351.204v285.586c0,8.962,8.586,16.231,19.177,16.231h185.079c10.589,0,19.183-7.27,19.183-16.231
				V351.204H182.42z"/>
			<path fill="#ABD8F2" d="M317.199,351.204v285.421c0,16.397,15.7,16.397,15.7,16.397h53.777c10.589,0,19.183-7.27,19.183-16.231
				V351.204H317.199z"/>
		</g>
		<g>
			<g>
				<g>
					<g>
						<path fill="#412413" d="M471.73,330.794c-11.293-0.386-22.572-1.155-33.812-2.321c-2.769-0.287-5.536-0.598-8.299-0.933
							c-2.951-0.358-5.335-0.669-7.816-1.017c-5.036-0.706-10.063-1.487-15.046-2.509c-4.849-0.995-9.66-2.22-14.342-3.835
							c-1.163-0.401-2.318-0.826-3.462-1.277c-0.269-0.106-0.537-0.213-0.805-0.322c-0.098-0.04-0.927-0.386-0.463-0.189
							c0.564,0.24-0.739-0.325-0.656-0.289c-0.33-0.146-0.659-0.296-0.987-0.447c-2.234-1.031-4.415-2.176-6.522-3.446
							c-1.953-1.178-3.837-2.467-5.664-3.833c-0.22-0.164-1.321-1.029-0.615-0.464c-0.401-0.321-0.805-0.636-1.205-0.958
							c-0.9-0.727-1.787-1.469-2.666-2.222c-3.38-2.896-6.622-5.949-9.906-8.952c-7.683-7.025-15.691-13.634-25.469-17.494
							c-2.195-0.866-5.036,0.948-5.536,3.143c-0.59,2.591,0.793,4.608,3.143,5.536c0.237,0.094,0.473,0.191,0.711,0.284
							c-0.82-0.32-0.189-0.082-0.022-0.006c0.519,0.236,1.039,0.469,1.552,0.717c1.022,0.495,2.026,1.026,3.012,1.588
							c1.917,1.093,3.764,2.303,5.554,3.592c0.411,0.296,0.818,0.596,1.223,0.9c0.203,0.152,0.404,0.306,0.606,0.459
							c-0.687-0.519-0.145-0.112-0.008-0.004c0.898,0.712,1.789,1.432,2.667,2.169c1.719,1.443,3.397,2.932,5.06,4.439
							c6.755,6.124,13.312,12.552,20.963,17.581c8.581,5.64,18.483,9.094,28.444,11.36c10.566,2.403,21.402,3.738,32.158,4.952
							c12.693,1.434,25.441,2.361,38.207,2.797c2.355,0.081,4.606-2.127,4.5-4.5C476.118,332.787,474.254,330.88,471.73,330.794
							L471.73,330.794z"/>
					</g>
				</g>
				<g>
					<g>
						<path fill="#412413" d="M677.337,268.988c18.882-1.443,38.735-4.288,54.938-14.828c16.238-10.563,25.793-27.621,34.005-44.631
							c5.414-11.213,10.734-22.473,16.098-33.71c1.012-2.121,0.656-4.957-1.614-6.157c-2.007-1.06-5.074-0.654-6.157,1.614
							c-4.748,9.948-9.494,19.896-14.243,29.843c-3.911,8.191-7.871,16.394-12.737,24.071c-1.232,1.944-2.521,3.852-3.88,5.709
							c-0.319,0.435-0.642,0.866-0.967,1.297c-0.091,0.12-0.529,0.667-0.037,0.049c-0.168,0.21-0.333,0.423-0.501,0.633
							c-0.713,0.893-1.445,1.77-2.196,2.63c-1.458,1.669-2.99,3.273-4.601,4.795c-0.784,0.74-1.587,1.46-2.407,2.159
							c-0.412,0.351-0.829,0.696-1.25,1.035c-0.211,0.17-0.424,0.339-0.637,0.506c0.5-0.392,0.012-0.013-0.232,0.168
							c-3.646,2.715-7.597,5.002-11.723,6.902c-0.492,0.227-0.988,0.445-1.484,0.663c-0.142,0.062-0.797,0.33-0.048,0.023
							c-0.251,0.103-0.502,0.207-0.753,0.308c-1.071,0.432-2.152,0.84-3.241,1.226c-2.124,0.754-4.278,1.425-6.451,2.023
							c-4.925,1.356-9.946,2.345-14.997,3.097c-0.686,0.102-1.372,0.2-2.06,0.294c0.184-0.025,0.856-0.11-0.041,0.004
							c-0.344,0.044-0.688,0.088-1.032,0.131c-1.306,0.162-2.614,0.31-3.923,0.447c-2.605,0.273-5.215,0.499-7.826,0.698
							c-2.342,0.179-4.615,1.942-4.5,4.5C672.94,266.773,674.824,269.18,677.337,268.988L677.337,268.988z"/>
					</g>
				</g>
				<g>
					
						<ellipse transform="matrix(0.8005 -0.5993 0.5993 0.8005 -178.2389 394.8317)" fill="#412413" cx="504.021" cy="465.177" rx="80.106" ry="41.198"/>
				</g>
				<g>
					<g>
						<path fill="#FFFFFF" d="M464.088,514.217c22.882-3.087,44.607-13.359,61.913-28.579c4.755-4.182,9.144-8.762,13.124-13.686
							c1.477-1.827,1.92-4.602,0-6.364c-1.64-1.506-4.784-1.955-6.364,0c-3.482,4.308-7.277,8.356-11.359,12.101
							c-2.04,1.872-4.15,3.667-6.322,5.384c-0.084,0.067-1.121,0.872-0.337,0.269c-0.209,0.161-0.419,0.321-0.629,0.48
							c-0.526,0.398-1.055,0.791-1.587,1.18c-1.171,0.856-2.359,1.689-3.562,2.5c-4.593,3.096-9.41,5.862-14.4,8.266
							c-1.188,0.573-2.386,1.125-3.593,1.657c-0.241,0.106-0.483,0.212-0.725,0.316c-0.109,0.047-1.323,0.551-0.382,0.164
							c-0.732,0.301-1.464,0.6-2.201,0.889c-2.578,1.01-5.192,1.927-7.837,2.746c-5.922,1.835-11.989,3.169-18.133,3.997
							c-2.342,0.316-3.821,3.439-3.143,5.536C459.386,513.65,461.578,514.555,464.088,514.217L464.088,514.217z"/>
					</g>
				</g>
				<g>
					
						<ellipse transform="matrix(0.0887 -0.9961 0.9961 0.0887 211.8688 1113.97)" fill="#412413" cx="714.73" cy="441.196" rx="40.214" ry="78.194"/>
				</g>
				<g>
					<g>
						<path fill="#FFFFFF" d="M667.164,455.425c22.646,15.187,51.212,20.453,77.915,15.524c7.607-1.404,14.937-3.757,22.029-6.831
							c2.168-0.94,2.822-4.283,1.614-6.157c-1.45-2.249-3.837-2.62-6.157-1.614c-0.103,0.044-1.326,0.557-0.396,0.173
							c-0.369,0.153-0.739,0.304-1.11,0.453c-0.741,0.297-1.487,0.585-2.235,0.863c-1.497,0.556-3.007,1.073-4.53,1.553
							c-3.044,0.959-6.136,1.765-9.259,2.42c-1.562,0.328-3.132,0.617-4.708,0.869c-0.394,0.063-0.788,0.124-1.183,0.182
							c-0.138,0.02-1.457,0.202-0.385,0.06c-0.791,0.105-1.584,0.199-2.378,0.284c-3.176,0.341-6.369,0.532-9.563,0.575
							c-3.196,0.043-6.394-0.063-9.58-0.317c-1.594-0.127-3.182-0.297-4.769-0.49c-0.885-0.108-0.168-0.021,0.008,0.004
							c-0.396-0.055-0.791-0.112-1.186-0.171c-0.922-0.138-1.842-0.289-2.76-0.452c-6.289-1.117-12.476-2.817-18.445-5.093
							c-0.87-0.332-1.734-0.678-2.595-1.032c-0.806-0.331-0.192-0.081-0.028-0.011c-0.488-0.211-0.976-0.423-1.462-0.64
							c-1.699-0.761-3.377-1.57-5.029-2.427c-3.191-1.655-6.282-3.495-9.267-5.497c-1.96-1.314-5.07-0.444-6.157,1.614
							C664.352,451.536,665.073,454.022,667.164,455.425L667.164,455.425z"/>
					</g>
				</g>
				<path fill="#C69C6C" stroke="#8C633A" stroke-width="5" stroke-miterlimit="10" d="M528.233,88.334
					c-31.16-5.173-46.165,9.842-71.057,35.641c-41.413,42.923-34.63,104.898-33.392,114.717
					c6.251,49.593,33.757,59.796,36.203,117.5c1.185,27.954-5.04,30.981-0.205,48.605c11.535,42.045,58.719,67.648,92.127,76.491
					c47.839,12.663,117.249,4.147,159.131-50.642c41.5-54.29,38.922-131.713,6.121-168.202
					c-23.548-26.196-51.55-18.922-73.715-52.922c-18.198-27.916-7.709-45.687-23.298-71.546
					C609.198,119.814,585.592,98.007,528.233,88.334z"/>
				
					<ellipse transform="matrix(0.8746 -0.4849 0.4849 0.8746 19.8715 401.6443)" fill="#412413" cx="786.341" cy="162.409" rx="25.691" ry="18.962"/>
				<g>
					<g>
						<path fill="#FFFFFF" d="M794.601,154.993c0.058,0.041,0.115,0.084,0.171,0.127c-0.304-0.235-0.607-0.469-0.911-0.704
							c0.421,0.329,0.794,0.702,1.128,1.12c-0.234-0.304-0.469-0.607-0.704-0.911c0.37,0.48,0.674,0.998,0.915,1.554
							c-0.151-0.358-0.302-0.717-0.454-1.075c0.247,0.593,0.416,1.208,0.506,1.844c-0.054-0.399-0.107-0.798-0.161-1.196
							c0.075,0.6,0.076,1.201-0.003,1.801c0.054-0.399,0.107-0.798,0.161-1.196c-0.052,0.352-0.13,0.696-0.236,1.036
							c-0.341,1.092-0.117,2.493,0.454,3.468c0.546,0.933,1.617,1.824,2.689,2.068c1.152,0.262,2.445,0.206,3.468-0.454
							c1.005-0.648,1.708-1.534,2.068-2.689c0.168-0.538,0.241-1.075,0.317-1.634c0.074-0.555,0.154-1.097,0.141-1.657
							c-0.025-1.093-0.18-2.242-0.534-3.284c-0.341-1.005-0.772-2.045-1.4-2.914c-0.418-0.579-0.849-1.17-1.354-1.681
							c-0.517-0.523-1.128-0.964-1.719-1.393c-0.516-0.329-1.074-0.507-1.673-0.534c-0.598-0.134-1.196-0.107-1.794,0.08
							c-1.044,0.287-2.175,1.095-2.689,2.068c-0.552,1.044-0.828,2.31-0.454,3.468c0.151,0.358,0.302,0.717,0.454,1.075
							C793.386,154.054,793.924,154.593,794.601,154.993L794.601,154.993z"/>
					</g>
				</g>
				
					<ellipse transform="matrix(0.3208 -0.9472 0.9472 0.3208 -45.8086 500.2792)" fill="#412413" cx="325.907" cy="282.079" rx="18.962" ry="25.691"/>
				<g>
					<g>
						<path fill="#FFFFFF" d="M325.52,276.875c0.353,0.008,0.703,0.034,1.053,0.078c-0.399-0.054-0.798-0.107-1.196-0.161
							c0.83,0.117,1.633,0.339,2.408,0.657c-0.358-0.151-0.717-0.302-1.075-0.454c0.814,0.347,1.574,0.789,2.279,1.323
							c-0.304-0.235-0.607-0.469-0.911-0.704c0.698,0.543,1.323,1.162,1.868,1.859c-0.235-0.304-0.469-0.607-0.704-0.911
							c0.508,0.667,0.929,1.385,1.256,2.157c-0.151-0.358-0.302-0.717-0.454-1.075c0.116,0.286,0.219,0.576,0.309,0.871
							c0.336,1.102,1.064,2.102,2.068,2.689c0.965,0.564,2.386,0.804,3.468,0.454c1.089-0.352,2.139-1.027,2.689-2.068
							c0.557-1.055,0.811-2.296,0.454-3.468c-1.799-5.895-7.344-10.117-13.513-10.249c-1.138-0.024-2.383,0.519-3.182,1.318
							c-0.78,0.78-1.368,2.061-1.318,3.182C321.131,274.857,322.997,276.821,325.52,276.875L325.52,276.875z"/>
					</g>
				</g>
				<g>
					<g>
						<path fill="#412413" d="M514.092,99.62c7.846-7.548,8.387-20.757,2.42-29.599c-1.702-2.522-3.89-4.644-6.5-6.213
							c-1.659-0.997-3.169,1.596-1.514,2.59c10.41,6.257,12.207,22.698,3.473,31.1C510.576,98.84,512.699,100.959,514.092,99.62
							L514.092,99.62z"/>
					</g>
				</g>
				<g>
					<g>
						<path fill="#412413" d="M503.192,100.457c6.665-9.436,1.248-24.311-9.769-27.489c-1.858-0.536-2.652,2.358-0.798,2.893
							c9.285,2.678,13.503,15.259,7.976,23.082C499.485,100.523,502.085,102.023,503.192,100.457L503.192,100.457z"/>
					</g>
				</g>
				<g>
					<g>
						<path fill="#412413" d="M490.874,103.556c1.861-7.432-3.551-15.166-10.678-17.235c-2.082-0.604-4.269-0.658-6.381-0.181
							c-1.882,0.425-1.086,3.318,0.798,2.893c7.446-1.682,15.216,6.348,13.368,13.726
							C487.512,104.632,490.405,105.431,490.874,103.556L490.874,103.556z"/>
					</g>
				</g>
				<path fill="#FFFFFF" stroke="#412413" stroke-width="3" stroke-miterlimit="10" d="M566.929,193.615l69.059-70.262
					c0,0,40.355,14.315,44.448,43.027c2.784,19.529-6.727,48.239-6.727,48.239L566.929,193.615z"/>
				<path fill="#FFFFFF" stroke="#412413" stroke-width="3" stroke-miterlimit="10" d="M556.901,195.294l-86.474-47.204
					c0,0-34.466,25.407-30.053,54.072c3.001,19.497,20.433,44.212,20.433,44.212L556.901,195.294z"/>
				<path fill="#412413" d="M561.982,189.264l68.315-71.824c0,0-0.633-7.364-6.361-11.343c-5.728-3.979-13.836-4.908-13.836-4.908
					L561.982,189.264z"/>
				<path fill="#412413" d="M558.069,188.858l-69.962-70.221c0,0-7.378,0.435-11.51,6.054c-4.132,5.619-5.278,13.699-5.278,13.699
					L558.069,188.858z"/>
				<path fill="#020203" d="M566.929,193.615l37.486-37.977c0,0,22.055,0.035,26.334,19.077c4.325,19.247-14.465,27.97-14.465,27.97
					L566.929,193.615z"/>
				<path fill="#020203" d="M554.938,195.085l-47.263,24.771c0,0-20.999-6.744-19.281-26.185
					c1.736-19.65,22.289-22.243,22.289-22.243L554.938,195.085z"/>
				<g>
					<g>
						<path fill="#FFFFFF" d="M609.241,172.469c0.341-0.035,0.679-0.029,1.019,0.016c-0.399-0.054-0.797-0.107-1.196-0.161
							c0.362,0.055,0.709,0.153,1.048,0.289c-0.358-0.151-0.717-0.302-1.075-0.454c0.418,0.177,0.804,0.406,1.164,0.682
							c-0.304-0.235-0.607-0.469-0.911-0.704c0.383,0.303,0.722,0.649,1.021,1.035c-0.235-0.304-0.469-0.607-0.704-0.911
							c0.293,0.391,0.536,0.81,0.727,1.259c-0.151-0.358-0.302-0.717-0.454-1.075c0.171,0.421,0.29,0.854,0.352,1.304
							c-0.054-0.399-0.107-0.798-0.161-1.196c0.046,0.391,0.046,0.78-0.006,1.171c0.054-0.399,0.107-0.798,0.161-1.196
							c-0.052,0.339-0.141,0.665-0.27,0.983c-0.188,0.598-0.214,1.196-0.08,1.794c0.027,0.599,0.205,1.157,0.534,1.673
							c0.546,0.933,1.617,1.824,2.689,2.068c1.152,0.262,2.445,0.206,3.467-0.454c0.304-0.235,0.607-0.469,0.911-0.704
							c0.558-0.561,0.943-1.223,1.157-1.986c0.617-1.525,0.523-3.217,0.237-4.796c-0.144-0.797-0.505-1.558-0.835-2.286
							c-0.178-0.393-0.403-0.757-0.659-1.103c-0.952-1.284-2.033-2.463-3.493-3.192c-1.42-0.708-3.036-1.222-4.645-1.06
							c-0.62-0.023-1.197,0.106-1.734,0.388c-0.558,0.181-1.041,0.492-1.448,0.93c-0.78,0.781-1.368,2.061-1.318,3.182
							c0.052,1.164,0.434,2.371,1.318,3.182C606.888,171.911,608.074,172.587,609.241,172.469L609.241,172.469z"/>
					</g>
				</g>
				<g>
					<g>
						<path fill="#FFFFFF" d="M513.437,188.194c-0.062-0.07-0.121-0.14-0.179-0.212c0.234,0.304,0.469,0.607,0.704,0.911
							c-0.223-0.29-0.405-0.6-0.551-0.935c0.151,0.358,0.302,0.717,0.454,1.075c-0.161-0.392-0.266-0.796-0.323-1.216
							c0.054,0.399,0.107,0.798,0.161,1.196c-0.053-0.456-0.048-0.91,0.009-1.366c-0.054,0.399-0.107,0.798-0.161,1.196
							c0.074-0.52,0.214-1.022,0.417-1.506c-0.151,0.358-0.302,0.717-0.454,1.075c0.186-0.422,0.414-0.816,0.693-1.183
							c-0.235,0.304-0.469,0.607-0.704,0.911c0.263-0.334,0.557-0.631,0.894-0.891c-0.304,0.235-0.607,0.469-0.911,0.704
							c0.292-0.216,0.602-0.396,0.936-0.538c-0.358,0.151-0.717,0.302-1.075,0.454c0.2-0.08,0.403-0.145,0.612-0.196
							c1.08-0.266,2.133-1.118,2.689-2.068c0.564-0.965,0.804-2.386,0.454-3.468c-0.352-1.089-1.027-2.139-2.068-2.689
							c-1.088-0.575-2.256-0.752-3.468-0.454c-3.19,0.785-5.532,3.456-6.486,6.513c-0.5,1.602-0.473,3.207-0.2,4.837
							c0.268,1.598,1.133,3.019,2.191,4.215c0.737,0.832,2.099,1.318,3.182,1.318c1.104,0,2.422-0.49,3.182-1.318
							c0.787-0.858,1.372-1.984,1.318-3.182C514.699,190.142,514.26,189.124,513.437,188.194L513.437,188.194z"/>
					</g>
				</g>
				
					<ellipse transform="matrix(0.9819 -0.1895 0.1895 0.9819 -51.223 124.6555)" fill="#E52629" stroke="#8C633A" stroke-width="5" stroke-miterlimit="10" cx="626.226" cy="330.179" rx="97.259" ry="83.802"/>
				<g>
					<g>
						<path fill="#A67D52" d="M541.946,112.271c-2.729,1.26-5.43,3.223-6.263,6.278c-0.861,3.156,0.072,6.791,2.941,8.61
							c3.18,2.016,6.829,0.943,9.857-0.785c3.043-1.738,5.147-4.69,4.709-8.308c-0.498-4.117-4.272-6.644-8.26-5.395
							c-3.213,1.006-5.47,4.267-5.462,7.602c0.008,3.401,2.446,6.267,5.682,7.119c3.485,0.917,6.653-0.618,8.686-3.414
							c1.589-2.186,0.373-5.574-1.794-6.841c-2.528-1.479-5.249-0.397-6.841,1.794c1.144-1.574,2.837-1.721,3.824,0.011
							c0.76,1.334,0.276,3.382-1.572,3.356c-1.179-0.488-2.357-0.976-3.536-1.464c-0.976-0.792-0.407-1.995-0.37-2.911
							c0.016-0.4,0.848-0.616-0.113-0.182c-0.123,0.055-1.069,0.593-0.813,0.44c0.271-0.08,0.129-0.031-0.427,0.148
							c0.584-0.106,1.095,0.123,1.533,0.686c1.123,0.247,1.662,0.944,1.618,2.092c0.001-0.137,0.001-0.275,0.002-0.412
							c-0.032,0.539-0.216,0.752-0.322,1.226c-0.082,0.054-0.164,0.109-0.246,0.163c0.276-0.188,0.562-0.36,0.857-0.517
							c0.441-0.242,0.901-0.449,1.357-0.659c2.452-1.132,3.063-4.671,1.794-6.841C547.316,111.549,544.407,111.135,541.946,112.271
							L541.946,112.271z"/>
					</g>
				</g>
				<g>
					<g>
						<path fill="#A67D52" d="M459.316,263.127c-3.623,2.127-5.12,6.519-3.921,10.504c1.263,4.199,5.359,6.938,9.715,6.672
							c4.147-0.253,8.222-2.689,9.866-6.583c1.9-4.5,0.239-9.106-4.349-10.923c-3.125-1.237-6.279,1.874-6.329,4.821
							c-0.07,4.146,2.016,7.68,5.459,9.899c2.27,1.463,5.52,0.465,6.841-1.794c1.417-2.422,0.482-5.374-1.794-6.841
							c-0.455-0.293-0.519-0.485-0.506-1.265c-2.11,1.607-4.219,3.214-6.329,4.821c-1.389-0.505-2.114-1.344-2.175-2.515
							c0.105-0.467,0.112-0.519,0.021-0.154c-0.099,0.336-0.078,0.315,0.064-0.062c0.308-0.305,0.321-0.315,0.04-0.029
							c-0.622,0.142-0.601,0.627-1.374,0.646c0.408-0.01-0.304-0.261-0.144-0.085c0.221,0.244,0.432,0.484,0.637,0.734
							c-0.144-0.591-0.163-0.618-0.057-0.081c0.004-0.158,0.009-0.315,0.013-0.473c-0.091,0.499-0.113,1.039-0.63,1.343
							C469.909,268.504,464.882,259.858,459.316,263.127L459.316,263.127z"/>
					</g>
				</g>
				<g>
					<g>
						<path fill="#A67D52" d="M539.048,233.226c-1.096,5.864,1.59,12.093,7.627,13.959c5.525,1.708,11.498-0.899,14.092-6.034
							c2.028-4.014,3.868-11.852,0.238-15.369c-2.452-2.376-5.834-2.004-8.641-0.519c-1.35,0.714-2.933,1.797-4.441,0.58
							c-0.735,2.786-1.471,5.571-2.206,8.357c0.915-0.366,0.94-0.459,1.669,0c5.461,3.44,10.485-5.209,5.047-8.635
							c-2.794-1.76-6.274-2.247-9.375-1.008c-3.079,1.23-5.459,5.732-2.206,8.357c2.613,2.109,5.511,3.464,8.945,3.425
							c1.594-0.018,3.14-0.328,4.616-0.909c1.18-0.464,2.309-1.402,3.539-1.615c-0.886,0-1.772,0-2.658,0
							c0.201,0.038,0.402,0.076,0.603,0.115c-0.735-0.429-1.471-0.857-2.206-1.286c0.162,0.139,0.324,0.277,0.487,0.416
							c-0.429-0.735-0.857-1.471-1.286-2.206c0.484,1.41-0.275,5.3-1.438,6.347c-1.177,1.058-3.097,0.473-2.762-1.318
							c0.496-2.652-0.735-5.393-3.492-6.151C542.763,229.064,539.547,230.558,539.048,233.226L539.048,233.226z"/>
					</g>
				</g>
				<g>
					<g>
						<path fill="#A67D52" d="M620.757,228.162c0.079,0.603,0.158,1.205,0.237,1.808c-0.026,0.688,0.118,1.331,0.431,1.926
							c0.202,0.62,0.546,1.156,1.034,1.609c0.867,0.867,2.29,1.52,3.536,1.464c1.293-0.058,2.634-0.483,3.536-1.464
							c0.261-0.337,0.521-0.675,0.782-1.012c0.452-0.78,0.68-1.621,0.683-2.524c-0.079-0.603-0.158-1.205-0.237-1.808
							c0.026-0.688-0.118-1.331-0.431-1.926c-0.202-0.62-0.546-1.156-1.034-1.609c-0.867-0.867-2.29-1.52-3.536-1.464
							c-1.293,0.058-2.634,0.483-3.536,1.464c-0.261,0.337-0.521,0.675-0.782,1.012C620.988,226.418,620.76,227.259,620.757,228.162
							L620.757,228.162z"/>
					</g>
				</g>
				<g>
					<g>
						<path fill="#A67D52" d="M496.19,337.629c-6.994-0.505-11.268,6.619-9.708,12.921c1.463,5.907,7.122,10.764,13.323,10.696
							c5.778-0.063,10.638-4.873,10.842-10.649c0.104-2.952-1.103-5.689-3.31-7.626c-0.913-0.802-5.291-2.808-5.265-3.021
							c-0.228,0.841-0.455,1.682-0.683,2.524c0.022-0.039,0.044-0.078,0.065-0.118c4.747-4.366-2.339-11.424-7.071-7.071
							c-5.836,5.368-0.176,12.916,5.739,14.853c0.533,0.174,0.742,0.739,0.595,0.281c-0.26-0.81,0.194,0.197-0.208,0.373
							c-0.655,0.286-0.094,0.602-1.171,0.432c-1.141-0.18-2.231-1.121-2.774-2.115c-0.212-0.387-0.485-0.96-0.472-1.415
							c0.015-0.503-0.571-0.112,0.098-0.064C502.611,348.093,502.582,338.091,496.19,337.629L496.19,337.629z"/>
					</g>
				</g>
				<g>
					<g>
						<path fill="#A67D52" d="M522.291,423.068c-1.936-8.092-10.78-4.888-13.477,0.619c-3.221,6.576-2.22,14.792,2.275,20.499
							c3.848,4.887,10.368,8.386,16.705,7.374c8.084-1.29,9.242-9.188,11.032-15.813c1.922-7.115,2.127-13.465-6.013-16.201
							c-5.409-1.818-14.078-4.867-17.625,1.557c-2.945,5.332-1.793,14.682,4.052,17.605c6.298,3.15,12.78-2.386,11.289-9.031
							c-0.999-4.453-6.892-4.565-9.139-1.194c-2.356,3.535-2.358,7.948,0.005,11.482c3.56,5.323,12.226,0.322,8.635-5.047
							c-0.638-0.46-0.64-0.923-0.005-1.387c-3.046-0.398-6.092-0.796-9.139-1.194c2.166-1.236,3.157-2.91,2.972-5.023
							c0.366-1.649,0.107-1.656-0.777-0.021c1.538,0.485,4.764,0.583,5.993,1.588c1.032-0.091,1.35,0.27,0.953,1.083
							c-0.281,1.042-0.563,2.084-0.845,3.126c-0.556,2.056-0.961,4.251-1.689,6.252c-0.84,2.307-1.184,2.79-3.739,2.062
							c-1.817-0.518-3.541-1.738-4.726-3.198c-1.376-1.695-2.092-3.788-2.113-5.964c-0.032-1.115,0.135-2.198,0.5-3.25
							c1.536-2.241,0.651-2.594-2.656-1.059c-0.766-0.996-1.532-1.992-2.298-2.988c0.062,0.261,0.125,0.522,0.187,0.783
							C514.145,431.982,523.79,429.334,522.291,423.068L522.291,423.068z"/>
					</g>
				</g>
				<g>
					<g>
						<path fill="#A67D52" d="M636.174,441.633c-1.807-2.349-3.732-4.684-6.76-5.442c-2.963-0.742-6.21,0.403-8.087,2.781
							c-4.821,6.11,2.493,11.464,7.615,13.572c5.019,2.065,11.857,2.25,14.679-3.323c1.293-2.554,0.939-5.676-0.562-8.053
							c-1.758-2.783-4.608-3.546-7.707-3.061c-2.67,0.418-4.15,3.759-3.492,6.151c0.782,2.847,3.473,3.912,6.151,3.492
							c0.181-0.028,0.363-0.057,0.544-0.085c-0.886,0-1.772,0-2.658,0c-0.634-0.326-1.093-0.783-1.377-1.371
							c-0.158-1.001,0.15-1.775,0.927-2.321c-0.174-0.171-1.317-0.158-1.655-0.255c-1.338-0.388-4.013-1.376-4.605-2.601
							c0.228,0.841,0.455,1.682,0.683,2.524c-0.512,1.931-1.579,2.638-3.2,2.122c0.302,0.295,0.592,0.601,0.871,0.917
							c1.644,2.137,4.301,3.28,6.841,1.794C636.483,447.244,637.831,443.786,636.174,441.633L636.174,441.633z"/>
					</g>
				</g>
				<path fill="#FFFFFF" d="M540.287,300.991l25.167,30.346l16.36-46.12l28.716,36.148l15.542-43.814l25.331,31.053l16.064-30.648
					l21.611,23.243l6.357-28.899c0,0-12.87-14.95-38.314-21.897c-13.672-3.733-30.786-2.102-43.287-0.56
					c-19.005,2.345-35.005,12.061-47.877,20.764C550.945,280.757,540.287,300.991,540.287,300.991z"/>
				<path fill="#FFFFFF" d="M714.724,352.947L687.45,324.48l-13.017,47.172l-31.229-34l-12.366,44.814l-27.488-29.16l-13.829,31.719
					L566.3,363.389l-4.272,29.28c0,0,13.907,13.99,39.783,19.098c13.904,2.745,30.858-0.107,43.216-2.54
					c18.788-3.699,34.052-14.536,46.268-24.137C705.542,373.892,714.724,352.947,714.724,352.947z"/>
			</g>
			<g>
				<g>
					<g>
						<path fill="#E52629" d="M608.275,149.325c9.966-0.497,19.051,6.474,25.408,13.523c3.723,4.128,3.788,9.556,3.943,14.83
							c0.158,5.362-0.106,10.878-2.709,15.697c-2.715,5.027-7.099,8.878-11.311,12.627c-2.409,2.144,1.138,5.67,3.536,3.536
							c4.24-3.774,8.527-7.675,11.487-12.581c3.273-5.425,4.113-11.663,4.028-17.901c-0.079-5.828-0.067-12.492-3.587-17.439
							c-1.737-2.441-3.945-4.527-6.173-6.514c-2.117-1.888-4.353-3.666-6.721-5.23c-5.296-3.497-11.476-5.867-17.901-5.547
							C605.073,144.485,605.054,149.486,608.275,149.325L608.275,149.325z"/>
					</g>
				</g>
				<g>
					<g>
						<path fill="#E52629" d="M618.636,138.457c14.844,2.017,29.731,13.006,33.532,27.838c3.836,14.969-2.219,29.822-10.632,42.033
							c-2.928,4.25,4.002,8.255,6.908,4.038c9.912-14.385,16.213-32.329,11.02-49.708c-4.941-16.538-21.751-29.611-38.7-31.915
							C615.728,130.058,613.55,137.766,618.636,138.457L618.636,138.457z"/>
					</g>
				</g>
				<g>
					<g>
						<path fill="#E52629" d="M630.084,125.148c9.23,1.044,17.484,6.082,24.496,11.917c7.082,5.894,14.638,12.663,18.886,20.966
							c9.467,18.503,0.252,40.107-7.043,57.599c-2.474,5.933,7.198,8.521,9.643,2.658c8.68-20.815,17.507-45.457,5.209-66.812
							c-5.326-9.249-13.863-17.024-22.187-23.546c-8.631-6.763-18.019-11.54-29.003-12.783
							C623.7,114.426,623.752,124.432,630.084,125.148L630.084,125.148z"/>
					</g>
				</g>
			</g>
			<g>
				<g>
					<path fill="#E52629" d="M501.161,160.586c-13.354-0.548-21.109,13.195-23.443,24.572c-2.439,11.89,0.038,24.438,8.058,33.727
						c3.972,4.601,9.175,8.078,14.968,9.923c3.073,0.979,4.389-3.847,1.329-4.821c-8.668-2.761-15.56-10.06-18.465-18.61
						c-3.471-10.215-1.963-22.328,3.797-31.454c3.01-4.768,7.884-8.578,13.756-8.337
						C504.379,165.718,504.373,160.718,501.161,160.586L501.161,160.586z"/>
				</g>
			</g>
			<g>
				<g>
					<path fill="#E52629" d="M486.423,230.797c-12.592-7.345-17.168-21.789-17.307-35.666c-0.119-11.903,1.529-32.564,14.779-37.635
						c4.76-1.822,2.694-9.559-2.127-7.714c-16.781,6.423-20.456,27.683-20.65,43.55c-0.211,17.277,5.629,35.253,21.266,44.374
						C486.841,240.304,490.872,233.392,486.423,230.797L486.423,230.797z"/>
				</g>
			</g>
			<g>
				<g>
					<path fill="#E52629" d="M465.947,243.212c-26.543-27.012-24.534-70.616,3.836-95.45c4.852-4.247-2.245-11.296-7.071-7.071
						c-15.317,13.408-24.81,32.82-25.809,53.178c-1.026,20.899,7.387,41.57,21.973,56.414
						C463.394,254.881,470.464,247.808,465.947,243.212L465.947,243.212z"/>
				</g>
			</g>
		</g>
		<path fill="#FFFFFF" d="M579.081,234.19c0,0,32.284-69.268,187.109-108.466l2.046,23.416L576.385,260.375L579.081,234.19z"/>
		<path fill="#FFFFFF" d="M347.845,273.079c-1.955-5.87-4.177-11.667-6.553-17.408c-1.818-4.375-3.601-8.78-5.869-13.005
			c152.888-41.339,246.159-8.762,246.159-8.762l-2.975,22.607l-224.928,40.989C352.573,289.215,350.492,281.055,347.845,273.079z"/>
		<path fill="#EB5A55" d="M331.821,264.247c-0.064-0.884,0.104-1.699,0.412-2.531c0.363-0.36,0.747-0.681,1.189-0.966
			l220.845-17.085c0,0,37.908,21.716,49.916-15.584l175.164-88.409c0.899,0.275,1.706,0.689,2.245,1.252l0.047,0.198
			l-11.139,192.556l-157.889,89.005c0,0-8.004,12.684-30.192,10.703l-202.438,5.649L331.821,264.247z"/>
		<path fill="none" d="M603.839,381.107c0,0-5.954,1.655-8.606-5.643c-2.657-7.289-9.853-106.565-9.853-106.565
			s-2.249-7.4,6.686-14.073c0,0,8.38-5.819,10.22-0.743c1.848,5.073,5.849,113.608,6.198,114.558
			C608.834,369.594,608.886,381.801,603.839,381.107z"/>
		<path fill="none" d="M545.361,372.891c0,0,3.777,16.419-19.743,16.652c-23.516,0.246-127.949,0.248-153.709-31.013
			c0,0-7.429-8.416-8.714-14.345c-1.278-5.934-16.732-64.149-16.732-64.149s-3.336-6.756,3.867-9.807l17.081-2.292l139.148-10.334
			c0,0,21.047-3.399,24.511,8.56C534.544,278.117,545.361,372.891,545.361,372.891z"/>
		<path fill="none" d="M626.265,369.475c-4.54-23.356-9.97-121.373-9.97-121.373s-3.233-14.292,5.686-20.434
			c8.902-6.137,145.895-72.964,145.895-72.964s7.899-1.674,7.367,9.469c-0.54,11.15-17.783,104.462-38.118,144.154
			C716.796,348.007,630.815,392.832,626.265,369.475z"/>
		<path fill="#EB5A55" d="M604.183,228.081l175.164-88.409c0.899,0.275,1.706,0.689,2.245,1.252l0.047,0.198l-11.139,192.556
			l-157.889,89.005L604.183,228.081z"/>
		<path fill="#DE8E98" d="M612.755,422.93c0,0-8.004,12.684-30.192,10.703l-28.153-189.721c0,0,37.908,21.716,49.916-15.584
			L612.755,422.93z"/>
	</g>
</g>
<g>
</g>
<g>
</g>
<g>
</g>
<g>
</g>
<g>
</g>
<g>
</g>
</svg>
