<?xml version="1.0" encoding="UTF-8"?>
<!DOCTYPE svg PUBLIC "-//W3C//DTD SVG 1.1//EN" "http://www.w3.org/Graphics/SVG/1.1/DTD/svg11.dtd">
<svg xmlns="http://www.w3.org/2000/svg" version="1.1" width="1193px" height="297px" style="shape-rendering:geometricPrecision; text-rendering:geometricPrecision; image-rendering:optimizeQuality; fill-rule:evenodd; clip-rule:evenodd" xmlns:xlink="http://www.w3.org/1999/xlink">
<g><path style="opacity:0.988" fill="#b7b7b7" d="M 186.5,131.5 C 193.642,164.158 181.642,186.325 150.5,198C 145.536,198.912 140.536,199.412 135.5,199.5C 130.014,184.521 124.514,169.521 119,154.5C 112.553,141.212 102.053,133.545 87.5,131.5C 99.9732,102.928 121.64,91.7611 152.5,98C 169.66,103.327 180.993,114.493 186.5,131.5 Z"/></g>
<g><path style="opacity:0.928" fill="#fefffe" d="M 880.5,110.5 C 886.544,109.679 891.377,111.679 895,116.5C 911.5,143 928,169.5 944.5,196C 937.5,196.667 930.5,196.667 923.5,196C 916.997,185.344 910.33,174.844 903.5,164.5C 899.614,168.897 896.281,173.731 893.5,179C 880.5,179.333 867.5,179.667 854.5,180C 851.167,185.333 847.833,190.667 844.5,196C 837.5,196.667 830.5,196.667 823.5,196C 840.438,168.067 857.771,140.401 875.5,113C 877.315,112.243 878.981,111.41 880.5,110.5 Z M 883.5,131.5 C 889.809,141.436 896.142,151.436 902.5,161.5C 890.167,162.833 877.833,162.833 865.5,161.5C 871.511,151.472 877.511,141.472 883.5,131.5 Z"/></g>
<g><path style="opacity:0.924" fill="#fefffe" d="M 275.5,111.5 C 281.403,110.488 286.57,111.821 291,115.5C 307.959,142.583 324.792,169.75 341.5,197C 334.5,197.667 327.5,197.667 320.5,197C 313.959,186.083 307.292,175.25 300.5,164.5C 297.043,169.246 293.71,174.08 290.5,179C 277.5,179.333 264.5,179.667 251.5,180C 248.292,185.583 244.959,191.083 241.5,196.5C 234.5,197.833 227.5,197.833 220.5,196.5C 236.333,170.833 252.167,145.167 268,119.5C 270.028,116.308 272.528,113.641 275.5,111.5 Z M 280.5,131.5 C 286.934,141.519 293.267,151.685 299.5,162C 287.167,162.667 274.833,162.667 262.5,162C 268.901,152.025 274.901,141.859 280.5,131.5 Z"/></g>
<g><path style="opacity:0.94" fill="#fefffe" d="M 351.5,111.5 C 377.885,111.036 404.218,111.536 430.5,113C 447.266,119.361 452.433,130.861 446,147.5C 443.795,150.04 441.295,152.207 438.5,154C 449.253,163.052 451.42,173.885 445,186.5C 439.081,193.257 431.581,196.757 422.5,197C 398.836,197.5 375.169,197.667 351.5,197.5C 351.5,168.833 351.5,140.167 351.5,111.5 Z M 368.5,127.5 C 386.836,127.333 405.17,127.5 423.5,128C 432.313,131.273 433.646,136.273 427.5,143C 425.608,143.973 423.608,144.64 421.5,145C 406.833,145.333 392.167,145.667 377.5,146C 374.543,150.08 371.71,154.247 369,158.5C 368.5,148.172 368.334,137.839 368.5,127.5 Z M 368.5,161.5 C 386.503,161.333 404.503,161.5 422.5,162C 431.589,164.827 433.589,170.16 428.5,178C 426.043,179.562 423.376,180.562 420.5,181C 403.17,181.5 385.837,181.667 368.5,181.5C 368.5,174.833 368.5,168.167 368.5,161.5 Z"/></g>
<g><path style="opacity:0.955" fill="#fefffe" d="M 461.5,111.5 C 467.167,111.5 472.833,111.5 478.5,111.5C 478.5,134.833 478.5,158.167 478.5,181.5C 503.836,181.333 529.169,181.5 554.5,182C 551.167,187 547.833,192 544.5,197C 518.833,197.667 493.167,197.667 467.5,197C 464.943,196.315 463.109,194.815 462,192.5C 461.5,165.502 461.333,138.502 461.5,111.5 Z"/></g>
<g><path style="opacity:0.933" fill="#fefffe" d="M 589.5,111.5 C 613.176,111.167 636.843,111.5 660.5,112.5C 657.5,117.167 654.5,121.833 651.5,126.5C 632.175,127.333 612.842,127.833 593.5,128C 578.114,132.935 571.447,143.435 573.5,159.5C 576.167,155.5 578.833,151.5 581.5,147.5C 604.826,146.334 628.16,146.167 651.5,147C 648.376,151.414 645.376,155.914 642.5,160.5C 619.507,161.333 596.507,161.833 573.5,162C 576.808,170.641 582.808,176.641 591.5,180C 614.466,181.115 637.466,181.948 660.5,182.5C 657.5,187.167 654.5,191.833 651.5,196.5C 630.137,197.93 608.804,197.764 587.5,196C 560.337,185.842 550.503,166.675 558,138.5C 564.104,124.22 574.604,115.22 589.5,111.5 Z"/></g>
<g><path style="opacity:0.931" fill="#fefffe" d="M 685.5,111.5 C 709.509,111.167 733.509,111.5 757.5,112.5C 754.167,117.167 750.833,121.833 747.5,126.5C 727.842,127.333 708.175,127.833 688.5,128C 680.723,130.218 678.723,134.885 682.5,142C 684.957,143.562 687.624,144.562 690.5,145C 705.5,145.333 720.5,145.667 735.5,146C 754.853,150.855 761.687,163.022 756,182.5C 751.005,191.756 743.172,196.589 732.5,197C 709.493,197.833 686.493,197.666 663.5,196.5C 666.5,191.833 669.5,187.167 672.5,182.5C 691.491,181.667 710.491,181.167 729.5,181C 737.47,180.377 740.97,176.21 740,168.5C 738.833,166 737,164.167 734.5,163C 719.568,161.715 704.568,161.048 689.5,161C 674.249,159.577 665.249,151.41 662.5,136.5C 664.318,122.685 671.985,114.352 685.5,111.5 Z"/></g>
<g><path style="opacity:0.944" fill="#fefffe" d="M 768.5,111.5 C 798.169,111.333 827.835,111.5 857.5,112C 853.88,117.289 849.88,122.289 845.5,127C 835.506,127.5 825.506,127.666 815.5,127.5C 815.5,150.833 815.5,174.167 815.5,197.5C 809.833,197.5 804.167,197.5 798.5,197.5C 798.5,174.167 798.5,150.833 798.5,127.5C 785.163,127.667 771.829,127.5 758.5,127C 761.979,121.862 765.312,116.695 768.5,111.5 Z"/></g>
<g><path style="opacity:0.931" fill="#fefffe" d="M 970.5,111.5 C 994.169,111.333 1017.84,111.5 1041.5,112C 1038.17,117 1034.83,122 1031.5,127C 1011.12,127.047 990.782,127.714 970.5,129C 955.651,136.536 950.485,148.37 955,164.5C 959.529,173.354 966.696,178.854 976.5,181C 998.167,181.333 1019.83,181.667 1041.5,182C 1038.17,187 1034.83,192 1031.5,197C 1011.83,197.667 992.167,197.667 972.5,197C 947.455,191.081 935.288,175.247 936,149.5C 939.706,129.633 951.206,116.966 970.5,111.5 Z"/></g>
<g><path style="opacity:0.938" fill="#fefffe" d="M 1050.5,111.5 C 1055.83,111.5 1061.17,111.5 1066.5,111.5C 1066.5,140.167 1066.5,168.833 1066.5,197.5C 1061.17,197.5 1055.83,197.5 1050.5,197.5C 1050.5,168.833 1050.5,140.167 1050.5,111.5 Z"/></g>
<g><path style="opacity:0.91" fill="#fefffe" d="M 1118.5,111.5 C 1126.84,111.334 1135.17,111.5 1143.5,112C 1125,125.672 1106.67,139.506 1088.5,153.5C 1107.13,167.822 1125.79,182.155 1144.5,196.5C 1140.5,196.833 1136.5,197.167 1132.5,197.5C 1127.72,197.609 1123.06,197.109 1118.5,196C 1106.19,185.848 1093.53,176.182 1080.5,167C 1076.96,163.799 1073.8,160.299 1071,156.5C 1070.25,153.697 1070.58,151.03 1072,148.5C 1074.83,145.667 1077.67,142.833 1080.5,140C 1093.35,130.637 1106.02,121.137 1118.5,111.5 Z"/></g>
<g><path style="opacity:0.98" fill="#fefefe" d="M 87.5,131.5 C 102.053,133.545 112.553,141.212 119,154.5C 124.514,169.521 130.014,184.521 135.5,199.5C 115.21,200.643 94.8766,200.81 74.5,200C 53.905,193.729 45.0716,179.895 48,158.5C 54.5052,139.982 67.6719,130.982 87.5,131.5 Z"/></g>
<g><path style="opacity:0.96" fill="#e7e7e7" d="M 186.5,131.5 C 206.628,134.628 217.961,146.294 220.5,166.5C 218.976,184.191 209.643,195.358 192.5,200C 173.329,200.829 154.329,200.662 135.5,199.5C 140.536,199.412 145.536,198.912 150.5,198C 181.642,186.325 193.642,164.158 186.5,131.5 Z"/></g>
</svg>
