<?xml version="1.0" encoding="UTF-8"?>
<!DOCTYPE svg PUBLIC "-//W3C//DTD SVG 1.1//EN" "http://www.w3.org/Graphics/SVG/1.1/DTD/svg11.dtd">
<svg xmlns="http://www.w3.org/2000/svg" version="1.1" width="935px" height="117px" style="shape-rendering:geometricPrecision; text-rendering:geometricPrecision; image-rendering:optimizeQuality; fill-rule:evenodd; clip-rule:evenodd" xmlns:xlink="http://www.w3.org/1999/xlink">
<g><path style="opacity:0.979" fill="#1c529e" d="M 178.5,46.5 C 179.92,56.2988 178.087,65.6321 173,74.5C 169.845,78.5025 166.012,81.5025 161.5,83.5C 156.891,85.0363 152.224,86.3696 147.5,87.5C 144.216,76.4804 140.049,65.8137 135,55.5C 133.833,54.3333 132.667,53.1667 131.5,52C 127.152,50.6206 123.152,48.7873 119.5,46.5C 124.432,33.1852 134.098,26.5185 148.5,26.5C 163.1,26.4566 173.1,33.1233 178.5,46.5 Z"/></g>
<g><path style="opacity:0.963" fill="#01bce4" d="M 594.5,37.5 C 597.862,37.0695 600.695,38.0695 603,40.5C 611.082,54.3334 619.416,68 628,81.5C 628.483,82.448 628.649,83.448 628.5,84.5C 624.76,84.7592 621.094,84.4259 617.5,83.5C 614,77.8333 610.5,72.1667 607,66.5C 605.877,69.2487 604.377,71.7487 602.5,74C 595.833,74.3333 589.167,74.6667 582.5,75C 580.5,78 578.5,81 576.5,84C 572.848,84.4986 569.182,84.6653 565.5,84.5C 573.943,68.0618 583.609,52.3952 594.5,37.5 Z M 596.5,49.5 C 599.6,54.1854 602.6,59.0187 605.5,64C 599.833,64.6667 594.167,64.6667 588.5,64C 592.079,59.675 594.746,54.8416 596.5,49.5 Z"/></g>
<g><path style="opacity:0.924" fill="#241714" d="M 284.5,37.5 C 287.265,37.7976 289.765,38.7976 292,40.5C 300.082,54.3334 308.416,68 317,81.5C 317.483,82.448 317.649,83.448 317.5,84.5C 313.818,84.6653 310.152,84.4986 306.5,84C 303.375,78.2461 299.875,72.7461 296,67.5C 294.623,69.7538 293.123,71.9205 291.5,74C 284.833,74.3333 278.167,74.6667 271.5,75C 269.959,77.9156 268.293,80.7489 266.5,83.5C 262.5,84.8333 258.5,84.8333 254.5,83.5C 262.532,70.6312 270.365,57.6312 278,44.5C 279.694,41.6424 281.861,39.309 284.5,37.5 Z M 285.5,50.5 C 289.029,54.5511 292.029,59.0511 294.5,64C 289.136,64.8295 283.802,64.6628 278.5,63.5C 281.113,59.272 283.446,54.9386 285.5,50.5 Z"/></g>
<g><path style="opacity:0.939" fill="#231715" d="M 322.5,37.5 C 336.218,37.0939 349.885,37.5939 363.5,39C 374.502,44.403 376.169,51.7363 368.5,61C 375.167,67.6667 375.167,74.3333 368.5,81C 366.043,82.5621 363.376,83.5621 360.5,84C 347.838,84.4999 335.171,84.6666 322.5,84.5C 322.5,68.8333 322.5,53.1667 322.5,37.5 Z M 332.5,47.5 C 341.839,47.3335 351.173,47.5002 360.5,48C 363.838,49.9879 364.172,52.3212 361.5,55C 353.167,55.3333 344.833,55.6667 336.5,56C 335.213,57.4095 334.046,58.9095 333,60.5C 332.501,56.1794 332.334,51.8461 332.5,47.5 Z M 332.5,65.5 C 341.839,65.3335 351.173,65.5002 360.5,66C 363.932,68.367 364.265,71.0337 361.5,74C 351.839,74.4998 342.172,74.6665 332.5,74.5C 332.5,71.5 332.5,68.5 332.5,65.5 Z"/></g>
<g><path style="opacity:0.894" fill="#241715" d="M 378.5,37.5 C 381.833,37.5 385.167,37.5 388.5,37.5C 388.5,49.8333 388.5,62.1667 388.5,74.5C 401.5,74.5 414.5,74.5 427.5,74.5C 426.516,77.9648 424.85,81.1315 422.5,84C 408.406,84.9642 394.406,84.6309 380.5,83C 380,82.5 379.5,82 379,81.5C 378.5,66.8371 378.333,52.1705 378.5,37.5 Z"/></g>
<g><path style="opacity:0.892" fill="#231715" d="M 447.5,37.5 C 459.167,37.5 470.833,37.5 482.5,37.5C 481.516,40.9648 479.85,44.1315 477.5,47C 467.167,47.3333 456.833,47.6667 446.5,48C 439.918,50.6674 437.085,55.5007 438,62.5C 438.792,60.4127 439.959,58.5793 441.5,57C 453.514,56.1674 465.514,56.3341 477.5,57.5C 476.029,60.136 474.363,62.636 472.5,65C 460.833,65.3333 449.167,65.6667 437.5,66C 439.5,69.3333 442.167,72 445.5,74C 457.829,74.4999 470.162,74.6665 482.5,74.5C 481.138,77.7308 479.471,80.8975 477.5,84C 465.775,84.912 454.108,84.5787 442.5,83C 428.085,75.7641 423.919,64.5975 430,49.5C 434.39,43.2581 440.223,39.2581 447.5,37.5 Z"/></g>
<g><path style="opacity:0.938" fill="#01bde4" d="M 496.5,37.5 C 508.5,37.5 520.5,37.5 532.5,37.5C 531.335,40.6933 529.669,43.6933 527.5,46.5C 516.849,47.3324 506.182,47.8324 495.5,48C 492.141,50.0342 491.808,52.3676 494.5,55C 502.167,55.3333 509.833,55.6667 517.5,56C 532.137,58.5486 536.137,66.5486 529.5,80C 526.874,82.1457 523.874,83.479 520.5,84C 508.171,84.4999 495.838,84.6665 483.5,84.5C 484.484,81.0352 486.15,77.8685 488.5,75C 499.167,74.6667 509.833,74.3333 520.5,74C 523.399,70.8442 523.065,68.1775 519.5,66C 511.5,65.6667 503.5,65.3333 495.5,65C 481.534,60.1194 479.201,52.1194 488.5,41C 491.158,39.522 493.825,38.3554 496.5,37.5 Z"/></g>
<g><path style="opacity:0.943" fill="#01bce3" d="M 644.5,37.5 C 655.833,37.5 667.167,37.5 678.5,37.5C 677.516,40.9648 675.85,44.1315 673.5,47C 663.167,47.3333 652.833,47.6667 642.5,48C 633.238,52.9219 631.071,60.0886 636,69.5C 637.543,71.3783 639.376,72.8783 641.5,74C 653.829,74.4999 666.162,74.6665 678.5,74.5C 677.516,77.9648 675.85,81.1315 673.5,84C 661.775,84.912 650.108,84.5787 638.5,83C 625.503,76.695 621.003,66.5284 625,52.5C 629.083,44.2384 635.583,39.2384 644.5,37.5 Z"/></g>
<g><path style="opacity:0.958" fill="#03bce4" d="M 718.5,37.5 C 722.884,37.1744 727.217,37.5078 731.5,38.5C 721.872,45.9888 712.205,53.4888 702.5,61C 712.62,67.9575 722.286,75.4575 731.5,83.5C 727.205,84.6609 722.871,84.8275 718.5,84C 711.12,77.6184 703.453,71.6184 695.5,66C 694.484,64.3232 693.484,62.6565 692.5,61C 693.716,57.7788 695.716,55.1122 698.5,53C 705.416,48.0552 712.083,42.8885 718.5,37.5 Z"/></g>
<g><path style="opacity:0.909" fill="#00bce3" d="M 538.5,37.5 C 553.504,37.3334 568.504,37.5001 583.5,38C 582.635,41.302 580.635,44.302 577.5,47C 572.511,47.4993 567.511,47.6659 562.5,47.5C 562.5,59.8333 562.5,72.1667 562.5,84.5C 559.167,84.5 555.833,84.5 552.5,84.5C 552.5,72.1667 552.5,59.8333 552.5,47.5C 545.8,47.83 539.134,47.4967 532.5,46.5C 534.262,43.2993 536.262,40.2993 538.5,37.5 Z"/></g>
<g><path style="opacity:1" fill="#00bce4" d="M 682.5,37.5 C 685.5,37.5 688.5,37.5 691.5,37.5C 691.5,53.1667 691.5,68.8333 691.5,84.5C 688.5,84.5 685.5,84.5 682.5,84.5C 682.5,68.8333 682.5,53.1667 682.5,37.5 Z"/></g>
<g><path style="opacity:0.992" fill="#2381c0" d="M 119.5,46.5 C 123.152,48.7873 127.152,50.6206 131.5,52C 132.667,53.1667 133.833,54.3333 135,55.5C 140.049,65.8137 144.216,76.4804 147.5,87.5C 152.224,86.3696 156.891,85.0363 161.5,83.5C 158.377,85.5439 155.044,87.2105 151.5,88.5C 138.163,88.6666 124.829,88.4999 111.5,88C 96.1235,81.5429 91.9568,70.7096 99,55.5C 104.191,48.8222 111.025,45.8222 119.5,46.5 Z"/></g>
<g><path style="opacity:0.939" fill="#02bae2" d="M 178.5,46.5 C 195.964,51.0967 201.464,61.7634 195,78.5C 191.635,83.1864 187.135,86.3531 181.5,88C 171.506,88.4998 161.506,88.6665 151.5,88.5C 155.044,87.2105 158.377,85.5439 161.5,83.5C 166.012,81.5025 169.845,78.5025 173,74.5C 178.087,65.6321 179.92,56.2988 178.5,46.5 Z"/></g>
</svg>
