<svg id="logo" xmlns="http://www.w3.org/2000/svg" viewBox="0 0 300 300"><title>Ansible-Mark-RGB</title><path d="M202.79511,195.28745L161.20435,95.1969a6.712,6.712,0,0,0-6.44248-4.41387,6.93571,6.93571,0,0,0-6.62067,4.41387L102.49294,204.9835h15.61529l18.07045-45.26508,53.92568,43.5655c2.169,1.75373,3.73371,2.54688,5.76785,2.54688a7.45654,7.45654,0,0,0,7.63512-7.46245A9.884,9.884,0,0,0,202.79511,195.28745Zm-48.03324-82.10658,27.03826,66.73385-40.8407-32.171Z" fill="#fff"/><path d="M153.00038,259.70772a106.78925,106.78925,0,1,1,106.78925-106.7885A106.91,106.91,0,0,1,153.00038,259.70772Zm0-208.967a102.1777,102.1777,0,1,0,102.1777,102.17845A102.29417,102.29417,0,0,0,153.00038,50.74077Z" fill="#fff"/><path d="M154.79931,112.89294l27.63843,68.20864-41.74528-32.8803Zm49.09554,83.922L161.38455,94.51424a6.85642,6.85642,0,0,0-6.58524-4.51358,7.08778,7.08778,0,0,0-6.76578,4.51358L101.37686,206.72648h15.96125l18.46744-46.268,55.11772,44.52993c2.21855,1.79319,3.81589,2.60411,5.89673,2.60411a7.62418,7.62418,0,0,0,7.80314-7.62872,10.11356,10.11356,0,0,0-.72829-3.1488" fill="#fff"/></svg>