<svg id="logo" xmlns="http://www.w3.org/2000/svg" viewBox="0 0 281.5 84">
  <title>Logotype_RH_AnsibleTower_RGB_RedGray (1)</title>
  <path d="M114.27,22.69l-3.32-6.86h-2.27v6.86h-5.55V2.34h9.1c4.77,0,7.93,1.8,7.93,6.63a6.06,6.06,0,0,1-3.63,6l4,7.76ZM112.09,6.94h-3.4v4.45h3.38c1.83,0,2.56-.81,2.56-2.27s-.75-2.18-2.56-2.18Z" fill="#4c4c4c"/>
  <path d="M124.83,22.69V2.34h15.58V7.07h-10v2.7h6.06v4.68H130.4v3.49h10.2v4.74Z" fill="#4c4c4c"/>
  <path d="M151.68,22.69h-6.6V2.34h7.12c6.4,0,10.47,2.42,10.47,10.05S158.89,22.69,151.68,22.69Zm.5-15.53h-1.36v10.7H152c3.51,0,4.85-1.33,4.85-5.38,0-3.74-1.21-5.31-4.7-5.31Z" fill="#4c4c4c"/>
  <path d="M189.51,22.69v-8h-6.35v8h-5.69V2.34h5.75V9.75h6.34V2.34h5.75V22.69Z" fill="#4c4c4c"/>
  <path d="M213.4,22.69l-1.1-3.63h-6.06l-1.1,3.63h-6.06l7.39-20.35h5.69l7.39,20.35Zm-2.85-9.39c-.73-2.62-1-3.72-1.31-5.09-.27,1.37-.58,2.5-1.31,5.09l-.38,1.33h3.37Z" fill="#4c4c4c"/>
  <path d="M231,7.26V22.69h-5.64V7.26h-5.71V2.34h17V7.26Z" fill="#4c4c4c"/>
  <path d="M241.85,7.45a2.62,2.62,0,1,1,2.63-2.62A2.57,2.57,0,0,1,242,7.45Zm0-4.85a2.2,2.2,0,1,0,2.24,2.23A2.16,2.16,0,0,0,242,2.63h-.14ZM242.45,5,243,6.24h-.57l-.56-1.1h-.56v1.1h-.48V3.34h1.21a.84.84,0,0,1,.93.86.81.81,0,0,1-.58.85Zm-.34-1.21h-.75v.81h.75c.27,0,.46-.12.46-.41a.4.4,0,0,0-.39-.41h-.07Z" fill="#4c4c4c"/>
  <path d="M122.81,59l-2.62-7.76H107.58L104.92,59h-3.49l10.64-30.51h3.76L126.42,59Zm-7-20.88c-.7-2-1.57-4.75-1.88-6.06-.3,1.21-1.21,4-1.91,6.06l-3.36,9.94h10.5Z" fill="#4c4c4c"/>
  <path d="M151.49,59,138.17,38.14c-.65-1-1.79-3.05-2.18-3.84V59h-3.33V28.51H136L149.19,49.8c.65,1,1.79,3.05,2.18,3.84V28.51h3.27V59Z" fill="#4c4c4c"/>
  <path d="M171.33,59.51a14.54,14.54,0,0,1-10.24-4.29l2.27-2.42a11.59,11.59,0,0,0,8.12,3.63c4.06,0,6.59-2,6.59-5.23,0-2.83-1.7-4.45-7.27-6.46-6.59-2.35-8.81-4.49-8.81-8.89,0-4.85,3.84-7.8,9.55-7.8a13.66,13.66,0,0,1,9.29,3.27L178.65,34a10.62,10.62,0,0,0-7.27-2.83c-4.19,0-5.94,2.1-5.94,4.49s1.14,4,7.27,6.15c6.76,2.42,8.85,4.71,8.85,9.24C181.45,55.8,177.7,59.51,171.33,59.51Z" fill="#4c4c4c"/>
  <path d="M188.74,59V28.51h3.4V59Z" fill="#4c4c4c"/>
  <path d="M211.33,59h-10.9V28.51h11.16c4.85,0,8.29,2.42,8.29,7.63a6.18,6.18,0,0,1-4.4,6.24A7.27,7.27,0,0,1,221.31,50C221.26,56,217.74,59,211.33,59Zm.06-27.42h-7.63v9.51h7.36c3.79,0,5.28-2.18,5.28-4.85S214.82,31.6,211.39,31.6Zm0,12.56h-7.58V55.94h7.76c4.58,0,6.32-2.27,6.32-5.75C217.86,46.34,215.34,44.16,211.39,44.16Z" fill="#4c4c4c"/>
  <path d="M227.68,59V28.51h3.4V55.94h15.08V59Z" fill="#4c4c4c"/>
  <path d="M252.76,59V28.51H271.2V31.6h-15V41.2h8.72v3.13h-8.72V56H272v3.1Z" fill="#4c4c4c"/>
  <path d="M277.37,33.67A2.62,2.62,0,1,1,280,31a2.57,2.57,0,0,1-2.46,2.68Zm0-4.85a2.2,2.2,0,1,0,2.2,2.2v0a2.16,2.16,0,0,0-2.17-2.14h0Zm.59,2.42.59,1.21H278l-.56-1.1h-.56v1.1h-.48v-2.9h1.21a.84.84,0,0,1,.93.86.81.81,0,0,1-.55.85ZM277.62,30h-.75v.81h.75c.27,0,.46-.12.46-.41a.4.4,0,0,0-.4-.4h-.07Z" fill="#4c4c4c"/>
  <path d="M108.91,67.82v13h-2.29v-13h-4.45V65.57h11.19v2.25Z" fill="#4c4c4c"/>
  <path d="M117.91,81.07c-2.88,0-5-2.42-5-6s2.23-6,5.1-6,5.1,2.34,5.1,5.91C123.09,78.86,120.87,81.07,117.91,81.07Zm0-9.79c-1.7,0-2.75,1.5-2.75,3.78,0,2.51,1.21,3.89,2.86,3.89s2.81-1.72,2.81-3.82c0-2.35-1.13-3.85-2.93-3.85Z" fill="#4c4c4c"/>
  <path d="M135.91,80.83H134l-1.55-5.78c-.24-.87-.48-1.9-.59-2.42-.11.55-.35,1.59-.59,2.42l-1.53,5.75h-1.91l-3.14-11.45h2.23l1.36,5.56c.22.87.46,2,.57,2.51.13-.57.39-1.61.63-2.51L131,69.36h1.8l1.55,5.58c.24.9.48,1.91.61,2.48.13-.57.35-1.64.57-2.51l1.36-5.56h2.23Z" fill="#4c4c4c"/>
  <path d="M150.45,75.91h-7.57c.24,2.2,1.48,3.14,2.88,3.14a4,4,0,0,0,2.48-.92l1.37,1.44a5.32,5.32,0,0,1-3.95,1.5c-2.68,0-5-2.16-5-6s2-6,5-6c3.25,0,4.85,2.64,4.85,5.74C150.51,75.29,150.47,75.67,150.45,75.91Zm-4.91-4.74c-1.5,0-2.42,1-2.62,2.88h5.32C148.14,72.48,147.4,71.18,145.54,71.18Z" fill="#4c4c4c"/>
  <path d="M159.52,71.76a3.36,3.36,0,0,0-1.72-.41c-1.42,0-2.24,1-2.24,2.94v6.54h-2.31V69.38h2.24v1.09a3.17,3.17,0,0,1,2.62-1.33,3.29,3.29,0,0,1,1.94.48Z" fill="#4c4c4c"/>
  <circle cx="41.66" cy="41.7" r="40.94" fill="#c00"/>
  <path d="M61.19,57.95,44.88,18.73A2.63,2.63,0,0,0,42.36,17a2.71,2.71,0,0,0-2.59,1.73l-17.9,43H28L35.08,44,56.21,61.07a3.43,3.43,0,0,0,2.27,1,2.92,2.92,0,0,0,3-2.85s0,0,0-.07A3.88,3.88,0,0,0,61.19,57.95ZM42.35,25.78,53,51.93,37,39.32Z" fill="#fff"/>
</svg>
