<?xml version="1.0" encoding="UTF-8" standalone="no"?>
<svg width="51px" height="29px" viewBox="0 0 51 29" version="1.1" xmlns="http://www.w3.org/2000/svg" xmlns:xlink="http://www.w3.org/1999/xlink" xmlns:sketch="http://www.bohemiancoding.com/sketch/ns">
    <!-- Generator: Sketch 3.2.1 (9971) - http://www.bohemiancoding.com/sketch -->
    <title>CloudSync</title>
    <desc>Created with Sketch.</desc>
    <defs></defs>
    <g id="Random" stroke="none" stroke-width="1" fill="none" fill-rule="evenodd" sketch:type="MSPage">
        <g id="CloudSync" sketch:type="MSArtboardGroup">
            <path d="M29.344125,27.55 L9.10313571,27.55 C4.27926429,27.54275 0.368292857,23.6495 0.368292857,18.85 C0.368292857,15.02925 2.84179286,11.79575 6.27700714,10.62125 C6.74329286,7.888 9.13300714,5.8 12.0174214,5.8 C12.9580071,5.8 13.8432214,6.02475 14.6286214,6.41625 C16.4456786,2.639 20.31585,0.02175 24.8096786,0.02175 C31.0469786,0.02175 36.1025357,5.046 36.1025357,11.25925 C36.1025357,11.37525 36.0886929,11.484 36.0857786,11.6 C39.1906971,11.610197 41.8794511,13.3737002 43.2018303,15.95 L29.1391812,15.95 C29.1392024,15.9427528 29.1392143,15.9355028 29.1392143,15.92825 L27.6820714,15.92825 C27.6820714,15.9355035 27.6820561,15.9427535 27.6820253,15.95 L22.5857143,15.95 L22.5857143,21.0032488 C22.5845001,21.0032496 22.5832858,21.00325 22.5820714,21.00325 C19.7697857,21.00325 17.4820714,18.72675 17.4820714,15.92825 C17.4820714,13.12975 19.7697857,10.85325 22.5820714,10.85325 L22.5820714,13.53575 L28.0653,10.382 L22.5820714,7.22825 L22.5820714,9.40325 C18.9603429,9.40325 16.0249286,12.325 16.0249286,15.92825 C16.0249286,19.5315 18.9603429,22.45325 22.5820714,22.45325 C22.5832858,22.45325 22.5845001,22.4532497 22.5857143,22.453249 L22.5857143,27.55 L29.344125,27.55 Z" id="CloudSync-cloud" fill="#000000" sketch:type="MSShapeGroup"></path>
            <g id="CloudSync-server" sketch:type="MSLayerGroup" transform="translate(24.000000, 17.000000)">
                <path d="M22.2642857,4.75 C22.867854,4.75 23.3571429,4.26310967 23.3571429,3.6625 C23.3571429,3.06189033 22.867854,2.575 22.2642857,2.575 C21.6607174,2.575 21.1714286,3.06189033 21.1714286,3.6625 C21.1714286,4.26310967 21.6607174,4.75 22.2642857,4.75 Z M0.0428571429,0.4 L25.5428571,0.4 L25.5428571,9.1 L0.0428571429,9.1 L0.0428571429,0.4 Z" id="CloudSync-server-enclosure" fill="#000000" sketch:type="MSShapeGroup"></path>
                <rect id="CloudSync-server-light3" fill="#27AB45" sketch:type="MSShapeGroup" x="1.5" y="1.85" width="1.45714286" height="1.45"></rect>
                <rect id="CloudSync-server-light2" fill="#E54242" sketch:type="MSShapeGroup" x="3.68571429" y="1.85" width="1.45714286" height="1.45"></rect>
                <rect id="CloudSync-server-light1" fill="#27AB45" sketch:type="MSShapeGroup" x="5.87142857" y="1.85" width="1.45714286" height="1.45"></rect>
            </g>
        </g>
    </g>
</svg>
