<?xml version="1.0" encoding="UTF-8" standalone="no"?>
<svg width="55px" height="42px" viewBox="0 0 55 42" version="1.1" xmlns="http://www.w3.org/2000/svg" xmlns:xlink="http://www.w3.org/1999/xlink" xmlns:sketch="http://www.bohemiancoding.com/sketch/ns">
    <!-- Generator: Sketch 3.2.1 (9971) - http://www.bohemiancoding.com/sketch -->
    <title>CloudSync</title>
    <desc>Created with Sketch.</desc>
    <defs></defs>
    <g id="Random" stroke="none" stroke-width="1" fill="none" fill-rule="evenodd" sketch:type="MSPage">
        <g id="CloudSync" sketch:type="MSArtboardGroup">
            <path d="M36.5409477,41.6578074 L12.4747864,41.6578074 C6.89348782,41.6461935 3.50985601,33.2876501 3.36842952,27.7211977 C3.26430016,23.6227358 6.26813909,15.5700299 10.0264222,15.5700299 C9.70161873,12.3219956 10.948769,10.0564324 12.3414111,8.65446838 C13.2507957,7.73899662 17.0285665,6.38049299 19.1816026,8.01701681 C21.2839677,1.96620547 25.6993475,5.24541679e-16 30.8987811,0 C35.2156363,0 43.5,7 43.7135366,15.5615059 C43.7181702,15.7472848 43.6975201,15.9215349 43.6941483,16.1073564 C48,14.5 51.7748589,24.4637093 51.9373048,28.8825819 C51.9508956,29.2522799 51.9403411,29.6492134 51.9066002,30.0662646 L35.1799171,30.0662646 C37.1702823,28.1641294 38.4094561,25.4893251 38.4094561,22.5269709 L36.0752456,22.5269709 C36.0752456,25.9348632 33.9567709,28.8595257 30.9621356,30.0662646 L29.3683589,30.0662646 L29.3683589,30.5260875 C28.8936038,30.6118601 28.4047036,30.6566599 27.905509,30.6566599 C23.4004827,30.6566599 19.7357723,27.0099137 19.7357723,22.5269709 C19.7357723,18.0440282 23.4004827,14.397282 27.905509,14.397282 L27.905509,18.6944033 L36.689143,13.6423823 L27.905509,8.59036132 L27.905509,12.0745137 C22.1038288,12.0745137 17.4015618,16.7548918 17.4015618,22.5269709 C17.4015618,28.2990501 22.1038288,32.9794281 27.905509,32.9794281 C28.4019007,32.9794281 28.890272,32.9451378 29.3683589,32.8788075 L29.3683589,41.6578074 L36.5409477,41.6578074 Z" id="CloudSync-cloud" fill="#242424" sketch:type="MSShapeGroup"></path>
            <g id="CloudSync-server" sketch:type="MSLayerGroup" transform="translate(29.891633, 31.140060)">
                <path d="M20.4481279,7.51656615 C21.0411686,7.51656615 21.5219231,7.03581168 21.5219231,6.44277099 C21.5219231,5.84973029 21.0411686,5.36897582 20.4481279,5.36897582 C19.8550872,5.36897582 19.3743328,5.84973029 19.3743328,6.44277099 C19.3743328,7.03581168 19.8550872,7.51656615 20.4481279,7.51656615 Z M0.0460197928,0.241603912 L23.6695134,0.241603912 L23.6695134,9.58362184 L0.0460197928,9.58362184 L0.0460197928,0.241603912 Z M1.07379516,1.07379516 L22.5496985,1.07379516 L22.5496985,8.59036132 L1.07379516,8.59036132 L1.07379516,1.07379516 Z" id="CloudSync-server-enclosure" fill="#242424" sketch:type="MSShapeGroup"></path>
                <rect id="CloudSync-server-light3" fill="#27AB45" sketch:type="MSShapeGroup" x="2.14759033" y="2.14759033" width="2.14759033" height="2.14759033"></rect>
                <rect id="CloudSync-server-light2" fill="#E54242" sketch:type="MSShapeGroup" x="5.36897582" y="2.14759033" width="2.14759033" height="2.14759033"></rect>
                <rect id="CloudSync-server-light1" fill="#27AB45" sketch:type="MSShapeGroup" x="8.59036132" y="2.14759033" width="2.14759033" height="2.14759033"></rect>
            </g>
        </g>
    </g>
</svg>