<?xml version="1.0" encoding="UTF-8" standalone="no"?>
<svg width="40px" height="29px" viewBox="0 0 40 29" version="1.1" xmlns="http://www.w3.org/2000/svg" xmlns:xlink="http://www.w3.org/1999/xlink" xmlns:sketch="http://www.bohemiancoding.com/sketch/ns">
    <!-- Generator: Sketch 3.2.1 (9971) - http://www.bohemiancoding.com/sketch -->
    <title>InventoryScripts</title>
    <desc>Created with Sketch.</desc>
    <defs></defs>
    <g id="Random" stroke="none" stroke-width="1" fill="none" fill-rule="evenodd" sketch:type="MSPage">
        <g id="InventoryScripts" sketch:type="MSArtboardGroup" fill="#FFFFFF">
            <path d="M18.069332,19.643368 C15.4291803,19.643368 13.289335,17.5029916 13.289335,14.863371 C13.289335,12.2237504 15.4291803,10.0833739 18.069332,10.0833739 L18.069332,8.49004158 L22.0664718,10.8003735 L18.069332,13.1107054 L18.069332,11.1455955 C16.0192444,11.1455955 14.3515566,12.8132834 14.3515566,14.863371 C14.3515566,16.9134586 16.0192444,18.5811465 18.069332,18.5811465 C20.1188886,18.5811465 21.7871075,16.9134586 21.7871075,14.863371 L22.8493291,14.863371 C22.8493291,17.5029916 20.7084215,19.643368 18.069332,19.643368 L18.069332,19.643368 Z M23.1386641,23.3611435 L8.50668238,23.3611435 C4.99019788,23.3611435 2.13866408,20.5090786 2.13866408,16.9878141 C2.13866408,14.1941714 3.9423163,11.8254173 6.44650364,10.9650178 C6.78641455,8.95741907 8.52845792,7.42782001 10.6311255,7.42782001 C11.3162584,7.42782001 11.961558,7.59246435 12.5346266,7.88457528 C13.859748,5.11217699 16.6799462,3.19486706 19.9558375,3.19486706 C24.502677,3.19486706 28.1880547,6.8807759 28.1880547,11.4270842 C28.1880547,11.5120619 28.1779636,11.5970397 28.1758391,11.6767063 C29.6866205,11.6816924 31.0623568,12.2600933 32.0969473,13.2053689 L23.1386641,13.2053689 L23.1386641,23.3611435 Z" id="Fill-87" sketch:type="MSShapeGroup"></path>
            <path d="M35.6964491,18.9938144 L33.022193,16 L34.2563702,16 L36.9528193,18.9938144 L34.2563702,22 L33,22 L35.6964491,18.9938144 Z" id="&gt;" sketch:type="MSShapeGroup"></path>
            <path d="M26.6964491,18.9938144 L24.022193,16 L25.2563702,16 L27.9528193,18.9938144 L25.2563702,22 L24,22 L26.6964491,18.9938144 Z" id="&gt;-2" sketch:type="MSShapeGroup" transform="translate(25.976410, 19.000000) scale(-1, -1) translate(-25.976410, -19.000000) "></path>
            <path d="M32.4528193,15 L29.9528193,23 L28.9528193,23 L31.4528193,15 L32.4528193,15 Z" id="â„" sketch:type="MSShapeGroup"></path>
        </g>
    </g>
</svg>