<?xml version="1.0" encoding="UTF-8" standalone="no"?>
<svg width="30px" height="29px" viewBox="0 0 30 29" version="1.1" xmlns="http://www.w3.org/2000/svg" xmlns:xlink="http://www.w3.org/1999/xlink" xmlns:sketch="http://www.bohemiancoding.com/sketch/ns">
    <!-- Generator: Sketch 3.2.1 (9971) - http://www.bohemiancoding.com/sketch -->
    <title>Jobs</title>
    <desc>Created with Sketch.</desc>
    <defs></defs>
    <g id="Random" stroke="none" stroke-width="1" fill="none" fill-rule="evenodd" sketch:type="MSPage">
        <g id="Jobs" sketch:type="MSArtboardGroup" fill="#000000">
            <path d="M24.2941158,6.29410711 C24.2941158,7.17094577 23.5827184,7.88234317 22.7058798,7.88234317 C21.8290411,7.88234317 21.1176437,7.17094577 21.1176437,6.29410711 C21.1176437,5.41726844 21.8290411,4.70587104 22.7058798,4.70587104 C23.5827184,4.70587104 24.2941158,5.41726844 24.2941158,6.29410711 L24.2941158,6.29410711 Z M16.9976022,25.2415903 L12.3823454,27.9338235 C12.2996247,27.9834559 12.2169041,28 12.1176393,28 C11.9852863,28 11.8529333,27.9503676 11.7371245,27.8511029 L10.6783004,26.7922788 C10.5459474,26.6433817 10.496315,26.4448522 10.5459474,26.2628668 L11.9521981,21.6966881 L7.30329877,17.0477888 L2.73712008,18.4540395 C2.68748771,18.4705836 2.63785533,18.4705836 2.58822295,18.4705836 C2.45586995,18.4705836 2.30697282,18.4209512 2.20770806,18.3216865 L1.14888402,17.2628624 C0.983442761,17.080877 0.95035451,16.816171 1.06616339,16.6176415 L4.77204754,10.2646973 C4.8713123,10.1158001 5.03675355,10.0165354 5.20219481,9.99999126 L11.4724184,9.66910874 C12.465066,8.49447582 13.4411694,7.40256353 14.3841846,6.44300424 C18.520216,2.32351694 21.680144,0.999986887 27.4374997,0.999986887 C27.735294,0.999986887 28,1.23160465 28,1.52939891 C28,6.73477073 26.6329911,10.2908166 23.152646,13.9999869 L16.9976022,13.9999869 L16.9976022,25.2415903 Z" id="Type-something-2" sketch:type="MSShapeGroup"></path>
            <path d="M27.635122,17.3785366 L22.0595122,25.617561 L18.7785366,21.9404878 L20.2565854,20.4760976 L21.9639024,22.4702439 L26.1160976,16.0234146 L27.635122,17.3785366 Z" id="✓" sketch:type="MSShapeGroup"></path>
        </g>
    </g>
</svg>
