<?xml version="1.0" encoding="UTF-8" standalone="no"?>
<svg width="55px" height="42px" viewBox="0 0 55 42" version="1.1" xmlns="http://www.w3.org/2000/svg" xmlns:xlink="http://www.w3.org/1999/xlink" xmlns:sketch="http://www.bohemiancoding.com/sketch/ns">
    <!-- Generator: Sketch 3.2.1 (9971) - http://www.bohemiancoding.com/sketch -->
    <title>Jobs</title>
    <desc>Created with Sketch.</desc>
    <defs></defs>
    <g id="Random" stroke="none" stroke-width="1" fill="none" fill-rule="evenodd" sketch:type="MSPage">
        <g id="Jobs" sketch:type="MSArtboardGroup" fill="#000000">
            <path d="M41.8479074,8.1469495 C41.8479074,9.49629019 40.7531593,10.5910383 39.4038186,10.5910383 C38.054478,10.5910383 36.9597298,9.49629019 36.9597298,8.1469495 C36.9597298,6.79760882 38.054478,5.70286072 39.4038186,5.70286072 C40.7531593,5.70286072 41.8479074,6.79760882 41.8479074,8.1469495 L41.8479074,8.1469495 Z M30.6195217,37.3046624 L23.5172415,41.4476592 C23.3899452,41.524037 23.262649,41.5494962 23.1098934,41.5494962 C22.9062193,41.5494962 22.7025453,41.4731185 22.5243305,41.3203629 L20.8949379,39.6909704 C20.6912639,39.4618371 20.6148861,39.156326 20.6912639,38.8762741 L22.8553008,31.8495189 L15.7012493,24.6954673 L8.67449402,26.8595043 C8.59811624,26.8849635 8.52173847,26.8849635 8.44536069,26.8849635 C8.24168663,26.8849635 8.01255331,26.8085857 7.85979776,26.6558302 L6.23040523,25.0264377 C5.97581265,24.7463858 5.92489414,24.3390377 6.10310894,24.0335266 L11.8059828,14.2571715 C11.9587383,14.0280381 12.2133309,13.8752826 12.4679235,13.8498233 L22.1169823,13.3406382 C23.6445378,11.5330308 25.1466341,9.8527198 26.5978118,8.37608283 C32.9626263,2.03672754 37.8253446,-1.31130219e-05 46.6851665,-1.31130219e-05 C47.1434331,-1.31130219e-05 47.5507812,0.356416501 47.5507812,0.814683149 C47.5507812,8.82507352 45.4471323,14.2973656 40.0913338,20.0052965 L30.6195217,20.0052965 L30.6195217,37.3046624 Z" id="Type-something-2" sketch:type="MSShapeGroup"></path>
            <path d="M46.9892814,25.2044452 L38.409143,37.8832324 L33.3601481,32.2246949 L35.634673,29.9711887 L38.262012,33.0399206 L44.6517004,23.1190887 L46.9892814,25.2044452 Z" id="✓" sketch:type="MSShapeGroup"></path>
        </g>
    </g>
</svg>