<?xml version="1.0" encoding="UTF-8" standalone="no"?>
<svg width="29px" height="29px" viewBox="0 0 29 29" version="1.1" xmlns="http://www.w3.org/2000/svg" xmlns:xlink="http://www.w3.org/1999/xlink" xmlns:sketch="http://www.bohemiancoding.com/sketch/ns">
    <!-- Generator: Sketch 3.2.1 (9971) - http://www.bohemiancoding.com/sketch -->
    <title>JobTemplates</title>
    <desc>Created with Sketch.</desc>
    <defs></defs>
    <g id="Random" stroke="none" stroke-width="1" fill="none" fill-rule="evenodd" sketch:type="MSPage">
        <g id="JobTemplates" sketch:type="MSArtboardGroup" fill="#000000">
            <path d="M23.2965136,6.29411366 C23.2965136,7.17095232 22.5851162,7.88234973 21.7082776,7.88234973 C20.8314389,7.88234973 20.1200415,7.17095232 20.1200415,6.29411366 C20.1200415,5.417275 20.8314389,4.7058776 21.7082776,4.7058776 C22.5851162,4.7058776 23.2965136,5.417275 23.2965136,6.29411366 L23.2965136,6.29411366 Z M17,24.6582635 L11.3847431,27.9338301 C11.3020225,27.9834624 11.2193019,28.0000066 11.1200371,28.0000066 C10.9876841,28.0000066 10.8553311,27.9503742 10.7395222,27.8511094 L9.68069819,26.7922854 C9.54834518,26.6433883 9.4987128,26.4448587 9.54834518,26.2628734 L10.9545959,21.6966947 L6.30569655,17.0477954 L1.73951786,18.454046 C1.68988548,18.4705902 1.6402531,18.4705902 1.59062073,18.4705902 C1.45826772,18.4705902 1.30937059,18.4209578 1.21010584,18.321693 L0.151281794,17.262869 C-0.0141594633,17.0808836 -0.0472477147,16.8161776 0.0685611651,16.6176481 L3.77444532,10.2647038 C3.87371007,10.1158067 4.03915133,10.0165419 4.20459259,9.99999781 L10.4748162,9.6691153 C11.4674638,8.49448238 12.4435672,7.40257008 13.3865823,6.44301079 C17.5226138,2.3235235 20.6825418,0.999993443 26.4398975,0.999993443 C26.7376918,0.999993443 27.0023978,1.2316112 27.0023978,1.52940547 C27.0023978,7.02205519 25.4803382,10.678307 21.5593804,14.6158089 C20.7703547,15.3912307 19.8918394,16.1890249 18.951429,16.9999934 L17,16.9999934 L17,24.6582635 Z" id="Type-something-2" sketch:type="MSShapeGroup"></path>
            <g id="Fill-78-+-Fill-79" sketch:type="MSLayerGroup" transform="translate(18.000000, 18.000000)">
                <path d="M3.56995498,0 L3.56995498,3 L6.40510975,3 L3.56995498,0" id="Fill-78" sketch:type="MSShapeGroup"></path>
                <path d="M3.21697821,3.3770625 L3.21697821,0 L0.380405869,0 L0.380405869,9 L6.58230692,9 L6.58230692,3.3770625 L3.21697821,3.3770625" id="Fill-79" sketch:type="MSShapeGroup"></path>
            </g>
        </g>
    </g>
</svg>
