<?xml version="1.0" encoding="UTF-8" standalone="no"?>
<svg width="26px" height="30px" viewBox="0 0 26 30" version="1.1" xmlns="http://www.w3.org/2000/svg" xmlns:xlink="http://www.w3.org/1999/xlink" xmlns:sketch="http://www.bohemiancoding.com/sketch/ns">
    <!-- Generator: Sketch 3.2.1 (9971) - http://www.bohemiancoding.com/sketch -->
    <title>Organizations</title>
    <desc>Created with Sketch.</desc>
    <defs></defs>
    <g id="Random" stroke="none" stroke-width="1" fill="none" fill-rule="evenodd" sketch:type="MSPage">
        <g id="Organizations" sketch:type="MSArtboardGroup" fill="#FFFFFF">
            <g id="Organizations-back" sketch:type="MSLayerGroup" transform="translate(10.006000, 0.000000)">
                <path d="M7.38461538,4.10869565 L9.22707692,4.10869565 L9.22707692,6.45652174 L7.38461538,6.45652174 L7.38461538,4.10869565 Z M11.0732308,4.10869565 L13.5347692,4.10869565 L13.5347692,6.45652174 L11.0732308,6.45652174 L11.0732308,4.10869565 Z M11.0732308,8.80434783 L13.5347692,8.80434783 L13.5347692,11.1521739 L11.0732308,11.1521739 L11.0732308,8.80434783 Z M7.38461538,13.5 L9.22707692,13.5 L9.22707692,15.8478261 L7.38461538,15.8478261 L7.38461538,13.5 Z M11.0732308,13.5 L13.5347692,13.5 L13.5347692,15.8478261 L11.0732308,15.8478261 L11.0732308,13.5 Z M7.38461538,8.80434783 L9.22707692,8.80434783 L9.22707692,11.1521739 L7.38461538,11.1521739 L7.38461538,8.80434783 Z M8.61169231,22.3494391 L11.0769231,22.3494391 L11.0769231,27 L8.61169231,27 L8.61169231,22.3494391 Z M7.38092308,1.76086957 L0,1.76086957 L0,0 L16,0 L16,27 L7.38092308,27 L7.38092308,1.76086957 Z" sketch:type="MSShapeGroup"></path>
            </g>
            <g id="Organizations-front" sketch:type="MSLayerGroup" transform="translate(0.006000, 3.000000)">
                <path d="M2.45784615,4.10869565 L4.91938462,4.10869565 L4.91938462,6.45652174 L2.45784615,6.45652174 L2.45784615,4.10869565 Z M6.76553846,4.10869565 L9.22707692,4.10869565 L9.22707692,6.45652174 L6.76553846,6.45652174 L6.76553846,4.10869565 Z M11.0732308,4.10869565 L13.5347692,4.10869565 L13.5347692,6.45652174 L11.0732308,6.45652174 L11.0732308,4.10869565 Z M11.0732308,8.80434783 L13.5347692,8.80434783 L13.5347692,11.1521739 L11.0732308,11.1521739 L11.0732308,8.80434783 Z M2.45784615,13.5 L4.91938462,13.5 L4.91938462,15.8478261 L2.45784615,15.8478261 L2.45784615,13.5 Z M6.76553846,13.5 L9.22707692,13.5 L9.22707692,15.8478261 L6.76553846,15.8478261 L6.76553846,13.5 Z M11.0732308,13.5 L13.5347692,13.5 L13.5347692,15.8478261 L11.0732308,15.8478261 L11.0732308,13.5 Z M2.45784615,8.80434783 L4.91938462,8.80434783 L4.91938462,11.1521739 L2.45784615,11.1521739 L2.45784615,8.80434783 Z M6.76553846,8.80434783 L9.22707692,8.80434783 L9.22707692,11.1521739 L6.76553846,11.1521739 L6.76553846,8.80434783 Z M8.61169231,22.3494391 L11.0769231,22.3494391 L11.0769231,27 L8.61169231,27 L8.61169231,22.3494391 Z M4.91938462,22.3494391 L7.38461538,22.3494391 L7.38461538,27 L4.91938462,27 L4.91938462,22.3494391 Z M0,0 L16,0 L16,27 L0,27 L0,0 Z" sketch:type="MSShapeGroup"></path>
            </g>
        </g>
    </g>
</svg>