<?xml version="1.0" encoding="UTF-8" standalone="no"?>
<svg width="67px" height="46px" viewBox="0 0 67 46" version="1.1" xmlns="http://www.w3.org/2000/svg" xmlns:xlink="http://www.w3.org/1999/xlink" xmlns:sketch="http://www.bohemiancoding.com/sketch/ns">
    <!-- Generator: Sketch 3.2.1 (9971) - http://www.bohemiancoding.com/sketch -->
    <title>PortalMode--exit</title>
    <desc>Created with Sketch.</desc>
    <defs></defs>
    <g id="Random" stroke="none" stroke-width="1" fill="none" fill-rule="evenodd" sketch:type="MSPage">
        <g id="PortalMode--exit" sketch:type="MSArtboardGroup" fill="#FFFFFF">
            <g id="PortalMode--exit-arrow" sketch:type="MSLayerGroup" transform="translate(2.000000, 8.000000)">
                <path d="M11,8.25000041 L32.5589445,8.25 L32.5589445,13.451166 L11,13.4511664 L11,8.25000041 Z" id="Signout-arrow-line" sketch:type="MSShapeGroup"></path>
                <path d="M0.66,10.56 L11.22,0.66 L11.22,20.46 L0.66,10.56 L0.66,10.56 Z" id="Signout-arrowhead" sketch:type="MSShapeGroup"></path>
            </g>
            <path d="M7,8 L38,8 L38,31 L7,31 L7,8 Z M59,36 L59,0 L7,0 L7,36 L32,36 L32,44 L25,44 L25,46 L41,46 L41,44 L34,44 L34,36 L59,36" sketch:type="MSShapeGroup"></path>
        </g>
    </g>
</svg>