<?xml version="1.0" encoding="UTF-8" standalone="no"?>
<svg width="232px" height="50px" viewBox="0 0 232 50" version="1.1" xmlns="http://www.w3.org/2000/svg" xmlns:xlink="http://www.w3.org/1999/xlink" xmlns:sketch="http://www.bohemiancoding.com/sketch/ns">
    <!-- Generator: Sketch 3.2.1 (9971) - http://www.bohemiancoding.com/sketch -->
    <title>TowerLogo</title>
    <desc>Created with Sketch.</desc>
    <defs></defs>
    <g id="Random" stroke="none" stroke-width="1" fill="none" fill-rule="evenodd" sketch:type="MSPage">
        <g id="TowerLogo" sketch:type="MSArtboardGroup">
            <g id="TowerLogo-ansible" sketch:type="MSLayerGroup" transform="translate(1.000000, 1.000000)">
                <path d="M48,24.0000638 C48,37.255683 37.255188,48 23.9997449,48 C10.7457051,48 0,37.255683 0,24.0000638 C0,10.7459754 10.7457051,0 23.9997449,0 C37.255188,0 48,10.7459754 48,24.0000638 L48,24.0000638 Z" id="AnsibleLogo-circle-outline" stroke="#000000" sketch:type="MSShapeGroup"></path>
                <path d="M24.4531241,16.2335283 L30.8954447,31.8252409 L21.1650727,24.3088972 L24.4531241,16.2335283 Z M35.8977873,35.4171197 L25.9885097,12.0314973 C25.7055954,11.3568521 25.1396346,11 24.4531241,11 C23.7656874,11 23.158573,11.3568521 22.8760557,12.0314973 L12,37.682936 L15.7203624,37.682936 L20.0260054,27.1067475 L32.8739921,37.2855974 C33.3908598,37.6955232 33.7636238,37.8805672 34.2486008,37.8805672 C35.2189518,37.8805672 36.0672976,37.166863 36.0672976,36.1367931 C36.0672976,35.9695268 36.0069567,35.7031205 35.8977873,35.4171197 L35.8977873,35.4171197 Z" id="AnsibleLogo-letter-a" fill="#000000" sketch:type="MSShapeGroup"></path>
            </g>
            <path d="M87.787,11.624 L87.787,14.9 L79.285,14.9 L79.285,38.651 L75.502,38.651 L75.502,14.9 L67,14.9 L67,11.624 L87.787,11.624 Z M96.9200002,25.118 C96.9200002,22.8039884 97.2644967,20.7630088 97.9535002,18.995 C98.6425036,17.2269912 99.5784943,15.7515059 100.7615,14.5685 C101.944506,13.3854941 103.322492,12.495003 104.8955,11.897 C106.468508,11.298997 108.138991,11 109.907,11 C111.649009,11 113.293492,11.298997 114.8405,11.897 C116.387508,12.495003 117.745994,13.3854941 118.916,14.5685 C120.086006,15.7515059 121.015497,17.2269912 121.7045,18.995 C122.393504,20.7630088 122.738,22.8039884 122.738,25.118 C122.738,27.4320116 122.393504,29.4729912 121.7045,31.241 C121.015497,33.0090088 120.086006,34.4844941 118.916,35.6675 C117.745994,36.8505059 116.387508,37.740997 114.8405,38.339 C113.293492,38.937003 111.649009,39.236 109.907,39.236 C108.138991,39.236 106.468508,38.937003 104.8955,38.339 C103.322492,37.740997 101.944506,36.8505059 100.7615,35.6675 C99.5784943,34.4844941 98.6425036,33.0090088 97.9535002,31.241 C97.2644967,29.4729912 96.9200002,27.4320116 96.9200002,25.118 L96.9200002,25.118 Z M100.898,25.118 C100.898,26.7560082 101.105998,28.2444933 101.522,29.5835 C101.938002,30.9225067 102.529496,32.0599953 103.2965,32.996 C104.063504,33.9320047 104.999495,34.6534975 106.1045,35.1605 C107.209506,35.6675025 108.450993,35.921 109.829,35.921 C111.207007,35.921 112.441995,35.6675025 113.534,35.1605 C114.626006,34.6534975 115.555496,33.9320047 116.3225,32.996 C117.089504,32.0599953 117.680998,30.9225067 118.097,29.5835 C118.513002,28.2444933 118.721,26.7560082 118.721,25.118 C118.721,23.4799918 118.513002,21.9915067 118.097,20.6525 C117.680998,19.3134933 117.089504,18.1760047 116.3225,17.24 C115.555496,16.3039953 114.626006,15.5825025 113.534,15.0755 C112.441995,14.5684975 111.207007,14.315 109.829,14.315 C108.450993,14.315 107.209506,14.5684975 106.1045,15.0755 C104.999495,15.5825025 104.063504,16.3039953 103.2965,17.24 C102.529496,18.1760047 101.938002,19.3134933 101.522,20.6525 C101.105998,21.9915067 100.898,23.4799918 100.898,25.118 L100.898,25.118 Z M149.811,20.321 C148.718995,23.8050174 147.614006,27.0289852 146.496,29.993 C145.377995,32.9570148 144.260006,35.842986 143.142,38.651 L139.359,38.651 C137.980993,34.6729801 136.765506,30.4740221 135.7125,26.054 C134.659495,21.6339779 133.678005,16.824026 132.768,11.624 L136.746,11.624 C137.110002,13.6520101 137.486998,15.6799899 137.877,17.708 C138.267002,19.7360101 138.669998,21.7054904 139.086,23.6165 C139.502002,25.5275096 139.917998,27.3539913 140.334,29.096 C140.750002,30.8380087 141.178998,32.4499926 141.621,33.932 C142.661006,31.2019863 143.765995,28.2055163 144.936,24.9425 C146.106006,21.6794837 147.197995,18.3060174 148.212,14.822 L151.488,14.822 C152.502005,18.3060174 153.606994,21.6794837 154.803,24.9425 C155.999006,28.2055163 157.116995,31.2019863 158.157,33.932 C158.573002,32.4759927 158.988998,30.8770087 159.405,29.135 C159.821002,27.3929913 160.230498,25.5665096 160.6335,23.6555 C161.036502,21.7444904 161.432998,19.7685102 161.823,17.7275 C162.213002,15.6864898 162.589999,13.6520101 162.954,11.624 L166.815,11.624 C165.878996,16.824026 164.884506,21.6339779 163.8315,26.054 C162.778495,30.4740221 161.576007,34.6729801 160.224,38.651 L156.441,38.651 C155.296995,35.842986 154.179006,32.9570148 153.087,29.993 C151.994995,27.0289852 150.903006,23.8050174 149.811,20.321 L149.811,20.321 Z M178.561001,38.651 L178.561001,11.624 L195.058001,11.624 L195.058001,14.861 L182.344001,14.861 L182.344001,22.895 L193.654001,22.895 L193.654001,26.054 L182.344001,26.054 L182.344001,35.414 L196.033001,35.414 L196.033001,38.651 L178.561001,38.651 Z M221.351001,27.341 C221.767003,27.8610026 222.293498,28.5434958 222.930501,29.3885 C223.567504,30.2335042 224.223997,31.1694949 224.900001,32.1965 C225.576004,33.2235051 226.245497,34.2959944 226.908501,35.414 C227.571504,36.5320056 228.136998,37.6109948 228.605001,38.651 L224.471001,38.651 C223.950998,37.6629951 223.385504,36.6620051 222.774501,35.648 C222.163498,34.6339949 221.546004,33.6655046 220.922001,32.7425 C220.297998,31.8194954 219.680504,30.955004 219.069501,30.149 C218.458498,29.342996 217.906003,28.641003 217.412001,28.043 C217.073999,28.0690001 216.729503,28.082 216.378501,28.082 L215.306001,28.082 L211.913001,28.082 L211.913001,38.651 L208.130001,38.651 L208.130001,12.014 C209.196006,11.7539987 210.385494,11.5785005 211.698501,11.4875 C213.011507,11.3964995 214.213995,11.351 215.306001,11.351 C219.10202,11.351 221.994491,12.0659929 223.983501,13.496 C225.972511,14.9260071 226.967001,17.0579858 226.967001,19.892 C226.967001,21.686009 226.492506,23.2199936 225.543501,24.494 C224.594496,25.7680064 223.19701,26.7169969 221.351001,27.341 L221.351001,27.341 Z M215.618001,14.666 C214.005993,14.666 212.771005,14.7049996 211.913001,14.783 L211.913001,24.962 L214.604001,24.962 C215.904007,24.962 217.073996,24.8970006 218.114001,24.767 C219.154006,24.6369993 220.031497,24.3900018 220.746501,24.026 C221.461504,23.6619982 222.013999,23.1485033 222.404001,22.4855 C222.794003,21.8224967 222.989001,20.9450055 222.989001,19.853 C222.989001,18.8389949 222.794003,17.9940034 222.404001,17.318 C222.013999,16.6419966 221.487504,16.1090019 220.824501,15.719 C220.161497,15.328998 219.381505,15.0560008 218.484501,14.9 C217.587496,14.7439992 216.632006,14.666 215.618001,14.666 L215.618001,14.666 Z" id="TowerLogo-words" fill="#000000" sketch:type="MSShapeGroup"></path>
        </g>
    </g>
</svg>