<?xml version="1.0" encoding="UTF-8" standalone="no"?>
<!-- Generator: Adobe Illustrator 19.2.1, SVG Export Plug-In . SVG Version: 6.00 Build 0)  -->

<svg
   xmlns:dc="http://purl.org/dc/elements/1.1/"
   xmlns:cc="http://creativecommons.org/ns#"
   xmlns:rdf="http://www.w3.org/1999/02/22-rdf-syntax-ns#"
   xmlns:svg="http://www.w3.org/2000/svg"
   xmlns="http://www.w3.org/2000/svg"
   xmlns:sodipodi="http://sodipodi.sourceforge.net/DTD/sodipodi-0.dtd"
   xmlns:inkscape="http://www.inkscape.org/namespaces/inkscape"
   version="1.1"
   id="Layer_1"
   x="0px"
   y="0px"
   viewBox="0 0 146 166"
   style="enable-background:new 0 0 146 166;"
   xml:space="preserve"
   sodipodi:docname="i_med.svg"
   inkscape:version="0.92.1 r"><metadata
     id="metadata7574"><rdf:RDF><cc:Work
         rdf:about=""><dc:format>image/svg+xml</dc:format><dc:type
           rdf:resource="http://purl.org/dc/dcmitype/StillImage" /><dc:title></dc:title></cc:Work></rdf:RDF></metadata><defs
     id="defs7572" /><sodipodi:namedview
     pagecolor="#ffffff"
     bordercolor="#666666"
     borderopacity="1"
     objecttolerance="10"
     gridtolerance="10"
     guidetolerance="10"
     inkscape:pageopacity="0"
     inkscape:pageshadow="2"
     inkscape:window-width="834"
     inkscape:window-height="480"
     id="namedview7570"
     showgrid="false"
     inkscape:zoom="1.4216867"
     inkscape:cx="73"
     inkscape:cy="83"
     inkscape:window-x="0"
     inkscape:window-y="1050"
     inkscape:window-maximized="0"
     inkscape:current-layer="Layer_1" /><style
     type="text/css"
     id="style7555">
	.st0{fill:#808080;}
	.st1{fill:#DEC800;}
	.st2{fill:#CCCCCC;}
</style><g
     id="g7559" /><path
     class="st1"
     d="M114.6,143.3H31c-7.2,0-13-4.8-13-10.6l0,0c0-5.9,5.9-10.6,13-10.6h83.6c7.2,0,13,4.8,13,10.6l0,0  C127.7,138.5,121.8,143.3,114.6,143.3z"
     id="path7561" /><path
     class="st1"
     d="M114.6,110.2H31c-7.2,0-13-4.8-13-10.6l0,0C18,93.7,23.9,89,31,89h83.6c7.2,0,13,4.8,13,10.6l0,0  C127.7,105.4,121.8,110.2,114.6,110.2z"
     id="path7563" /><path
     class="st2"
     d="M99.6,40.2H46c-4.6,0-8.4-3.1-8.4-6.8l0,0c0-3.8,3.8-6.9,8.4-6.9h53.7c4.6,0,8.4,3.1,8.4,6.8l0,0  C108.1,37.1,104.3,40.2,99.6,40.2z"
     id="path7565" /><path
     class="st2"
     d="M99.6,73.3H46c-4.6,0-8.4-3.1-8.4-6.8l0,0c0-3.8,3.8-6.9,8.4-6.9h53.7c4.6,0,8.4,3.1,8.4,6.8l0,0  C108.1,70.2,104.3,73.3,99.6,73.3z"
     id="path7567" /></svg>
