<?xml version="1.0" encoding="UTF-8" standalone="no"?>
<svg width="55px" height="42px" viewBox="0 0 55 42" version="1.1" xmlns="http://www.w3.org/2000/svg" xmlns:xlink="http://www.w3.org/1999/xlink" xmlns:sketch="http://www.bohemiancoding.com/sketch/ns">
    <!-- Generator: Sketch 3.2.1 (9971) - http://www.bohemiancoding.com/sketch -->
    <title>JobTemplates</title>
    <desc>Created with Sketch.</desc>
    <defs></defs>
    <g id="Random" stroke="none" stroke-width="1" fill="none" fill-rule="evenodd" sketch:type="MSPage">
        <g id="JobTemplates" sketch:type="MSArtboardGroup" fill="#000000">
            <path d="M40.2101242,8.2287313 C40.2101242,9.59161492 39.1043885,10.6973507 37.7415048,10.6973507 C36.3786212,10.6973507 35.2728854,9.59161492 35.2728854,8.2287313 C35.2728854,6.86584768 36.3786212,5.76011191 37.7415048,5.76011191 C39.1043885,5.76011191 40.2101242,6.86584768 40.2101242,8.2287313 L40.2101242,8.2287313 Z M30.4233577,36.7724078 L21.6954788,41.8636705 C21.5669049,41.9408148 21.438331,41.9665296 21.2840422,41.9665296 C21.078324,41.9665296 20.8726057,41.8893853 20.6926022,41.7350966 L19.0468559,40.0893503 C18.8411376,39.8579172 18.7639933,39.5493398 18.8411376,39.2664772 L21.0268944,32.1691964 L13.8010397,24.9433417 L6.70375897,27.1290985 C6.62661462,27.1548133 6.54947026,27.1548133 6.47232591,27.1548133 C6.26660762,27.1548133 6.03517456,27.0776689 5.88088584,26.9233802 L4.23513958,25.277634 C3.97799173,24.9947713 3.92656216,24.5833348 4.10656566,24.2747573 L9.86667757,14.4002798 C10.0209663,14.1688467 10.2781141,14.014558 10.535262,13.9888432 L20.2811656,13.4745475 C21.8240527,11.6487977 23.3412251,9.95162191 24.8069678,8.46016437 C31.2356642,2.05718282 36.1471881,0 45.0959334,0 C45.5587996,0 45.9702361,0.360006994 45.9702361,0.82287313 C45.9702361,9.36018185 43.6044759,15.0431494 37.5100718,21.1632683 C36.2836771,22.3685182 34.9181875,23.6085419 33.4564934,24.8690424 L30.4233577,24.8690425 L30.4233577,36.7724078 Z" id="Type-something-2" sketch:type="MSShapeGroup"></path>
            <g id="Fill-78-+-Fill-79" sketch:type="MSLayerGroup" transform="translate(31.977673, 26.613090)">
                <path d="M5.54883514,0 L5.54883514,4.66294547 L9.95555917,4.66294547 L5.54883514,0" id="Fill-78" sketch:type="MSShapeGroup"></path>
                <path d="M5.000198,5.24901943 L5.000198,0 L0.591270607,0 L0.591270607,13.9888364 L10.2309794,13.9888364 L10.2309794,5.24901943 L5.000198,5.24901943" id="Fill-79" sketch:type="MSShapeGroup"></path>
            </g>
        </g>
    </g>
</svg>