<?xml version="1.0" encoding="UTF-8" standalone="no"?>
<svg width="55px" height="42px" viewBox="0 0 55 42" version="1.1" xmlns="http://www.w3.org/2000/svg" xmlns:xlink="http://www.w3.org/1999/xlink" xmlns:sketch="http://www.bohemiancoding.com/sketch/ns">
    <!-- Generator: Sketch 3.2.1 (9971) - http://www.bohemiancoding.com/sketch -->
    <title>MaintenanceJobs</title>
    <desc>Created with Sketch.</desc>
    <defs></defs>
    <g id="Random" stroke="none" stroke-width="1" fill="none" fill-rule="evenodd" sketch:type="MSPage">
        <g id="MaintenanceJobs" sketch:type="MSArtboardGroup" fill="#FFFFFF">
            <path d="M22.7780898,23.3397977 L22.7780898,22.3006685 L22.0506329,22.1134422 C21.9919203,21.8918136 21.9063401,21.6817396 21.7977523,21.4867754 L22.1806538,20.8224647 L21.4668592,20.0876761 L20.8235604,20.4849764 C20.634065,20.3734563 20.4298915,20.2855681 20.2144936,20.2253379 L20.0290614,19.4772694 L19.0196215,19.4772694 L18.8377446,20.2261221 C18.6224482,20.2865615 18.4183763,20.3746588 18.2289825,20.486388 L17.5836521,20.0922247 L16.8698575,20.8270133 L17.2558063,21.4892327 C17.1474725,21.6843015 17.0620955,21.8944801 17.0035861,22.1162132 L16.276891,22.3070993 L16.276891,23.3462286 L17.0043479,23.5334548 C17.0630605,23.7550835 17.1486407,23.9651575 17.2572285,24.1601217 L16.874327,24.8244324 L17.5881216,25.559221 L18.2314204,25.1619207 C18.4209158,25.2734408 18.6250893,25.3613289 18.8404872,25.4215592 L19.0259194,26.1696277 L20.0353593,26.1696277 L20.2172362,25.420775 C20.4325326,25.3603355 20.6366045,25.2722383 20.8259983,25.1604567 L21.4712779,25.55462 L22.1850725,24.8198315 L21.7991237,24.1576121 C21.9074575,23.9625433 21.9928345,23.7523647 22.0513439,23.5306315 L22.7780391,23.3397455 L22.7780898,23.3397977 Z M19.5275666,24.6011307 C18.5738427,24.6011307 17.8007261,23.8052754 17.8007261,22.8235008 C17.8007261,21.8417263 18.5738427,21.0458709 19.5275666,21.0458709 C20.4812904,21.0458709 21.2544071,21.8417263 21.2544071,22.8235008 C21.2544071,23.8052754 20.4812904,24.6011307 19.5275666,24.6011307 L19.5275666,24.6011307 Z" id="Shape" sketch:type="MSShapeGroup" transform="translate(19.527490, 22.823449) rotate(-16.000000) translate(-19.527490, -22.823449) "></path>
            <path d="M26.2603822,19.2223114 L26.2603822,18.4196181 L25.6984455,18.2749919 C25.653092,18.1037911 25.5869841,17.9415157 25.5031036,17.7909123 L25.7988824,17.277754 L25.2474995,16.7101539 L24.7505722,17.0170554 C24.6041932,16.9309097 24.4464759,16.863019 24.280088,16.8164931 L24.1368477,16.2386347 L23.3570885,16.2386347 L23.2165945,16.8170989 C23.0502851,16.8637864 22.8926462,16.9318386 22.7463458,17.0181458 L22.2478491,16.7136676 L21.6964662,17.2812677 L21.994599,17.7928105 C21.9109147,17.9434947 21.8449637,18.1058508 21.7997671,18.2771324 L21.2384189,18.4245857 L21.2384189,19.227279 L21.8003556,19.3719051 C21.8457091,19.543106 21.911817,19.7053813 21.9956975,19.8559848 L21.6999187,20.3691431 L22.2513016,20.9367432 L22.7482289,20.6298417 C22.8946079,20.7159873 23.0523252,20.783878 23.2187131,20.830404 L23.3619534,21.4082624 L24.1417126,21.4082624 L24.2822066,20.8297982 C24.448516,20.7831107 24.6061549,20.7150584 24.7524554,20.6287109 L25.2509128,20.9331891 L25.8022957,20.365589 L25.5041629,19.8540462 C25.5878472,19.703362 25.6537982,19.5410059 25.6989948,19.3697242 L26.260343,19.222271 L26.2603822,19.2223114 Z M23.7494594,20.1966498 C23.012739,20.1966498 22.4155317,19.5818776 22.4155317,18.8234889 C22.4155317,18.0651002 23.012739,17.450328 23.7494594,17.450328 C24.4861798,17.450328 25.0833871,18.0651002 25.0833871,18.8234889 C25.0833871,19.5818776 24.4861798,20.1966498 23.7494594,20.1966498 L23.7494594,20.1966498 Z" id="Shape-2" sketch:type="MSShapeGroup" transform="translate(23.749401, 18.823449) rotate(-3.000000) translate(-23.749401, -18.823449) "></path>
            <path d="M24.2941158,6.29410711 C24.2941158,7.17094577 23.5827184,7.88234317 22.7058798,7.88234317 C21.8290411,7.88234317 21.1176437,7.17094577 21.1176437,6.29410711 C21.1176437,5.41726844 21.8290411,4.70587104 22.7058798,4.70587104 C23.5827184,4.70587104 24.2941158,5.41726844 24.2941158,6.29410711 L24.2941158,6.29410711 Z M14.4988011,26.6992243 L12.3823454,27.9338235 C12.2996247,27.9834559 12.2169041,28 12.1176393,28 C11.9852863,28 11.8529333,27.9503676 11.7371245,27.8511029 L10.6783004,26.7922788 C10.5459474,26.6433817 10.496315,26.4448522 10.5459474,26.2628668 L11.9521981,21.6966881 L7.30329877,17.0477888 L2.73712008,18.4540395 C2.68748771,18.4705836 2.63785533,18.4705836 2.58822295,18.4705836 C2.45586995,18.4705836 2.30697282,18.4209512 2.20770806,18.3216865 L1.14888402,17.2628624 C0.983442761,17.080877 0.95035451,16.816171 1.06616339,16.6176415 L4.77204754,10.2646973 C4.8713123,10.1158001 5.03675355,10.0165354 5.20219481,9.99999126 L11.4724184,9.66910874 C12.465066,8.49447582 13.4411694,7.40256353 14.3841846,6.44300424 C18.520216,2.32351694 21.680144,0.999986887 27.4374997,0.999986887 C27.735294,0.999986887 28,1.23160465 28,1.52939891 C28,7.02204864 26.4779404,10.6783004 22.5569827,14.6158023 C22.4272714,14.7432772 22.2951416,14.8713567 22.160716,14.9999999 L14.4988011,15 L14.4988011,26.6992243 Z" id="Type-something-2" sketch:type="MSShapeGroup"></path>
        </g>
    </g>
</svg>
