<?xml version="1.0" encoding="UTF-8" standalone="no"?>
<svg width="50px" height="48px" viewBox="0 0 50 48" version="1.1" xmlns="http://www.w3.org/2000/svg" xmlns:xlink="http://www.w3.org/1999/xlink" xmlns:sketch="http://www.bohemiancoding.com/sketch/ns">
    <!-- Generator: Sketch 3.2.1 (9971) - http://www.bohemiancoding.com/sketch -->
    <title>Projects</title>
    <desc>Created with Sketch.</desc>
    <defs></defs>
    <g id="Random" stroke="none" stroke-width="1" fill="none" fill-rule="evenodd" sketch:type="MSPage">
        <g id="Projects" sketch:type="MSArtboardGroup" fill="#000000">
            <path d="M11,5 L37.0087557,5 C38.1084896,5 39,5.89811611 39,7.00199958 L39,45.9980004 C39,47.1036743 38.1001025,48 37.0087557,48 L11,48 L11,5 Z M29.5,25.5 C31.1568542,25.5 32.5,24.1568542 32.5,22.5 C32.5,20.8431458 31.1568542,19.5 29.5,19.5 C27.8431458,19.5 26.5,20.8431458 26.5,22.5 C26.5,24.1568542 27.8431458,25.5 29.5,25.5 Z M20,21.5 C21.6568542,21.5 23,20.1568542 23,18.5 C23,16.8431458 21.6568542,15.5 20,15.5 C18.3431458,15.5 17,16.8431458 17,18.5 C17,20.1568542 18.3431458,21.5 20,21.5 Z M20,39.5 C21.6568542,39.5 23,38.1568542 23,36.5 C23,34.8431458 21.6568542,33.5 20,33.5 C18.3431458,33.5 17,34.8431458 17,36.5 C17,38.1568542 18.3431458,39.5 20,39.5 Z M21,32.1115082 C21.6818613,32.2662308 22.3049134,32.5757914 22.830236,33.00127 L22.8276367,32.9968262 L25.5143157,32.7615076 C27.1632636,32.6170809 28.5065958,31.1651021 28.5148124,29.5021793 L28.5276962,26.894684 C26.5098107,26.4502486 25,24.6514419 25,22.5 C25,20.0147186 27.0147186,18 29.5,18 C31.9852814,18 34,20.0147186 34,22.5 C34,24.6376647 32.5094641,26.427196 30.5110069,26.8859796 L30.5110069,26.8859796 L30.5064583,28.9993706 C30.5028915,30.6565724 29.3608955,32.707252 27.9492244,33.5837365 L24.4439087,35.7601318 L24.4377001,35.7495172 C24.4786728,35.9935757 24.5,36.2442972 24.5,36.5 C24.5,38.9852814 22.4852814,41 20,41 C17.5147186,41 15.5,38.9852814 15.5,36.5 C15.5,34.3584126 16.9960113,32.5662374 19,32.1115082 L19,22.8884918 C16.9960113,22.4337626 15.5,20.6415874 15.5,18.5 C15.5,16.0147186 17.5147186,14 20,14 C22.4852814,14 24.5,16.0147186 24.5,18.5 C24.5,20.6415874 23.0039887,22.4337626 21,22.8884918 L21,32.1115082 Z" id="Rectangle-26" sketch:type="MSShapeGroup"></path>
            <path d="M41,5.00526988 C41,3.89778991 40.1050211,3 39.0029953,3 L15,3 L15,1 L41.0087557,1 C42.1084896,1 43,1.89811611 43,3.00199958 L43,41.9980004 C43,43.1036743 42.1052949,44 41,44 L41,44 L41,5.00526988 Z" id="Rectangle-27" sketch:type="MSShapeGroup"></path>
        </g>
    </g>
</svg>
