<?xml version="1.0" encoding="UTF-8" standalone="no"?>
<svg width="28px" height="26px" viewBox="0 0 28 26" version="1.1" xmlns="http://www.w3.org/2000/svg" xmlns:xlink="http://www.w3.org/1999/xlink" xmlns:sketch="http://www.bohemiancoding.com/sketch/ns">
    <!-- Generator: Sketch 3.2.1 (9971) - http://www.bohemiancoding.com/sketch -->
    <title>Setup</title>
    <desc>Created with Sketch.</desc>
    <defs></defs>
    <g id="Random" stroke="none" stroke-width="1" fill="none" fill-rule="evenodd" sketch:type="MSPage">
        <g id="Setup" sketch:type="MSArtboardGroup" fill="#000000">
            <path d="M27.2374467,21.8644068 L21.7059693,16.7312349 L22.4438821,16.0435835 L21.7064908,15.3607748 L19.4948386,17.4140436 L15.8063178,13.9903148 L20.2379662,9.87409201 C20.8282964,10.0677966 21.4452228,10.1646489 22.0783154,10.1646489 C23.5390176,10.1646489 24.9126304,9.63680387 25.9457082,8.6779661 C27.5399127,7.19612591 27.9920472,4.99757869 27.0976865,3.07021792 L26.793656,2.41646489 L24.4166905,4.62469734 L22.5028108,4.64891041 L22.5283639,2.95399516 L24.9517424,0.702179177 L24.2472052,0.421307506 C23.5562268,0.140435835 22.822486,0 22.0668425,0 C20.6056189,0 19.2325275,0.527845036 18.2004927,1.48668281 C16.6881627,2.89104116 16.2021311,4.94430993 16.9176196,6.79418886 L12.4875357,10.905569 L6.21814565,5.08474576 L6.95605839,4.40193705 L2.90144951,0.634382567 L0.686668304,2.68765133 L4.74388465,6.45520581 L5.4807544,5.77239709 L11.7501445,11.5932203 L7.31953908,15.7046005 C6.72764441,15.5108959 6.1081106,15.409201 5.472932,15.409201 C4.01222982,15.409201 2.63913848,15.937046 1.60658214,16.8958838 C0.00924876288,18.377724 -0.442364264,20.5859564 0.456689845,22.5133172 L0.761763311,23.1670702 L3.18462027,20.9152542 L5.00932464,20.8910412 L4.98324998,22.6682809 L2.60628442,24.8765133 L3.31238608,25.157385 C4.00127847,25.433414 4.7318903,25.5738499 5.48492635,25.5738499 C6.94562853,25.5738499 8.31819837,25.0460048 9.35075472,24.0871671 C10.8604773,22.6876513 11.3470303,20.6392252 10.6362352,18.7893462 L15.0689266,14.6731235 L18.7574473,18.0968523 L16.5442306,20.1549637 L17.2816218,20.8377724 L18.0190131,20.1549637 L23.5494474,25.2881356 C24.0422584,25.748184 24.6972538,26 25.393447,26 C26.0896403,26 26.7446357,25.748184 27.2379682,25.2881356 C28.2543582,24.3438257 28.2538367,22.8087167 27.2374467,21.8644068" sketch:type="MSShapeGroup"></path>
        </g>
    </g>
</svg>
