<svg id="logo" xmlns="http://www.w3.org/2000/svg" viewBox="0 0 92.42 30"><defs><style>.cls-1{fill:#707070;}.cls-2{fill:#fff;}</style></defs><title>tower-logo-header2</title><path class="cls-1" d="M40.6,9.8V20.9H39.2V9.8H35.6V8.5h8.6V9.7l-3.6.1h0Z"/><path class="cls-1" d="M50.8,21.1c-3.1,0-5.1-2.6-5.1-6.4s2.1-6.4,5.2-6.4,5.2,2.6,5.2,6.4S53.9,21.1,50.8,21.1Zm0-11.5c-2.1,0-3.7,2-3.7,5.1s1.6,5.2,3.8,5.2,3.7-2,3.7-5.1S53,9.6,50.8,9.6h0Z"/><path class="cls-1" d="M68.4,20.9H66.8L64.9,13c-0.2-.8-0.5-2.1-0.6-2.8-0.1.8-.4,1.9-0.6,2.8l-1.9,7.9H60.3L57.7,8.5h1.4l1.4,7.9c0.1,0.8.4,2.2,0.5,2.8,0.1-.6.4-1.9,0.6-2.7l2-8H65l2,8c0.2,0.8.5,2.1,0.6,2.7,0.1-.6.3-1.9,0.5-2.8l1.4-7.9h1.3Z"/><path class="cls-1" d="M73.4,20.9V8.5h7.5V9.7H74.8v3.9h3.5v1.3H74.8v4.7h6.4v1.2C81.2,20.9,73.4,20.9,73.4,20.9Z"/><path class="cls-1" d="M89.6,15.5l2.7,5.4H90.7L88,15.6H85.1v5.3H83.7V8.5h4.9c2.2,0,3.8,1.1,3.8,3.5A3.09,3.09,0,0,1,89.6,15.5Zm-1-5.7H85.2v4.6h3.3c1.8,0,2.7-.8,2.7-2.3s-0.9-2.3-2.6-2.3h0Z"/><circle class="cls-1" cx="15" cy="15" r="15"/><path class="cls-2" d="M22.1,21l-6-14.4a1,1,0,0,0-1.8,0L7.7,22.3H10l2.6-6.5,7.7,6.3a2,2,0,0,0,.8.4,1,1,0,0,0,1.1-1V21.4A0.6,0.6,0,0,0,22.1,21ZM15.2,9.2l3.9,9.6-5.9-4.6Z"/></svg>