<svg id="Layer_1" data-name="Layer 1" xmlns="http://www.w3.org/2000/svg" viewBox="0 0 157.76 92.78"><defs><style>.cls-1{fill:#fff;}.cls-2{fill:#b7b7b7;}.cls-3{fill:#1a1819;}.cls-4,.cls-5{fill:#286090;}.cls-4{stroke:#fff;stroke-miterlimit:10;stroke-width:2px;}</style></defs><title>awl-logo-small</title><path class="cls-1" d="M51.85,93.11l.31-.3A14.29,14.29,0,0,0,53.71,90l.25-.54-.48.35a12.11,12.11,0,0,1-3.7,1.73h0l0,0a.21.21,0,0,1-.14,0h-.09a11,11,0,0,1-1.18.25l-.35,0,.25-.24a16.28,16.28,0,0,0,2.64-4.11l.22-.45-.44.25a14,14,0,0,1-6.78,1.77,9,9,0,0,1-1,0l-.28,0,.22-.17a18.67,18.67,0,0,0,3.1-3.24l.31-.41-.49.16a21.12,21.12,0,0,1-6.23.88c-.74,0-1.19,0-1.19,0l-.37,0,.32-.19a20.21,20.21,0,0,0,3.66-3.31l.53-.58-.71.33a14.65,14.65,0,0,1-6.06,1.29,13.25,13.25,0,0,1-3.32-.38L32,83.24l.42-.1c1.47-.37,4.4-2.74,6-4.13l.5-.43-.65.16a22.46,22.46,0,0,1-5.44.66,21.61,21.61,0,0,1-6.28-.87L26,78.35l.54-.05C28,78.17,30.52,77,34,75l.51-.3h-.93c-6,0-10.88-3.88-10.93-3.92l-.31-.25.39,0a23.81,23.81,0,0,0,2.6.15,14.69,14.69,0,0,0,5.42-.9l.52-.2-.55-.1c-7.66-1.34-14.53-7.63-14.6-7.69l-.3-.28.4.08L32,64.89l.78.16-.67-.45a25,25,0,0,1-4.23-3.7l0,0h-.05C17.47,59,10.07,49.27,10,49.18l-.56-.74.72.58c4.1,3.29,14,6.31,18.07,7.46l.54.15-.38-.41a9.48,9.48,0,0,1-.69-.82l-.13-.17-.13.17a1.5,1.5,0,0,1-.25.27l-.06,0-.06,0c-2.85-1.32-6.15-5.85-6.52-6.36l0,0,0,0A27.41,27.41,0,0,1,7.89,41,22.47,22.47,0,0,1,4.3,35.52L4.09,35l.4.37C8.55,39.24,18.1,43.67,22,45.4l.59.26-.41-.5a16.38,16.38,0,0,1-3-5.15l0,0,0,0C6.77,30.77,2,16.94,1.93,16.8l-.31-.91.52.81c4.09,6.41,14.64,15.65,20.57,20.59l.95.79-.72-1a19,19,0,0,1-3.4-7v-.05l0,0-1.25-1.12,0,0v-.05l.05-1.57v-.06l-.18-.44-.13-.31-.16.3a1.91,1.91,0,0,1-.84.85l-.08,0-.06-.06A60.43,60.43,0,0,1,4.59,5.8l-.18-.65.38.56c9.72,14.13,16.46,20.38,18.9,22.41l.46.38-.21-.56-.19-.52-.12-.27a3.1,3.1,0,0,1-.27-1v0l0,0C13.5,13.25,12.13,2.7,12.12,2.59L12,1.87l.31.66A83.25,83.25,0,0,0,26.47,24.09l.6.65-.35-.82-.05-.12-.46-1.1.66,1c2,3,6.91,7.46,9.67,9.88l.78.69-.55-.89a25.75,25.75,0,0,1-3.53-8.77l-.11-.78.33.71c1.34,2.88,4.65,6.81,9.07,10.77a56.62,56.62,0,0,1,5.63,6c.42.47.81,1,1.2,1.51l.11.15.24.36a26.71,26.71,0,0,1,3.86,9.05,10.46,10.46,0,0,1,.15,3.58A4.43,4.43,0,0,1,52.32,58l0,0v0a3.24,3.24,0,0,0-.28.48,1.36,1.36,0,0,1-.2.34.45.45,0,0,0-.08.13l-.16.36v.05a13.49,13.49,0,0,0,4.61,11.23c2.3,1.88,5.66,2,7.46,2a6.26,6.26,0,0,1,1.09.08A3.56,3.56,0,0,1,66.53,74l0,0h.06a7.49,7.49,0,0,1,3,1.11,9,9,0,0,1,3.28,5.1,2.3,2.3,0,0,1,0,.47v.11l0,0,0,0a1.69,1.69,0,0,0,.22.24,3.6,3.6,0,0,1,.5.6l.07.11.06.09.1,0a2.12,2.12,0,0,1,.38,0h.06l.07,0,.28-.26a5.14,5.14,0,0,1,1.17,3,4.39,4.39,0,0,1,0,1.34l-.09.63.37-.52.54-.75-.55,1.16c0,.09-1,2.1-2.6,2.1-1,0-1.95-.78-2.89-2.33v0l0,0a4.68,4.68,0,0,1-.61-.67l-.1-.13-.13.1a4.35,4.35,0,0,1-2.65.91,5.15,5.15,0,0,1-2-.45L65,85.86,65,86a6.21,6.21,0,0,1-2.44,2.29l-.23.11.07-.25a2.5,2.5,0,0,0,.07-.3l-.3-.08c-1.41,3.91-4.33,4.71-4.45,4.74l-.29.08.17-.25a8.57,8.57,0,0,0,.7-2.61l.09-.55-.36.42A12.5,12.5,0,0,1,52.27,93l-.42.11Z" transform="translate(-1.05 -0.9)"/><path class="cls-2" d="M76.09,85.91a4.44,4.44,0,0,0,0-1.38,5.21,5.21,0,0,0-1.32-3.19l-.4.37h0a2.28,2.28,0,0,0-.41,0l-.07-.1a3.78,3.78,0,0,0-.52-.63,1.93,1.93,0,0,1-.19-.21l0,0v-.07a2.45,2.45,0,0,0-.05-.5A9.2,9.2,0,0,0,69.71,75a7.64,7.64,0,0,0-3.06-1.14,3.72,3.72,0,0,0-1.9-1.3,6.37,6.37,0,0,0-1.12-.08c-1.79-.06-5.11-.16-7.37-2a13.34,13.34,0,0,1-4.56-11.1l.16-.36a.3.3,0,0,1,.06-.09,1.5,1.5,0,0,0,.22-.37,3.11,3.11,0,0,1,.27-.45A4.57,4.57,0,0,0,53.87,56V56a10.63,10.63,0,0,0-.15-3.63,26.86,26.86,0,0,0-3.88-9.1l-.25-.37-.11-.14c-.38-.53-.78-1-1.2-1.52h0a56.63,56.63,0,0,0-5.64-6c-4.4-4-7.69-7.86-9-10.72l-.78-1.67.26,1.83a25.89,25.89,0,0,0,3.55,8.83C33.84,31,29,26.54,27,23.6l-1.55-2.31,1.08,2.57.05.13A83.49,83.49,0,0,1,12.48,2.46L11.76.9,12,2.61c0,.11,1.41,10.73,11.24,23.54a3.26,3.26,0,0,0,.29,1.07l.12.25.19.52c-2.46-2-9.17-8.28-18.88-22.38L4,4.3l.42,1.54A60.91,60.91,0,0,0,16.69,27.65l.13.15.18-.08a2.07,2.07,0,0,0,.91-.92l.18.44L18,28.82v.13l.09.08,1.25,1.12a19.15,19.15,0,0,0,3.43,7c-5.4-4.5-16.4-14-20.54-20.56L1,14.7l.73,2.15C1.83,17,6.67,30.89,19,40a16.41,16.41,0,0,0,3,5.21C18,43.44,8.61,39.08,4.59,35.28l-.93-.88.49,1.18A22.82,22.82,0,0,0,7.78,41.1a27.55,27.55,0,0,0,12.66,8.31c.47.66,3.72,5.09,6.58,6.41l.15.07.13-.11a1.63,1.63,0,0,0,.27-.3,9.73,9.73,0,0,0,.7.84c-3.73-1.05-13.89-4.13-18-7.44L8.55,47.52l1.32,1.75c.07.1,7.53,9.83,17.92,11.73A25.13,25.13,0,0,0,32,64.73h0L16.24,61.47l-1-.2.71.66c.07.07,6.92,6.37,14.68,7.73a14.52,14.52,0,0,1-5.36.89,23.74,23.74,0,0,1-2.58-.15l-.93-.1.73.59s5,4,11,4h.34c-3.44,2-6,3.17-7.34,3.3l-1.27.12,1.21.41a21.47,21.47,0,0,0,6.33.88,22.52,22.52,0,0,0,5.47-.66c-1.65,1.41-4.52,3.74-6,4.1l-1,.25,1,.28a13.45,13.45,0,0,0,3.36.38,14.75,14.75,0,0,0,6.12-1.31,20.13,20.13,0,0,1-3.63,3.28l-.75.44.87.07s.47,0,1.2,0a21.18,21.18,0,0,0,6.28-.89,18.54,18.54,0,0,1-3.07,3.21l-.53.4.66.08a8.85,8.85,0,0,0,1,0,14.09,14.09,0,0,0,6.86-1.79,16,16,0,0,1-2.61,4.06l-.6.58.83-.11a11.26,11.26,0,0,0,1.2-.26h.05a.37.37,0,0,0,.24-.08h0a12.21,12.21,0,0,0,3.75-1.76A12.88,12.88,0,0,1,52,92.7l-.72.71,1-.25a12.59,12.59,0,0,0,5.78-3.47,8,8,0,0,1-.67,2.54l-.39.59.69-.18c.14,0,3.12-.85,4.56-4.84a2.18,2.18,0,0,1-.06.28l-.17.58.55-.26a6.43,6.43,0,0,0,2.51-2.35,5.3,5.3,0,0,0,2.1.46A4.48,4.48,0,0,0,70,85.57a4.79,4.79,0,0,0,.63.69c1,1.59,2,2.4,3,2.4,1.67,0,2.69-2.1,2.74-2.19l1.3-2.72Zm-6.52-3.06A1.24,1.24,0,0,0,69.38,84a6.83,6.83,0,0,0,.38.8,3.07,3.07,0,0,1-4.37,0,6.32,6.32,0,0,0,.11-3.35,6.59,6.59,0,0,1-2,5.28,11,11,0,0,0,.4-3.33A9.82,9.82,0,0,1,63,86.6a18,18,0,0,0-.94-3.06,8.66,8.66,0,0,0,.39-2.29,9.93,9.93,0,0,1-3.18,5.63A11.12,11.12,0,0,0,60,83.74a10.45,10.45,0,0,1-1.35,3.19c-.08-.74-.25-2.36-.35-3.05a10.64,10.64,0,0,0,.86-2.7s-1.38,4.25-3.82,5.4a17.53,17.53,0,0,0,1.24-3.19,15.56,15.56,0,0,1-1.71,2.86c.06-1.24.2-4.43.14-5.62a10.25,10.25,0,0,0,.73-1.56s-2.09,4.07-5.81,5.14A14.36,14.36,0,0,0,52,80.75a13,13,0,0,1-2.49,3c.37-1.25,1.25-4.25,1.62-5.9a9.07,9.07,0,0,0,1.07-3.19,10.37,10.37,0,0,1-2,3.67,9.31,9.31,0,0,1-5.29,2.51,10.86,10.86,0,0,0,2.83-2.66,10.54,10.54,0,0,1-3.33,2.25,38.29,38.29,0,0,0,4.82-8.69s-.68,1.19-1.6,2.75c-.75.71-3,2.37-7.06,1.86a8.72,8.72,0,0,0,4.23-2.68A8.81,8.81,0,0,1,40,75.88a30.93,30.93,0,0,0,5.49-7,10.1,10.1,0,0,0,2.55-1,11.9,11.9,0,0,1-4.42.79l.07-.23L44,68.2l1-.7-1.46.71-.17.45a13.67,13.67,0,0,1-5.19-1.19,16,16,0,0,0,6-.66,17.13,17.13,0,0,1-6.24,0l4.33-1.47,1.51.27,1.22-.21-1.06-.07-.63-.07.64-.32-.73.06c1.39-.49,2.55-.91,2.79-1l-2.09-.11a26.7,26.7,0,0,1-8.17-3.09,13.76,13.76,0,0,0,5.51.83,14.74,14.74,0,0,1-5.73-1.48,46.27,46.27,0,0,0,8.14,0,13.59,13.59,0,0,0,1.48.24A28.39,28.39,0,0,1,34,54.26a18.68,18.68,0,0,0,6.76,2.38,19.72,19.72,0,0,1-6.65-2.9c2.19.72,7.35,2.3,10.15,2.24L43,55.69l-1.31-.63a30.45,30.45,0,0,1-11.1-8.62,40.42,40.42,0,0,0,10.52,5.67,41.77,41.77,0,0,1-10.13-6c2.83,1.23,11,4.74,13,5.13,0,0-2.87-1.14-6.18-2.53A47.11,47.11,0,0,1,28.3,38.36a50.28,50.28,0,0,0,11.37,9.23,51.17,51.17,0,0,1-11.08-9.66,70.73,70.73,0,0,0,5.75,4.45l.81,1.08-.6-.93c1.17.8,2.44,1.62,3.78,2.39L39,46l-.4-1a39.51,39.51,0,0,0,5.5,2.63,59,59,0,0,1-5.65-3.11c-.58-.5-1.47-1.3-2.51-2.31v-.44l-.17.26L35.63,42l.26-.75-.39.62a40.09,40.09,0,0,1-7.25-9.53,39.94,39.94,0,0,0,7.12,7.81,73.2,73.2,0,0,1-6.58-7.7,95.81,95.81,0,0,0,8.69,7l.82,1.09-.48-.85a34.48,34.48,0,0,0,4.39,2.62S39.5,40.57,36.13,38c-.55-.65-1.4-1.67-2.35-2.9l1.42,1-1.67-1.37a45.82,45.82,0,0,1-4.69-7.38,57.7,57.7,0,0,0,7.93,9,58.15,58.15,0,0,1-7.48-9.19c1.19,1.21,3.28,3.32,5.35,5.24l1.09,1.81-.45-1.22A40,40,0,0,0,38.73,36,29.88,29.88,0,0,0,42,39.51a48.72,48.72,0,0,1-3.23-4l.87.73L38.41,35a28.29,28.29,0,0,1-4-7.5A32.45,32.45,0,0,0,39,33.89a31,31,0,0,1-4-6.25c.35.46.81,1,1.34,1.68a57,57,0,0,0,7.27,8.29A32.07,32.07,0,0,1,40,33.38c.94,1,1.95,1.94,3,2.84A49.89,49.89,0,0,1,50.32,45h0A33.75,33.75,0,0,1,52,48.62L49.21,44s2.45,4.67,3.65,7.37a18.71,18.71,0,0,1,.45,2.29,8,8,0,0,1-.16,2c-.2.65-1.32,2.56-3,2.85a2.7,2.7,0,0,0,1.25-.16,3,3,0,0,0-.37,1.24,14.72,14.72,0,0,0,.82,5.88,16,16,0,0,1-2.17-4.35A14.41,14.41,0,0,0,53.15,68a11.88,11.88,0,0,0,3.55,3.49,12.67,12.67,0,0,1-4.58-2.81,12.17,12.17,0,0,0,8.29,4.13l.43.07a18.41,18.41,0,0,0,1.87.15,4.81,4.81,0,0,1,2.21,3.35c-1.08.24-2.84.12-5.45-1.47,0,0,3.11,2.52,5.48,1.73a6.13,6.13,0,0,1,0,1.29A6.53,6.53,0,0,0,65,76.6a2.83,2.83,0,0,0,1.26-.92,2.56,2.56,0,0,1-1.28.67A4.42,4.42,0,0,0,63.32,73l.39,0c.93.07,2.1-.13,3.7,2.92a5.45,5.45,0,0,0-.57-1.35,1.13,1.13,0,0,1,.63,0,4.82,4.82,0,0,1,3.41,2.23C72,78.71,73,79.83,72.07,82.6a7.65,7.65,0,0,0,.73-1.42,6.45,6.45,0,0,1,.67,1.15c-.24.5.48,1.35.48,1.35-.38-1.27-.08-1.33,0-1.35a.78.78,0,0,1,.82.17c.43,1,1.43,3.84-.22,5.2-1.34.54-2.46-.5-2.95-1.08a2.84,2.84,0,0,0,1.14.32C69.2,85.22,69.57,82.84,69.57,82.84Zm-11,7.93c.13-.79.33-2.1.41-2.89a9.16,9.16,0,0,0,3-4.15c.11.39.28,1,.4,1.72A10,10,0,0,1,59.14,91a10.81,10.81,0,0,0,1-2.5A10,10,0,0,1,58.62,90.78Zm-4.9.5c.35-.84.93-2.27,1.22-3a6,6,0,0,0,.71-1.18,8,8,0,0,0,2.54-2.92,15,15,0,0,1,0,4.35l0,0a7.92,7.92,0,0,1-4,3.23,11.66,11.66,0,0,0,2.29-3.18A11,11,0,0,1,53.71,91.28Zm-3.76-1a27.35,27.35,0,0,0,1.73-3.78,13,13,0,0,0,2.4-2.23s-4,4.07-9.25,4.3a20.31,20.31,0,0,0,3.47-2.14,20.51,20.51,0,0,1-3.73,1.6,25.08,25.08,0,0,0,2.61-3.38,7.51,7.51,0,0,0,2-1.36A12.28,12.28,0,0,1,48.35,85a8.88,8.88,0,0,0,6.33-3.86,29.77,29.77,0,0,1-.6,6.68,5.65,5.65,0,0,0,1.39-.68,9.91,9.91,0,0,1-5.17,3.62A23.51,23.51,0,0,0,53,87.62,22.35,22.35,0,0,1,50,90.31ZM44.6,85.19a15,15,0,0,1-4.09.57,20.38,20.38,0,0,0,3.81-2.15,20.64,20.64,0,0,1-4.12,1.61,43.65,43.65,0,0,0,3.38-3.65A10.36,10.36,0,0,0,48.84,80a4.48,4.48,0,0,0,1.79-1.38c-.21.76-.73,2.61-1.32,4.24a13.82,13.82,0,0,1-4.44,2.26l.31-.88Zm-10-2.57a28.32,28.32,0,0,0,5.9-4.7,20.56,20.56,0,0,0,1.91-.83,8,8,0,0,0,4.66-1.57,40.86,40.86,0,0,1-4.07,6,25.2,25.2,0,0,1-2.64,1l.16-.69-.43.77a16.16,16.16,0,0,1-5.35.69,32.22,32.22,0,0,0,5.89-2.5A32.65,32.65,0,0,1,34.61,82.62ZM29.42,78a64,64,0,0,0,10.23-5.81,10.14,10.14,0,0,0,2.84.06c-1.29,1.57-2.75,3.28-3.69,4.19a9.37,9.37,0,0,0,2.5.57,23.31,23.31,0,0,1-6.61,1.65l.69-.84-1.19.88a19.62,19.62,0,0,1-4.25-.15,22.54,22.54,0,0,0,7-2.46A23.38,23.38,0,0,1,29.42,78Zm2.09-4.14A20.66,20.66,0,0,1,26.4,72.4a14.56,14.56,0,0,0,7.2-.33,15.4,15.4,0,0,1-7.88-.7,15.12,15.12,0,0,0,6.85-1.76,15.13,15.13,0,0,0,1.7,0l0,0a5.91,5.91,0,0,0,1.34,1h0a10.8,10.8,0,0,0,3.16,1.36c-.53.36-1.71,1.14-3.16,2a19,19,0,0,1-3.9-.17l.54-.61ZM28,64.63l8.94,1.86-1,.14s4.1,3.42,9.14,2.39c-.37.47-1.21,1.53-2.2,2.75a11.91,11.91,0,0,1-6.47-1.14l.18-.74-.36.65-.1,0h0S34,69.43,33.39,68a2.69,2.69,0,0,0,.51,1.16,12.56,12.56,0,0,1-2.27-.1l.07-.47-.29.45c-2.72-.37-7.26-1.64-12.77-5.7a30.09,30.09,0,0,0,10.82,3.4,31.58,31.58,0,0,1-11-4.09L25,64l6.74,2.22ZM33,64.42c-.39-.26-.8-.54-1.22-.84a13.27,13.27,0,0,1-2.57-3.43,6,6,0,0,0,1.23,2.41,12.38,12.38,0,0,1-3.38-3.9l.23,1.56a27.84,27.84,0,0,1-14-8A31,31,0,0,0,23.26,57a32.45,32.45,0,0,1-10-5.45A79.37,79.37,0,0,0,24.62,56l.08.64.1-.59c1.58.49,3.28,1,5,1.37a22.84,22.84,0,0,0,4.54,2.86c1.93,1.38,5.62,3.6,9.55,3.82l.06,0a30.43,30.43,0,0,1-5.93,2.09L35,65.62c-.44-.25-1-.61-1.72-1l.13-.9ZM28.5,55.77a6.67,6.67,0,0,1-.78-1.14,4.64,4.64,0,0,0,.19-2S27.6,54.93,26.79,55A20.43,20.43,0,0,1,24,52.64a10.5,10.5,0,0,1-1.71-3.17s.29,1.17.43,1.57-.46-.62-.46-.62l-.72-1.14L22.45,51a25.35,25.35,0,0,1-2.57-3.55l.2,1a21.78,21.78,0,0,1-5.31-2.34,20.78,20.78,0,0,1-3.86-3.52,24.77,24.77,0,0,0,2.17,2.43,25.15,25.15,0,0,1-6.51-6.66,41.43,41.43,0,0,0,10.71,7A41.27,41.27,0,0,1,6.15,37.29a99.78,99.78,0,0,0,10.1,6c-.89-.23-1.67-.51-1.67-.51a26.24,26.24,0,0,0,4.49,1.88,40.89,40.89,0,0,0,4.38,1.71,34.29,34.29,0,0,0,8.2,6.32c1.49,1.58,5.69,5.63,10.84,7.15-1.86.08-7.43.22-9.51-.67l0,0a17.3,17.3,0,0,1-4.27-3.19l.28-.78Zm-6.78-12.3c-.18-.25-.35-.51-.52-.78l.4-.7-.57.43a17.55,17.55,0,0,1-1.17-2.21,5.2,5.2,0,0,1-.29-2.28,3.13,3.13,0,0,0-.4,1.23,35.59,35.59,0,0,1-2.82-2.35v-.42L16,35.86l.22-1.34-.37,1.26.19.44v.33a55.29,55.29,0,0,1-7-7.95l.37.26.08.06.31.59-.06-.4.21.16.18.41.72.74,2.27,2.07-2.72-2.71.62.56.57.38-1.14-1.09-1.07-1L8.66,28q-.49-.69-1-1.43l.82.33-1.07-.71c-1-1.52-2-3.17-2.94-5A74.8,74.8,0,0,0,25.23,40.45,74.87,74.87,0,0,1,5.49,21.77a112.47,112.47,0,0,0,8.1,8.37l1.68,2.44-.68-1.44,1.13,1.3-.32-.62c2.93,2.65,6.41,5.57,10.44,8.59a43.57,43.57,0,0,0,6.64,5.66,50.85,50.85,0,0,1-9.35-9.93L23.86,35,23,35.9A23.88,23.88,0,0,1,20,30.09l1,.44-1.9-1.6.13-.71-.36.52-.27-.23,0-1.37-.67-1.27a3.19,3.19,0,0,0,0-.68s-.23,1.12-.79,1.46L17,25.93l0,.78a.64.64,0,0,1-.38,0s-1.83-2.33-4-5.66V20.5l.33.22.51.76-.24-.81.08-.26.43-.67a61,61,0,0,0,7.07,7.21,61.5,61.5,0,0,1-6.94-7.41l.09-.15-.11.12A85.94,85.94,0,0,1,8,11.23,96.51,96.51,0,0,0,24.85,29.72a20.78,20.78,0,0,0,4.59,6.15,35.26,35.26,0,0,1-4.59-7.07l.13-.49.35-1.62-.42,1.39-.15-.55.06.59,0,.2-.08.32A12.52,12.52,0,0,1,23.91,26a2.06,2.06,0,0,1,.2-1.19,1.21,1.21,0,0,0-.55.65c-.49-.63-1.5-2-2.75-3.9l.17-.46-.26.33q-.42-.66-.88-1.4l0-.23,0,0,.22-.64-.29.42-.89-2.45.43,1.51L19,18.14l-.23-.09.63.82.07.19,0,.43a65.54,65.54,0,0,1-5.7-12.05A75.38,75.38,0,0,0,18,15.32a37.47,37.47,0,0,0,6.57,8.38,37.52,37.52,0,0,1-6.34-8.51c-1-1.81-2-3.66-2.85-5.54A75.49,75.49,0,0,0,23.86,22l-.23-.13.55.6-1-.72L25,23.25c.95,1,1.95,2.08,3,3.08,1.42,2.93,4,7.68,6.76,10.51l.71.68a58.38,58.38,0,0,1-8.7-7.91S27.91,35,36.61,43.43a69.79,69.79,0,0,1-10.1-8s1,5.14,10.16,12.74a76,76,0,0,1-8.14-3.79s4.83,7.65,13.3,11c-2.7-.68-7-1.83-9.53-2.77v0a36,36,0,0,1-7.81-5.86l-.2-.57-.12-1a36.94,36.94,0,0,0,7.1,6A44.49,44.49,0,0,1,24.35,45l.52-.43-.6.33a20.1,20.1,0,0,1-4.08-6.42s.47,2.72,3.86,6.54l-.06,0,.06.63v.57a25.16,25.16,0,0,1-2.21-2.64l.28-.6Zm-9.84-23.9-.26-.3.42.57.15.63h0c-.42-.65-.86-1.32-1.29-2l.15-.52-.25.36A54.7,54.7,0,0,1,6.17,9.22a90,90,0,0,0,7.47,10.45l-.58.62-.13-.57,0,.58h-.3l-.2.18-.26-.68-.36-1.16Z" transform="translate(-1.05 -0.9)"/><path class="cls-2" d="M44.94,45.45A3.23,3.23,0,0,0,46.37,47,3.36,3.36,0,0,0,48,50.32c-1.47-1.55-1.34-2.68-1.21-3.12a.82.82,0,0,1,.48-.49,1,1,0,0,0-.7.1A3.88,3.88,0,0,1,45.11,45a1.84,1.84,0,0,1,.31-1.6,1.4,1.4,0,0,0-.45.4,4.68,4.68,0,0,1-1.52-3.93,4.46,4.46,0,0,0,1.34,4.28A1.72,1.72,0,0,0,44.94,45.45Z" transform="translate(-1.05 -0.9)"/><path class="cls-2" d="M46,58.06c.34-1.85,1.2-2.12,1.55-2.2a3.6,3.6,0,0,0,.88.8,7.1,7.1,0,0,1-.73-1.14h0c-.25-.46-.43-.87-.47-1-.4-1-.71-2.64.67-3.54a1.49,1.49,0,0,0-1.26,1,3,3,0,0,1-.9-3.64,1.69,1.69,0,0,0-.22.27A3.32,3.32,0,0,1,44,46.15s-.6,1.1,1.37,2.78c-.31.69-.46,2,1.18,3.6a4.85,4.85,0,0,0,.34,2,3.48,3.48,0,0,0,.36.88v0a3,3,0,0,0-1.64,2.92A5.66,5.66,0,0,0,48,62.63S45.63,60.32,46,58.06Z" transform="translate(-1.05 -0.9)"/><path class="cls-2" d="M48.15,62.88C46.29,65.68,50,67.35,50,67.35,47.06,65.12,48.15,62.88,48.15,62.88Z" transform="translate(-1.05 -0.9)"/><path class="cls-2" d="M56.61,73.94a2.6,2.6,0,0,0,.46-.35c-3.24,1.22-5.15-2.39-5.15-2.39,1.65,3.52,3.42,3.37,4.4,2.91,0,.41.34,1.67,2.26,2.77C58.57,76.88,56.56,75.34,56.61,73.94Z" transform="translate(-1.05 -0.9)"/><path class="cls-2" d="M67.8,80.43a1.61,1.61,0,0,0,.24-.54c-1.06,1.76-3-.07-3.31-.35a2.59,2.59,0,0,0,.19-.59,2,2,0,0,1-.24.46v0l0,.07a2.8,2.8,0,0,1-2,1A4.93,4.93,0,0,1,59,77.43c.27,2.55,3.09,3.32,3.09,3.32a2.14,2.14,0,0,0,2.41-.8c1.63,1.25,2.53,1.15,3,.79a2.3,2.3,0,0,0,2,1.32A2.33,2.33,0,0,1,67.8,80.43Z" transform="translate(-1.05 -0.9)"/><path class="cls-3" d="M45.25,39.81l.07.1Z" transform="translate(-1.05 -0.9)"/><path class="cls-2" d="M48,53a2.78,2.78,0,0,1,2.39,0,15.77,15.77,0,0,1-.16,3.11,8.49,8.49,0,0,0,.48-3,7.27,7.27,0,0,1,1.92,1.51,5.29,5.29,0,0,0-1.92-1.84c0-2.81-1-7.28-5.29-12.85.8,1.08,4.55,6.43,4.95,12.7A2.57,2.57,0,0,0,48,53Z" transform="translate(-1.05 -0.9)"/><path class="cls-3" d="M45.33,39.9l.08.1Z" transform="translate(-1.05 -0.9)"/><path class="cls-2" d="M50.14,79.52a8.9,8.9,0,0,1-6.5,2.33A5.12,5.12,0,0,0,50.14,79.52Z" transform="translate(-1.05 -0.9)"/><path class="cls-2" d="M48.23,85.44S53,86,54.39,82.09C54.39,82.09,53.16,84.75,48.23,85.44Z" transform="translate(-1.05 -0.9)"/><path class="cls-2" d="M58,84.83a4.24,4.24,0,0,1-2.22,2.59S58,87.49,58,84.83Z" transform="translate(-1.05 -0.9)"/><path class="cls-2" d="M62,84.34s-.29,1.78-2.7,3.74A3.84,3.84,0,0,0,62,84.34Z" transform="translate(-1.05 -0.9)"/><path class="cls-2" d="M62.39,83.52c1-.74.5-2.31.5-2.31A6.73,6.73,0,0,1,62.39,83.52Z" transform="translate(-1.05 -0.9)"/><path class="cls-2" d="M46.16,76.57s-2.57,1-3.57.8a11.57,11.57,0,0,1-1.88.77S44.57,78.28,46.16,76.57Z" transform="translate(-1.05 -0.9)"/><polygon class="cls-2" points="40.4 72.23 40.66 71.78 38.79 71.59 36.43 73.2 38.82 72 40.4 72.23"/><path class="cls-2" d="M44.16,69.62a10.46,10.46,0,0,1-8.07-2.52S39.37,71.64,44.16,69.62Z" transform="translate(-1.05 -0.9)"/><path class="cls-2" d="M43,64.27s-5.78-.15-8.85-3.84a8.93,8.93,0,0,1-4.43-2.75s0,1.19,4.17,3.29C33.92,61,38.57,65.53,43,64.27Z" transform="translate(-1.05 -0.9)"/><path class="cls-2" d="M41.5,59.64a19.57,19.57,0,0,1-9.56-6.46,24.86,24.86,0,0,1-8.61-6.54s2,3.83,8.31,7.06A17,17,0,0,0,41.5,59.64Z" transform="translate(-1.05 -0.9)"/><path class="cls-2" d="M39.65,54.61A26.23,26.23,0,0,1,28.33,44.49S30.35,51.5,39.65,54.61Z" transform="translate(-1.05 -0.9)"/><path class="cls-2" d="M30.24,44.81a34.19,34.19,0,0,1-4.63-4.23A9.26,9.26,0,0,0,30.24,44.81Z" transform="translate(-1.05 -0.9)"/><path class="cls-2" d="M26.29,35.53s.35,6.21,7.88,10.77C34.16,46.3,28.43,42.13,26.29,35.53Z" transform="translate(-1.05 -0.9)"/><path class="cls-2" d="M32.94,35.2s-3.83-4.92-5.06-8.7c-1.25-1.1-2.23-2.1-2.23-2.1l1.92,2.24S29.73,32.21,32.94,35.2Z" transform="translate(-1.05 -0.9)"/><path class="cls-2" d="M24.42,50.09l-.32-.19-.43-.42-.73-1.58.5,1.34L23.17,49l-.33-.43,0,.18-.29-.35L21,46.83l.29,1.5-.06-1.09.31.66s.08-.24,0-.34l1.23,1.36,1.65,1.36,1.25.08L24.67,50Z" transform="translate(-1.05 -0.9)"/><path class="cls-2" d="M34.8,37.82l-.16-.22-.86-.45.75.52.49,1s-2.35-2.07-2.42-2.12,3.13,3,3.13,3l.44.67.36.3-.82-1.21-.86-1.18L37,39.3Z" transform="translate(-1.05 -0.9)"/><path class="cls-2" d="M34.23,70.27a7.78,7.78,0,0,0,3.84,1.9,8.92,8.92,0,0,1-3.8-2.3,5.82,5.82,0,0,1-1.69,0A3,3,0,0,0,34.23,70.27Z" transform="translate(-1.05 -0.9)"/><path class="cls-3" d="M45.21,75.44l-.39.19A3.23,3.23,0,0,0,45.21,75.44Z" transform="translate(-1.05 -0.9)"/><path class="cls-2" d="M45.21,75.44c.65-.32,1.92-.94,2.14-1.11a20.6,20.6,0,0,0,1.52-2.62A10.59,10.59,0,0,1,45.21,75.44Z" transform="translate(-1.05 -0.9)"/><path class="cls-2" d="M50.79,79.89a11.31,11.31,0,0,0,1.64-5,10.22,10.22,0,0,1-1.13,3.31Z" transform="translate(-1.05 -0.9)"/><path class="cls-2" d="M55.25,80.77c-.05,1.14,0,2.56,0,2.56A17.6,17.6,0,0,1,56,79.45S55.52,80.68,55.25,80.77Z" transform="translate(-1.05 -0.9)"/><path class="cls-2" d="M58.51,83.9s1.1.06.85-2.56A7.28,7.28,0,0,1,58.51,83.9Z" transform="translate(-1.05 -0.9)"/><polyline class="cls-3" points="44.72 68.25 44.77 68.25 44.72 68.25"/><polyline class="cls-3" points="44.71 68.24 44.72 68.25 44.71 68.24"/><path class="cls-2" d="M48.22,68.19a9.46,9.46,0,0,1-2.4,1A2.93,2.93,0,0,0,48.22,68.19Z" transform="translate(-1.05 -0.9)"/><path class="cls-1" d="M108,93.11l-.31-.3A14.29,14.29,0,0,1,106.14,90l-.25-.54.48.35a12.11,12.11,0,0,0,3.7,1.73h0l0,0a.21.21,0,0,0,.14,0h.09a11,11,0,0,0,1.18.25l.35,0-.25-.24A16.28,16.28,0,0,1,109,87.54l-.22-.45.44.25A14,14,0,0,0,116,89.11a9,9,0,0,0,1,0l.28,0-.22-.17a18.67,18.67,0,0,1-3.1-3.24l-.31-.41.49.16a21.12,21.12,0,0,0,6.23.88c.74,0,1.19,0,1.19,0l.37,0-.32-.19a20.21,20.21,0,0,1-3.66-3.31l-.53-.58.71.33a14.65,14.65,0,0,0,6.06,1.29,13.25,13.25,0,0,0,3.32-.38l.42-.12-.42-.1c-1.47-.37-4.4-2.74-6-4.13l-.5-.43.65.16a22.46,22.46,0,0,0,5.44.66,21.61,21.61,0,0,0,6.28-.87l.51-.17-.54-.05c-1.38-.13-3.94-1.28-7.4-3.32l-.51-.3h.93c6,0,10.88-3.88,10.93-3.92l.31-.25-.39,0a23.81,23.81,0,0,1-2.6.15,14.69,14.69,0,0,1-5.42-.9l-.52-.2.55-.1c7.66-1.34,14.53-7.63,14.6-7.69l.3-.28-.4.08-15.81,3.27-.78.16.67-.45a25,25,0,0,0,4.23-3.7l0,0H132c10.35-1.9,17.75-11.57,17.83-11.67l.56-.74-.72.58c-4.1,3.29-14,6.31-18.07,7.46l-.54.15.38-.41a9.48,9.48,0,0,0,.69-.82l.13-.17.13.17a1.5,1.5,0,0,0,.25.27l.06,0,.06,0c2.85-1.32,6.15-5.85,6.52-6.36l0,0,0,0A27.41,27.41,0,0,0,152,41a22.47,22.47,0,0,0,3.59-5.48l.21-.5-.4.37c-4.06,3.85-13.61,8.28-17.53,10l-.59.26.41-.5a16.38,16.38,0,0,0,3-5.15l0,0,0,0c12.37-9.15,17.16-23,17.21-23.12l.31-.91-.52.81c-4.09,6.41-14.64,15.65-20.57,20.59l-.95.79.72-1a19,19,0,0,0,3.4-7v-.05l0,0,1.25-1.12,0,0v-.05l-.05-1.57v-.06l.18-.44.13-.31.16.3a1.91,1.91,0,0,0,.84.85l.08,0,.06-.06A60.43,60.43,0,0,0,155.27,5.8l.18-.65-.38.56c-9.72,14.13-16.46,20.38-18.9,22.41l-.46.38.21-.56.19-.52.12-.27a3.1,3.1,0,0,0,.27-1v0l0,0c9.82-12.8,11.19-23.36,11.21-23.46l.09-.73-.31.66a83.25,83.25,0,0,1-14.13,21.56l-.6.65.35-.82.05-.12.46-1.1-.66,1c-2,3-6.91,7.46-9.67,9.88l-.78.69.55-.89a25.75,25.75,0,0,0,3.53-8.77l.11-.78-.33.71c-1.34,2.88-4.65,6.81-9.07,10.77a56.62,56.62,0,0,0-5.63,6c-.42.47-.81,1-1.2,1.51l-.11.15-.24.36a26.71,26.71,0,0,0-3.86,9.05,10.46,10.46,0,0,0-.15,3.58A4.43,4.43,0,0,0,107.54,58l0,0v0a3.24,3.24,0,0,1,.28.48,1.36,1.36,0,0,0,.2.34.45.45,0,0,1,.08.13l.16.36v.05a13.49,13.49,0,0,1-4.61,11.23c-2.3,1.88-5.66,2-7.46,2a6.26,6.26,0,0,0-1.09.08A3.56,3.56,0,0,0,93.33,74l0,0h-.06a7.49,7.49,0,0,0-3,1.11A9,9,0,0,0,87,80.24a2.3,2.3,0,0,0,0,.47v.11l0,0,0,0a1.69,1.69,0,0,1-.22.24,3.6,3.6,0,0,0-.5.6l-.07.11-.06.09-.1,0a2.12,2.12,0,0,0-.38,0h-.06l-.07,0-.28-.26a5.14,5.14,0,0,0-1.17,3,4.39,4.39,0,0,0,0,1.34l.09.63L83.64,86l-.54-.75.55,1.16c0,.09,1,2.1,2.6,2.1,1,0,1.95-.78,2.89-2.33v0l0,0a4.68,4.68,0,0,0,.61-.67l.1-.13.13.1a4.35,4.35,0,0,0,2.65.91,5.15,5.15,0,0,0,2-.45l.13-.06.07.12a6.21,6.21,0,0,0,2.44,2.29l.23.11-.07-.25a2.5,2.5,0,0,1-.07-.3l.3-.08c1.41,3.91,4.33,4.71,4.45,4.74l.29.08-.17-.25a8.57,8.57,0,0,1-.7-2.61l-.09-.55.36.42a12.5,12.5,0,0,0,5.7,3.42l.42.11Z" transform="translate(-1.05 -0.9)"/><path class="cls-2" d="M82.21,83.75l1.3,2.72c0,.09,1.06,2.19,2.74,2.19,1,0,2.05-.81,3-2.4a4.79,4.79,0,0,0,.63-.69,4.48,4.48,0,0,0,2.75.95,5.3,5.3,0,0,0,2.1-.46,6.43,6.43,0,0,0,2.51,2.35l.55.26-.17-.58a2.18,2.18,0,0,1-.06-.28c1.44,4,4.42,4.8,4.56,4.84l.69.18-.39-.59a8,8,0,0,1-.67-2.54,12.59,12.59,0,0,0,5.78,3.47l1,.25-.72-.71a12.88,12.88,0,0,1-1.52-2.78A12.21,12.21,0,0,0,110,91.67h0a.37.37,0,0,0,.24.08h.05a11.26,11.26,0,0,0,1.2.26l.83.11-.6-.58a16,16,0,0,1-2.61-4.06A14.09,14.09,0,0,0,116,89.27a8.85,8.85,0,0,0,1,0l.66-.08-.53-.4a18.54,18.54,0,0,1-3.07-3.21,21.18,21.18,0,0,0,6.28.89c.73,0,1.19,0,1.2,0l.87-.07-.75-.44A20.13,20.13,0,0,1,118,82.59a14.75,14.75,0,0,0,6.12,1.31,13.45,13.45,0,0,0,3.36-.38l1-.28-1-.25c-1.43-.36-4.31-2.68-6-4.1a22.52,22.52,0,0,0,5.47.66,21.47,21.47,0,0,0,6.33-.88l1.21-.41-1.27-.12c-1.37-.13-3.89-1.27-7.34-3.3h.34c6,0,11-3.92,11-4l.73-.59-.93.1a23.74,23.74,0,0,1-2.58.15,14.52,14.52,0,0,1-5.36-.89c7.76-1.36,14.6-7.66,14.68-7.73l.71-.66-1,.2L127.8,64.73h0A25.13,25.13,0,0,0,132.06,61c10.39-1.9,17.85-11.63,17.92-11.73l1.32-1.75-1.71,1.37c-4.12,3.31-14.28,6.38-18,7.44a9.73,9.73,0,0,0,.7-.84,1.63,1.63,0,0,0,.27.3l.13.11.15-.07c2.85-1.33,6.1-5.76,6.58-6.41a27.55,27.55,0,0,0,12.66-8.31,22.82,22.82,0,0,0,3.62-5.52l.49-1.18-.93.88c-4,3.8-13.37,8.16-17.48,10a16.41,16.41,0,0,0,3-5.21C153.18,30.89,158,17,158.08,16.85l.73-2.15-1.22,1.92c-4.15,6.51-15.14,16.06-20.54,20.56a19.15,19.15,0,0,0,3.43-7L141.73,29l.09-.08v-.13l-.05-1.57.18-.44a2.07,2.07,0,0,0,.91.92l.18.08.13-.15A60.91,60.91,0,0,0,155.42,5.84l.42-1.54-.9,1.31c-9.7,14.1-16.42,20.34-18.88,22.38l.19-.52.12-.25a3.26,3.26,0,0,0,.29-1.07c9.83-12.81,11.22-23.43,11.24-23.54L148.1.9l-.73,1.56A83.49,83.49,0,0,1,133.28,24l.05-.13,1.08-2.57-1.55,2.31c-2,2.94-6.84,7.39-9.64,9.85a25.89,25.89,0,0,0,3.55-8.83l.26-1.83-.78,1.67c-1.33,2.86-4.63,6.77-9,10.72a56.63,56.63,0,0,0-5.64,6h0c-.41.48-.82,1-1.2,1.52l-.11.14-.25.37a26.86,26.86,0,0,0-3.88,9.1A10.63,10.63,0,0,0,106,56V56a4.57,4.57,0,0,0,1.46,2.11,3.11,3.11,0,0,1,.27.45,1.5,1.5,0,0,0,.22.37A.3.3,0,0,1,108,59l.16.36a13.34,13.34,0,0,1-4.56,11.1c-2.26,1.85-5.58,1.95-7.37,2a6.37,6.37,0,0,0-1.12.08,3.72,3.72,0,0,0-1.9,1.3A7.64,7.64,0,0,0,90.14,75a9.2,9.2,0,0,0-3.34,5.2,2.45,2.45,0,0,0-.05.5v.07l0,0a1.93,1.93,0,0,1-.19.21,3.78,3.78,0,0,0-.52.63l-.07.1a2.28,2.28,0,0,0-.41,0h0l-.4-.37a5.21,5.21,0,0,0-1.32,3.19,4.44,4.44,0,0,0,0,1.38Zm4.9,3.2a2.84,2.84,0,0,0,1.14-.32c-.49.58-1.61,1.62-2.95,1.08-1.65-1.36-.65-4.19-.22-5.2a.78.78,0,0,1,.82-.17c.08,0,.39.08,0,1.35,0,0,.72-.85.48-1.35a6.45,6.45,0,0,1,.67-1.15,7.65,7.65,0,0,0,.73,1.42c-1-2.78.05-3.89,1.2-5.71a4.82,4.82,0,0,1,3.41-2.23,1.13,1.13,0,0,1,.63,0A5.45,5.45,0,0,0,92.44,76c1.61-3,2.77-2.85,3.7-2.92l.39,0a4.42,4.42,0,0,0-1.69,3.31,2.56,2.56,0,0,1-1.28-.67,2.83,2.83,0,0,0,1.26.92,6.53,6.53,0,0,0,.06,1.31,6.13,6.13,0,0,1,0-1.29c2.37.79,5.48-1.73,5.48-1.73-2.61,1.59-4.37,1.7-5.45,1.47A4.81,4.81,0,0,1,97.14,73,18.41,18.41,0,0,0,99,72.86l.43-.07a12.17,12.17,0,0,0,8.29-4.13,12.67,12.67,0,0,1-4.58,2.81A11.88,11.88,0,0,0,106.7,68a14.41,14.41,0,0,0,3.43-6.87A16,16,0,0,1,108,65.46a14.72,14.72,0,0,0,.82-5.88,3,3,0,0,0-.37-1.24,2.7,2.7,0,0,0,1.25.16c-1.63-.29-2.75-2.2-3-2.85a8,8,0,0,1-.16-2,18.71,18.71,0,0,1,.45-2.29c1.2-2.7,3.65-7.37,3.65-7.37l-2.75,4.6A33.75,33.75,0,0,1,109.54,45h0a49.89,49.89,0,0,1,7.37-8.82c1-.9,2.06-1.87,3-2.84a32.07,32.07,0,0,1-3.66,4.23,57,57,0,0,0,7.27-8.29c.53-.65,1-1.22,1.34-1.68a31,31,0,0,1-4,6.25,32.45,32.45,0,0,0,4.57-6.37,28.29,28.29,0,0,1-4,7.5l-1.22,1.22.87-.73a48.72,48.72,0,0,1-3.23,4A29.88,29.88,0,0,0,121.12,36a40,40,0,0,0,3.47-2.91l-.45,1.22,1.09-1.81c2.06-1.92,4.16-4,5.35-5.24a58.15,58.15,0,0,1-7.48,9.19,57.7,57.7,0,0,0,7.93-9,45.82,45.82,0,0,1-4.69,7.38l-1.67,1.37,1.42-1c-1,1.24-1.8,2.26-2.35,2.9-3.37,2.52-6.08,4.22-6.08,4.22A34.48,34.48,0,0,0,122,39.65l-.48.85.82-1.09a95.81,95.81,0,0,0,8.69-7,73.2,73.2,0,0,1-6.58,7.7,39.94,39.94,0,0,0,7.12-7.81,40.09,40.09,0,0,1-7.25,9.53l-.39-.62.26.75-.12.12-.17-.26v.44c-1,1-1.92,1.81-2.51,2.31a59,59,0,0,1-5.65,3.11,39.51,39.51,0,0,0,5.5-2.63l-.4,1,.67-1.13c1.34-.77,2.61-1.59,3.78-2.39l-.6.93.81-1.08a70.73,70.73,0,0,0,5.75-4.45,51.17,51.17,0,0,1-11.08,9.66,50.28,50.28,0,0,0,11.37-9.23A47.11,47.11,0,0,1,122,48.69c-3.3,1.38-6.18,2.53-6.18,2.53,2-.39,10.21-3.91,13-5.13a41.77,41.77,0,0,1-10.13,6,40.42,40.42,0,0,0,10.52-5.67,30.45,30.45,0,0,1-11.1,8.62l-1.31.63-1.21.29c2.8.06,8-1.52,10.15-2.24a19.72,19.72,0,0,1-6.65,2.9,18.68,18.68,0,0,0,6.76-2.38,28.39,28.39,0,0,1-11.1,6.14,13.59,13.59,0,0,0,1.48-.24,46.27,46.27,0,0,0,8.14,0,14.74,14.74,0,0,1-5.73,1.48,13.76,13.76,0,0,0,5.51-.83A26.7,26.7,0,0,1,116,63.89L114,64c.24.13,1.4.56,2.79,1L116,65l.64.32-.63.07-1.06.07,1.22.21,1.51-.27L122,66.84a17.13,17.13,0,0,1-6.24,0,16,16,0,0,0,6,.66,13.67,13.67,0,0,1-5.19,1.19l-.17-.45-1.46-.71,1,.7.23.24.07.23a11.9,11.9,0,0,1-4.42-.79,10.1,10.1,0,0,0,2.55,1,30.93,30.93,0,0,0,5.49,7A8.81,8.81,0,0,1,115,73.72a8.72,8.72,0,0,0,4.23,2.68c-4.07.51-6.31-1.15-7.06-1.86-.92-1.56-1.6-2.75-1.6-2.75a38.29,38.29,0,0,0,4.82,8.69,10.54,10.54,0,0,1-3.33-2.25,10.86,10.86,0,0,0,2.83,2.66,9.31,9.31,0,0,1-5.29-2.51,10.37,10.37,0,0,1-2-3.67,9.07,9.07,0,0,0,1.07,3.19c.37,1.64,1.25,4.64,1.62,5.9a13,13,0,0,1-2.49-3,14.36,14.36,0,0,0,2.05,3.46c-3.72-1.07-5.81-5.14-5.81-5.14a10.25,10.25,0,0,0,.73,1.56c-.07,1.19.08,4.38.14,5.62a15.56,15.56,0,0,1-1.71-2.86,17.53,17.53,0,0,0,1.24,3.19c-2.44-1.15-3.82-5.4-3.82-5.4a10.64,10.64,0,0,0,.86,2.7c-.1.69-.27,2.31-.35,3.05a10.45,10.45,0,0,1-1.35-3.19,11.12,11.12,0,0,0,.73,3.14,9.93,9.93,0,0,1-3.18-5.63,8.66,8.66,0,0,0,.39,2.29,18,18,0,0,0-.94,3.06,9.82,9.82,0,0,1-.92-3.24,11,11,0,0,0,.4,3.33,6.59,6.59,0,0,1-2-5.28,6.32,6.32,0,0,0,.11,3.35,3.07,3.07,0,0,1-4.37,0,6.83,6.83,0,0,0,.38-.8,1.24,1.24,0,0,0-.19-1.15S90.66,85.22,87.11,87Zm12.56,1.52a10.81,10.81,0,0,0,1,2.5,10,10,0,0,1-3.27-5.51c.13-.7.29-1.33.4-1.72a9.16,9.16,0,0,0,3,4.15c.08.78.28,2.1.41,2.89A10,10,0,0,1,99.68,88.47Zm3.73,0a11.66,11.66,0,0,0,2.29,3.18,7.92,7.92,0,0,1-4-3.23l0,0a15,15,0,0,1,0-4.35,8,8,0,0,0,2.54,2.92,6,6,0,0,0,.71,1.18c.29.77.87,2.21,1.22,3A11,11,0,0,1,103.4,88.51Zm3.47-.89a23.51,23.51,0,0,0,2.68,3.16,9.91,9.91,0,0,1-5.17-3.62,5.65,5.65,0,0,0,1.39.68,29.77,29.77,0,0,1-.6-6.68A8.88,8.88,0,0,0,111.5,85a12.28,12.28,0,0,1-.78-1.72,7.51,7.51,0,0,0,2,1.36,25.08,25.08,0,0,0,2.61,3.38,20.51,20.51,0,0,1-3.73-1.6A20.31,20.31,0,0,0,115,88.6c-5.21-.23-9.25-4.3-9.25-4.3a13,13,0,0,0,2.4,2.23,27.35,27.35,0,0,0,1.73,3.78A22.35,22.35,0,0,1,106.87,87.62Zm7.81-3.4.31.88a13.82,13.82,0,0,1-4.44-2.26c-.59-1.62-1.12-3.47-1.32-4.24A4.48,4.48,0,0,0,111,80a10.36,10.36,0,0,0,5.26,1.57,43.65,43.65,0,0,0,3.38,3.65,20.64,20.64,0,0,1-4.12-1.61,20.38,20.38,0,0,0,3.81,2.15,15,15,0,0,1-4.09-.57Zm4.55-3.49a32.22,32.22,0,0,0,5.89,2.5,16.16,16.16,0,0,1-5.35-.69l-.43-.77.16.69a25.2,25.2,0,0,1-2.64-1,40.86,40.86,0,0,1-4.07-6,8,8,0,0,0,4.66,1.57,20.56,20.56,0,0,0,1.91.83,28.32,28.32,0,0,0,5.9,4.7A32.65,32.65,0,0,1,119.23,80.73Zm3.65-4.6a22.54,22.54,0,0,0,7,2.46,19.62,19.62,0,0,1-4.25.15l-1.19-.88.69.84A23.31,23.31,0,0,1,118.57,77a9.37,9.37,0,0,0,2.5-.57c-.95-.91-2.4-2.62-3.69-4.19a10.14,10.14,0,0,0,2.84-.06A64,64,0,0,0,130.44,78,23.38,23.38,0,0,1,122.88,76.13Zm4.68-2.81.54.61a19,19,0,0,1-3.9.17c-1.46-.9-2.63-1.69-3.16-2a10.8,10.8,0,0,0,3.16-1.36h0a5.91,5.91,0,0,0,1.34-1l0,0a15.13,15.13,0,0,0,1.7,0,15.12,15.12,0,0,0,6.85,1.76,15.4,15.4,0,0,1-7.88.7,14.56,14.56,0,0,0,7.2.33,20.66,20.66,0,0,1-5.11,1.49Zm.57-7.09L134.87,64l6.49-1.35a31.58,31.58,0,0,1-11,4.09,30.09,30.09,0,0,0,10.82-3.4c-5.51,4.05-10,5.33-12.77,5.7l-.29-.45.07.47a12.56,12.56,0,0,1-2.27.1,2.69,2.69,0,0,0,.51-1.16c-.61,1.42-2.79,2.47-2.79,2.47h0l-.1,0-.36-.65.18.74A11.91,11.91,0,0,1,117,71.77c-1-1.21-1.83-2.28-2.2-2.75,5,1,9.14-2.39,9.14-2.39l-1-.14,8.94-1.86Zm-1.69-2.55.13.9c-.68.44-1.28.8-1.72,1l-3.06.63a30.43,30.43,0,0,1-5.93-2.09l.06,0c3.93-.22,7.62-2.44,9.55-3.82A22.84,22.84,0,0,0,130,57.44c1.77-.41,3.46-.88,5-1.37l.1.59.08-.64a79.37,79.37,0,0,0,11.34-4.48,32.45,32.45,0,0,1-10,5.45,31,31,0,0,0,9.89-4.76,27.84,27.84,0,0,1-14,8l.23-1.56a12.38,12.38,0,0,1-3.38,3.9,6,6,0,0,0,1.23-2.41A13.27,13.27,0,0,1,128,63.58c-.42.3-.83.58-1.22.84Zm4.39-8.41.28.78a17.3,17.3,0,0,1-4.27,3.19l0,0c-2.08.89-7.65.75-9.51.67,5.15-1.52,9.35-5.58,10.84-7.15a34.29,34.29,0,0,0,8.2-6.32,40.89,40.89,0,0,0,4.38-1.71,26.24,26.24,0,0,0,4.49-1.88s-.78.28-1.67.51a99.78,99.78,0,0,0,10.1-6,41.27,41.27,0,0,1-11.12,8.14,41.43,41.43,0,0,0,10.71-7,25.15,25.15,0,0,1-6.51,6.66A24.77,24.77,0,0,0,149,42.65a20.78,20.78,0,0,1-3.86,3.52,21.78,21.78,0,0,1-5.31,2.34l.2-1A25.35,25.35,0,0,1,137.41,51l.93-1.73-.72,1.14s-.6,1-.46.62.43-1.57.43-1.57a10.5,10.5,0,0,1-1.71,3.17A20.43,20.43,0,0,1,133.07,55c-.81-.05-1.12-2.36-1.12-2.36a4.64,4.64,0,0,0,.19,2,6.67,6.67,0,0,1-.78,1.14Zm6.9-12.21.28.6a25.16,25.16,0,0,1-2.21,2.64v-.57l.06-.63-.06,0c3.39-3.82,3.86-6.54,3.86-6.54a20.1,20.1,0,0,1-4.08,6.42l-.6-.33.52.43a44.49,44.49,0,0,1-6.93,6.14,36.94,36.94,0,0,0,7.1-6l-.12,1-.2.57a36,36,0,0,1-7.81,5.86v0c-2.49.95-6.83,2.09-9.53,2.77,8.47-3.35,13.3-11,13.3-11a76,76,0,0,1-8.14,3.79c9.16-7.61,10.16-12.74,10.16-12.74a69.79,69.79,0,0,1-10.1,8C132,35,133.13,29.6,133.13,29.6a58.38,58.38,0,0,1-8.7,7.91l.71-.68c2.8-2.82,5.34-7.57,6.76-10.51,1.05-1,2.06-2,3-3.08l1.82-1.5-1,.72.55-.6L136,22a75.49,75.49,0,0,0,8.5-12.35c-.87,1.88-1.82,3.73-2.85,5.54a37.52,37.52,0,0,1-6.34,8.51,37.47,37.47,0,0,0,6.57-8.38A75.38,75.38,0,0,0,146,7.46a65.54,65.54,0,0,1-5.7,12.05l0-.43.07-.19.63-.82-.23.09-.28.44.43-1.51-.89,2.45-.29-.42.22.64,0,0,0,.23q-.45.74-.88,1.4l-.26-.33.17.46c-1.25,1.92-2.26,3.27-2.75,3.9a1.21,1.21,0,0,0-.55-.65,2.06,2.06,0,0,1,.2,1.19,12.52,12.52,0,0,1-.87,2.65l-.08-.32,0-.2.06-.59-.15.55-.42-1.39.35,1.62.13.49a35.26,35.26,0,0,1-4.59,7.07A20.78,20.78,0,0,0,135,29.72a96.51,96.51,0,0,0,16.86-18.49,85.94,85.94,0,0,1-5.81,8.27l-.11-.12.09.15a61.5,61.5,0,0,1-6.94,7.41,61,61,0,0,0,7.07-7.21l.43.67.08.26-.24.81.51-.76.33-.22v.56c-2.21,3.33-4,5.66-4,5.66a.64.64,0,0,1-.38,0l0-.78-.11.71c-.56-.34-.79-1.46-.79-1.46a3.19,3.19,0,0,0,0,.68l-.67,1.27,0,1.37-.27.23-.36-.52.13.71-1.9,1.6,1-.44a23.88,23.88,0,0,1-2.95,5.81L136,35l.72,1.14a50.85,50.85,0,0,1-9.35,9.93A43.57,43.57,0,0,0,134,40.4c4-3,7.51-5.94,10.44-8.59l-.32.62,1.13-1.3-.68,1.44,1.68-2.44a112.47,112.47,0,0,0,8.1-8.37,74.87,74.87,0,0,1-19.74,18.68,74.8,74.8,0,0,0,20.74-19.18c-1,1.8-1.94,3.45-2.94,5l-1.07.71.82-.33q-.49.74-1,1.43l-.75.57-1.07,1-1.14,1.09.57-.38.62-.56-2.72,2.71L149,30.41l.72-.74.18-.41.21-.16-.06.4.31-.59.08-.06.37-.26a55.29,55.29,0,0,1-7,7.95v-.33l.19-.44-.37-1.26.22,1.34-.32.53v.42a35.59,35.59,0,0,1-2.82,2.35,3.13,3.13,0,0,0-.4-1.23,5.2,5.2,0,0,1-.29,2.28,17.55,17.55,0,0,1-1.17,2.21l-.57-.43.4.7c-.17.26-.34.52-.52.78Zm10.35-24.39-.36,1.16-.26.68-.2-.18H147l0-.58-.13.57-.58-.62a90,90,0,0,0,7.47-10.45,54.7,54.7,0,0,1-4.63,9.07l-.25-.36.15.52c-.43.7-.87,1.38-1.29,2h0l.15-.63.42-.57-.26.3Z" transform="translate(-1.05 -0.9)"/><path class="cls-2" d="M114.91,45.45A3.23,3.23,0,0,1,113.49,47a3.36,3.36,0,0,1-1.65,3.3c1.47-1.55,1.34-2.68,1.21-3.12a.82.82,0,0,0-.48-.49,1,1,0,0,1,.7.1,3.88,3.88,0,0,0,1.48-1.8,1.84,1.84,0,0,0-.31-1.6,1.4,1.4,0,0,1,.45.4,4.68,4.68,0,0,0,1.52-3.93,4.46,4.46,0,0,1-1.34,4.28A1.72,1.72,0,0,1,114.91,45.45Z" transform="translate(-1.05 -0.9)"/><path class="cls-2" d="M113.81,58.06c-.34-1.85-1.2-2.12-1.55-2.2a3.6,3.6,0,0,1-.88.8,7.1,7.1,0,0,0,.73-1.14h0c.25-.46.43-.87.47-1,.4-1,.71-2.64-.67-3.54a1.49,1.49,0,0,1,1.26,1,3,3,0,0,0,.9-3.64,1.69,1.69,0,0,1,.22.27,3.32,3.32,0,0,0,1.54-2.46s.6,1.1-1.37,2.78c.31.69.46,2-1.18,3.6a4.85,4.85,0,0,1-.34,2,3.48,3.48,0,0,1-.36.88v0a3,3,0,0,1,1.64,2.92,5.66,5.66,0,0,1-2.31,4.29S114.23,60.32,113.81,58.06Z" transform="translate(-1.05 -0.9)"/><path class="cls-2" d="M111.7,62.88c1.86,2.8-1.87,4.47-1.87,4.47C112.8,65.12,111.7,62.88,111.7,62.88Z" transform="translate(-1.05 -0.9)"/><path class="cls-2" d="M103.24,73.94a2.6,2.6,0,0,1-.46-.35c3.24,1.22,5.15-2.39,5.15-2.39-1.65,3.52-3.42,3.37-4.4,2.91,0,.41-.34,1.67-2.26,2.77C101.28,76.88,103.3,75.34,103.24,73.94Z" transform="translate(-1.05 -0.9)"/><path class="cls-2" d="M92.05,80.43a1.61,1.61,0,0,1-.24-.54c1.06,1.76,3-.07,3.31-.35a2.59,2.59,0,0,1-.19-.59,2,2,0,0,0,.24.46v0l0,.07a2.8,2.8,0,0,0,2,1,4.93,4.93,0,0,0,3.63-3.05c-.27,2.55-3.09,3.32-3.09,3.32a2.14,2.14,0,0,1-2.41-.8c-1.63,1.25-2.53,1.15-3,.79a2.3,2.3,0,0,1-2,1.32A2.33,2.33,0,0,0,92.05,80.43Z" transform="translate(-1.05 -0.9)"/><path class="cls-3" d="M114.6,39.81l-.07.1Z" transform="translate(-1.05 -0.9)"/><path class="cls-2" d="M111.88,53a2.78,2.78,0,0,0-2.39,0,15.77,15.77,0,0,0,.16,3.11,8.49,8.49,0,0,1-.48-3,7.27,7.27,0,0,0-1.92,1.51,5.29,5.29,0,0,1,1.92-1.84c0-2.81,1-7.28,5.29-12.85-.8,1.08-4.55,6.43-4.95,12.7A2.57,2.57,0,0,1,111.88,53Z" transform="translate(-1.05 -0.9)"/><path class="cls-3" d="M114.53,39.9l-.08.1Z" transform="translate(-1.05 -0.9)"/><path class="cls-2" d="M109.72,79.52a8.9,8.9,0,0,0,6.5,2.33A5.12,5.12,0,0,1,109.72,79.52Z" transform="translate(-1.05 -0.9)"/><path class="cls-2" d="M111.63,85.44s-4.76.58-6.16-3.34C105.47,82.09,106.7,84.75,111.63,85.44Z" transform="translate(-1.05 -0.9)"/><path class="cls-2" d="M101.81,84.83A4.24,4.24,0,0,0,104,87.42S101.84,87.49,101.81,84.83Z" transform="translate(-1.05 -0.9)"/><path class="cls-2" d="M97.84,84.34s.29,1.78,2.7,3.74A3.84,3.84,0,0,1,97.84,84.34Z" transform="translate(-1.05 -0.9)"/><path class="cls-2" d="M97.46,83.52c-1-.74-.5-2.31-.5-2.31A6.73,6.73,0,0,0,97.46,83.52Z" transform="translate(-1.05 -0.9)"/><path class="cls-2" d="M113.69,76.57s2.57,1,3.57.8a11.57,11.57,0,0,0,1.88.77S115.29,78.28,113.69,76.57Z" transform="translate(-1.05 -0.9)"/><polygon class="cls-2" points="117.36 72.23 117.1 71.78 118.97 71.59 121.33 73.2 118.95 72 117.36 72.23"/><path class="cls-2" d="M115.69,69.62a10.46,10.46,0,0,0,8.07-2.52S120.48,71.64,115.69,69.62Z" transform="translate(-1.05 -0.9)"/><path class="cls-2" d="M116.82,64.27s5.78-.15,8.85-3.84a8.93,8.93,0,0,0,4.43-2.75s0,1.19-4.17,3.29C125.93,61,121.28,65.53,116.82,64.27Z" transform="translate(-1.05 -0.9)"/><path class="cls-2" d="M118.36,59.64a19.57,19.57,0,0,0,9.56-6.46,24.86,24.86,0,0,0,8.61-6.54s-2,3.83-8.31,7.06A17,17,0,0,1,118.36,59.64Z" transform="translate(-1.05 -0.9)"/><path class="cls-2" d="M120.21,54.61a26.23,26.23,0,0,0,11.31-10.12S129.51,51.5,120.21,54.61Z" transform="translate(-1.05 -0.9)"/><path class="cls-2" d="M129.62,44.81a34.19,34.19,0,0,0,4.63-4.23A9.26,9.26,0,0,1,129.62,44.81Z" transform="translate(-1.05 -0.9)"/><path class="cls-2" d="M133.57,35.53s-.35,6.21-7.88,10.77C125.69,46.3,131.43,42.13,133.57,35.53Z" transform="translate(-1.05 -0.9)"/><path class="cls-2" d="M126.91,35.2s3.83-4.92,5.06-8.7c1.25-1.1,2.23-2.1,2.23-2.1l-1.92,2.24S130.13,32.21,126.91,35.2Z" transform="translate(-1.05 -0.9)"/><path class="cls-2" d="M135.43,50.09l.32-.19.43-.42.73-1.58-.5,1.34.27-.25.33-.43,0,.18.29-.35,1.49-1.57-.29,1.5.06-1.09-.31.66s-.08-.24,0-.34L137,48.91l-1.65,1.36-1.25.08,1.06-.31Z" transform="translate(-1.05 -0.9)"/><path class="cls-2" d="M125.05,37.82l.16-.22.86-.45-.75.52-.49,1s2.35-2.07,2.42-2.12-3.13,3-3.13,3l-.44.67-.36.3.82-1.21.86-1.18-2.09,1.18Z" transform="translate(-1.05 -0.9)"/><path class="cls-2" d="M125.62,70.27a7.78,7.78,0,0,1-3.84,1.9,8.92,8.92,0,0,0,3.8-2.3,5.82,5.82,0,0,0,1.69,0A3,3,0,0,1,125.62,70.27Z" transform="translate(-1.05 -0.9)"/><path class="cls-3" d="M114.65,75.44l.39.19A3.23,3.23,0,0,1,114.65,75.44Z" transform="translate(-1.05 -0.9)"/><path class="cls-2" d="M114.65,75.44c-.65-.32-1.92-.94-2.14-1.11A20.6,20.6,0,0,1,111,71.71,10.59,10.59,0,0,0,114.65,75.44Z" transform="translate(-1.05 -0.9)"/><path class="cls-2" d="M109.06,79.89a11.31,11.31,0,0,1-1.64-5,10.22,10.22,0,0,0,1.13,3.31Z" transform="translate(-1.05 -0.9)"/><path class="cls-2" d="M104.6,80.77c.05,1.14,0,2.56,0,2.56a17.6,17.6,0,0,0-.73-3.89S104.34,80.68,104.6,80.77Z" transform="translate(-1.05 -0.9)"/><path class="cls-2" d="M101.35,83.9s-1.1.06-.85-2.56A7.28,7.28,0,0,0,101.35,83.9Z" transform="translate(-1.05 -0.9)"/><polyline class="cls-3" points="113.04 68.25 113 68.25 113.04 68.25"/><polyline class="cls-3" points="113.05 68.24 113.04 68.25 113.05 68.24"/><path class="cls-2" d="M111.64,68.19a9.46,9.46,0,0,0,2.4,1A2.93,2.93,0,0,1,111.64,68.19Z" transform="translate(-1.05 -0.9)"/><rect class="cls-4" x="47.73" y="48.03" width="62.16" height="39.07" rx="5" ry="5"/><rect class="cls-5" x="70.01" y="90.12" width="17.76" height="2.66" rx="1.33" ry="1.33"/><rect class="cls-5" x="76.23" y="83.46" width="5.33" height="7.1"/><path class="cls-1" d="M67.81,77.67l-3.64,3.64-3.61-3.64,1.62-1.62V72.73h-3.5v3.32l1.62,1.62-3.64,3.64-3.61-3.64,1.62-1.62V61.39l6-5.94L66.19,61V76.05Zm-5.63-9.12v-5.2l-3.5-3.5v8.7Z" transform="translate(-1.05 -0.9)"/><path class="cls-1" d="M89.72,59.09,88.1,60.71V75.8l-5.51,5.51-3.72-3.72-3.78,3.72-6-5.94V60.71l-1.62-1.62,3.61-3.64,3.64,3.64-1.62,1.62V76.9l3.5-3.5V60.71L75,59.09l3.61-3.64,3.64,3.64-1.62,1.62V76.9l3.5-3.5V60.71l-1.62-1.62,3.64-3.64Z" transform="translate(-1.05 -0.9)"/><path class="cls-1" d="M105.26,59.09l-1.62,1.62-3.81,7.67,3.69,7.67,1.62,1.62-3.64,3.64L97.9,77.67l1.62-1.62-1.73-3.58L96,76.05l1.62,1.62L94,81.31,90.4,77.67,92,76.05l3.81-7.67-3.69-7.67-1.62-1.62,3.64-3.64,3.61,3.64-1.62,1.62,1.7,3.58,1.79-3.58L98,59.09l3.64-3.64Z" transform="translate(-1.05 -0.9)"/></svg>