<?xml version="1.0" encoding="UTF-8" standalone="no"?>
<svg width="50px" height="38px" viewBox="0 0 50 43" version="1.1" xmlns="http://www.w3.org/2000/svg" xmlns:xlink="http://www.w3.org/1999/xlink" xmlns:sketch="http://www.bohemiancoding.com/sketch/ns">
    <!-- Generator: Sketch 3.2.1 (9971) - http://www.bohemiancoding.com/sketch -->
    <title>Teams</title>
    <desc>Created with Sketch.</desc>
    <defs></defs>
    <g id="Random" stroke="none" stroke-width="1" fill="none" fill-rule="evenodd" sketch:type="MSPage">
        <g id="Teams" sketch:type="MSArtboardGroup" transform="translate(0.210000, 0.000000)" fill="#000000">
            <g sketch:type="MSLayerGroup">
                <path d="M35.694,32.06 C33.974,31.34 30.353,30.07 27.337,29.1 C26.957,28.98 26.585,28.86 26.226,28.75 C26.178,28.73 26.132,28.72 26.085,28.7 C25.737,28.6 25.399,28.49 25.086,28.4 C24.812,28.31 24.769,28.3 24.769,27.16 C24.769,26.93 24.794,26.69 24.836,26.46 C24.863,26.31 24.907,26.16 24.947,26.02 C24.969,25.93 24.984,25.85 25.009,25.77 C25.048,25.65 25.096,25.53 25.14,25.41 C25.261,25.09 25.394,24.77 25.533,24.48 C25.634,24.26 25.742,24.01 25.846,23.73 C25.88,23.64 25.911,23.53 25.944,23.44 C26.015,23.24 26.087,23.04 26.154,22.82 C26.187,22.71 26.212,22.59 26.244,22.48 C26.303,22.27 26.366,22.05 26.416,21.83 C26.466,21.62 26.5,21.4 26.536,21.18 C26.555,21.06 26.584,20.95 26.599,20.83 L26.6,20.83 C26.782,20.62 26.989,20.33 27.199,19.94 C27.224,19.89 27.251,19.83 27.277,19.78 C27.321,19.7 27.365,19.61 27.408,19.52 C27.472,19.38 27.537,19.22 27.599,19.06 C27.605,19.04 27.61,19.03 27.615,19.02 C27.678,18.86 27.74,18.68 27.8,18.49 C27.805,18.47 27.81,18.46 27.815,18.44 C27.876,18.25 27.933,18.05 27.989,17.83 C27.994,17.81 27.999,17.8 28.003,17.78 C28.063,17.55 28.121,17.3 28.173,17.03 C28.218,16.81 28.254,16.6 28.285,16.41 C28.291,16.36 28.295,16.33 28.3,16.29 C28.322,16.14 28.341,16 28.353,15.87 C28.358,15.82 28.361,15.79 28.364,15.74 C28.373,15.63 28.38,15.52 28.384,15.42 C28.386,15.37 28.386,15.31 28.386,15.26 C28.386,15.19 28.385,15.12 28.382,15.05 C28.379,14.98 28.375,14.91 28.368,14.84 C28.365,14.8 28.361,14.77 28.357,14.74 C28.346,14.65 28.334,14.57 28.316,14.48 C28.314,14.47 28.312,14.46 28.309,14.45 C28.291,14.36 28.269,14.28 28.246,14.2 C28.242,14.18 28.238,14.17 28.234,14.15 C28.212,14.09 28.188,14.02 28.164,13.95 C28.15,13.91 28.138,13.88 28.125,13.84 C28.123,13.84 28.122,13.83 28.121,13.83 L28.106,13.79 C28.086,13.74 28.068,13.69 28.052,13.64 L28.05,13.63 C28.045,13.6 28.043,13.55 28.039,13.5 C28.035,13.46 28.03,13.44 28.027,13.39 C28,12.83 28.066,11.71 28.201,10.57 C28.203,10.56 28.203,10.55 28.205,10.54 C28.226,10.36 28.25,10.19 28.274,10.01 C28.283,9.95 28.29,9.89 28.298,9.83 C28.328,9.63 28.359,9.44 28.392,9.25 C28.398,9.22 28.402,9.19 28.408,9.16 C28.435,9 28.455,8.83 28.465,8.64 C28.509,7.82 28.369,6.68 27.929,5.5 C27.648,4.74 27.251,3.96 26.681,3.23 C26.676,3.22 26.67,3.22 26.665,3.21 C26.507,3.01 26.338,2.82 26.166,2.64 C26.069,2.54 25.962,2.44 25.854,2.34 C25.773,2.26 25.69,2.19 25.606,2.12 C25.455,1.99 25.295,1.86 25.122,1.73 C25.076,1.7 25.029,1.67 24.983,1.63 C24.779,1.49 24.563,1.35 24.331,1.22 C24.301,1.21 24.272,1.19 24.242,1.17 C24,1.04 23.739,0.91 23.462,0.79 C23.423,0.78 23.384,0.76 23.345,0.75 C23.08,0.64 22.796,0.54 22.502,0.45 C22.437,0.43 22.375,0.41 22.309,0.39 C22.022,0.31 21.716,0.25 21.4,0.19 C21.323,0.17 21.25,0.15 21.17,0.14 C20.777,0.08 20.364,0.02 19.923,0 L17.902,0 C17.662,0.01 17.447,0.05 17.221,0.08 C17.009,0.1 16.787,0.12 16.587,0.16 C16.382,0.19 16.199,0.24 16.006,0.29 C15.822,0.33 15.627,0.37 15.453,0.42 C15.264,0.47 15.097,0.54 14.921,0.61 C14.765,0.66 14.599,0.71 14.452,0.78 C14.279,0.85 14.126,0.93 13.964,1.01 C13.837,1.08 13.699,1.13 13.579,1.2 C13.42,1.29 13.279,1.39 13.133,1.49 C13.032,1.55 12.92,1.61 12.825,1.68 C12.668,1.79 12.531,1.91 12.391,2.03 C12.324,2.08 12.247,2.14 12.183,2.19 C12.023,2.33 11.882,2.48 11.744,2.62 C11.713,2.65 11.675,2.68 11.646,2.72 C11.483,2.89 11.336,3.06 11.205,3.23 C9.535,5.37 9.257,7.94 9.478,9.16 C9.487,9.21 9.494,9.26 9.503,9.3 C9.531,9.47 9.558,9.63 9.584,9.8 C9.679,10.44 9.75,11.11 9.796,11.71 C9.799,11.74 9.802,11.78 9.805,11.81 C9.816,11.96 9.825,12.1 9.833,12.24 C9.836,12.3 9.841,12.37 9.844,12.43 C9.85,12.56 9.853,12.67 9.857,12.78 C9.859,12.84 9.861,12.89 9.862,12.95 C9.865,13.1 9.864,13.23 9.86,13.34 C9.86,13.34 9.86,13.34 9.86,13.35 C9.856,13.46 9.849,13.56 9.837,13.62 C9.836,13.62 9.836,13.63 9.836,13.63 C9.816,13.71 9.791,13.77 9.763,13.84 C9.619,14.21 9.523,14.59 9.503,15.08 L9.503,15.12 C9.5,15.22 9.501,15.33 9.504,15.45 C9.506,15.5 9.512,15.57 9.516,15.63 C9.521,15.72 9.527,15.8 9.535,15.88 C9.546,15.99 9.562,16.11 9.579,16.22 C9.587,16.29 9.593,16.34 9.603,16.41 C9.633,16.6 9.67,16.81 9.714,17.03 C10.086,18.89 10.642,19.98 11.099,20.59 C11.165,20.68 11.228,20.76 11.289,20.83 C11.363,21.39 11.5,21.98 11.658,22.54 C11.684,22.63 11.706,22.73 11.734,22.82 C11.787,23 11.846,23.16 11.903,23.32 C11.95,23.46 11.994,23.6 12.041,23.73 C12.146,24.01 12.253,24.26 12.355,24.48 C12.429,24.64 12.495,24.81 12.55,25 C12.56,25.03 12.565,25.08 12.574,25.11 C12.617,25.27 12.657,25.44 12.687,25.62 C12.701,25.71 12.707,25.81 12.717,25.9 C12.736,26.05 12.757,26.19 12.768,26.35 C12.786,26.62 12.795,26.9 12.795,27.2 C12.795,27.96 12.774,28.22 12.686,28.33 C12.683,28.34 12.681,28.35 12.678,28.35 C12.673,28.36 12.649,28.37 12.611,28.39 C12.579,28.41 12.542,28.42 12.496,28.44 C12.289,28.5 12.075,28.56 11.854,28.63 C10.578,29.02 9.084,29.52 7.623,30.03 C7.573,30.05 7.522,30.07 7.472,30.08 C7.31,30.14 7.15,30.2 6.99,30.26 C6.9,30.29 6.81,30.32 6.722,30.35 C6.617,30.39 6.515,30.42 6.411,30.46 C6.267,30.51 6.123,30.57 5.982,30.62 C5.94,30.63 5.9,30.65 5.858,30.66 C5.66,30.73 5.463,30.8 5.272,30.88 C5.244,30.89 5.216,30.9 5.188,30.91 C4.295,31.24 3.48,31.55 2.822,31.81 C2.484,31.95 2.186,32.07 1.939,32.18 C1.759,32.26 1.599,32.35 1.449,32.44 C1.39,32.47 1.336,32.51 1.281,32.55 C1.198,32.61 1.117,32.67 1.044,32.73 C0.981,32.78 0.923,32.83 0.867,32.89 C0.814,32.94 0.761,33 0.713,33.05 C0.656,33.12 0.603,33.18 0.553,33.25 C0.517,33.3 0.482,33.35 0.451,33.41 C0.403,33.48 0.359,33.56 0.319,33.65 C0.295,33.7 0.271,33.75 0.251,33.8 C0.214,33.88 0.182,33.98 0.154,34.07 C0.138,34.12 0.123,34.17 0.111,34.22 C0.086,34.32 0.066,34.42 0.05,34.53 C0.043,34.57 0.033,34.62 0.028,34.67 C0.01,34.82 0,34.97 0,35.13 L0,40.05 L0,40.13 C0,40.84 0.42,42.05 1.939,42.05 L2,42.05 L16.708,42.05 L18.8,42.05 L19.166,42.05 L21.292,42.05 L35.989,42.05 L36.06,42.05 C37.477,42.05 37.933,41 37.988,40.29 L37.989,40.06 L38,35.14 C38,34.1 37.287,32.74 35.694,32.06" id="Fill-83" sketch:type="MSShapeGroup"></path>
            </g>
        </g>
    </g>
</svg>

