<?xml version="1.0" encoding="UTF-8" standalone="no"?>
<svg width="54px" height="43px" viewBox="0 0 54 43" version="1.1" xmlns="http://www.w3.org/2000/svg" xmlns:xlink="http://www.w3.org/1999/xlink" xmlns:sketch="http://www.bohemiancoding.com/sketch/ns">
    <!-- Generator: Sketch 3.2.1 (9971) - http://www.bohemiancoding.com/sketch -->
    <title>Users</title>
    <desc>Created with Sketch.</desc>
    <defs></defs>
    <g id="Random" stroke="none" stroke-width="1" fill="none" fill-rule="evenodd" sketch:type="MSPage">
        <g id="Users" sketch:type="MSArtboardGroup" transform="translate(0.000000, 0.940000)" fill="#000000">
            <path d="M35.696,32.1 C33.502,31.18 28.291,29.38 25.086,28.44 C24.813,28.35 24.77,28.34 24.77,27.2 C24.77,26.26 25.157,25.31 25.534,24.51 C25.942,23.64 26.426,22.18 26.6,20.87 C27.086,20.3 27.748,19.19 28.174,17.07 C28.547,15.2 28.373,14.52 28.125,13.88 C28.1,13.81 28.073,13.75 28.053,13.68 C27.959,13.24 28.088,10.96 28.409,9.19 C28.629,7.98 28.352,5.4 26.682,3.27 C25.627,1.92 23.61,0.26 19.924,0.03 L17.903,0.04 C14.28,0.26 12.26,1.92 11.205,3.27 C9.536,5.4 9.258,7.98 9.479,9.19 C9.801,10.96 9.928,13.24 9.836,13.67 C9.817,13.75 9.789,13.81 9.762,13.88 C9.516,14.52 9.34,15.2 9.715,17.07 C10.139,19.19 10.801,20.3 11.289,20.87 C11.461,22.18 11.946,23.64 12.356,24.51 C12.655,25.15 12.795,26.02 12.795,27.24 C12.795,28.38 12.752,28.39 12.496,28.47 C9.182,29.45 3.907,31.36 1.94,32.22 C0.381,32.89 0,34.09 0,35.17 L0,40.17 C0,40.88 0.42,42.09 1.94,42.09 L16.707,42.09 L18.801,42.09 L19.166,42.09 L21.291,42.09 L36.061,42.09 C37.578,42.09 38,40.88 38,40.17 L38,35.17 C38,34.09 37.252,32.76 35.696,32.1" id="Users-silhouette" sketch:type="MSShapeGroup"></path>
            <path d="M49.979,20.03 L44,20.03 L44,26.01 L42,26.01 L42,20.03 L36.021,20.03 L36.021,18.03 L42,18.03 L42,12.05 L44,12.05 L44,18.03 L49.979,18.03 L49.979,20.03 L49.979,20.03 Z M43,8.03 C36.924,8.03 32,12.95 32,19.03 C32,25.11 36.924,30.03 43,30.03 C49.075,30.03 54,25.11 54,19.03 C54,12.95 49.075,8.03 43,8.03 L43,8.03 Z" id="Users-plus" sketch:type="MSShapeGroup"></path>
        </g>
    </g>
</svg>
