<?xml version="1.0" encoding="utf-8"?>
<!-- Generator: Adobe Illustrator 19.1.0, SVG Export Plug-In . SVG Version: 6.00 Build 0)  -->
<svg version="1.1" id="Layer_1" xmlns="http://www.w3.org/2000/svg" xmlns:xlink="http://www.w3.org/1999/xlink" x="0px" y="0px"
	 viewBox="0 0 200 200" style="enable-background:new 0 0 200 200;" xml:space="preserve">
<g>
	<path d="M185.2,123l-7.3,9.2c-1.2,1.5-3.3,2.4-5.4,2.4c-2.1,0-4.1-1-5.3-2.6l-7.3-10.1H155l-9.7,40.9c-0.5,2.4-3.1,4.2-6.1,4.2
		h-0.1c-2.9,0-5.6-1.8-6.1-4.3l-21.5-98.2l-9.9,56.4c-0.5,2.6-3.1,4.5-6.3,4.5H77.7v28.4c0,2.6-2.6,4.9-5.8,5.2
		c-3.2,0.2-6.1-1.6-6.7-4.3L52,93.8l-9.3,27.8c-0.7,2.2-3.2,3.8-6.1,3.8H3.4c11.2,42.9,50.2,74.6,96.7,74.6
		c47.3,0,86.9-32.8,97.3-77H185.2z"/>
	<path d="M31.8,115l15.4-45.9c0.8-2.4,3.1-4.2,6.3-3.9c2.9,0.2,5.4,1.9,6,4.3l9.9,45.7c0.6-0.2,1.3-0.2,1.9-0.2h18.8l14.7-83.5
		c0.4-2.6,3-4.4,6.1-4.5c3-0.2,5.8,1.8,6.3,4.3l22.3,102.3l4.2-17.9c0.5-2.4,3.1-4.2,6.2-4.2h13.6c2.2,0,4.3,1,5.4,2.5l4,5.5
		l3.5-4.6c1.2-1.4,3.2-2.4,5.3-2.4h17.5c0.5-4.1,0.8-8.3,0.8-12.6c0-55.2-44.8-100-100-100S0.1,44.8,0.1,100c0,5.1,0.4,10.1,1.1,15
		H31.8z"/>
</g>
</svg>
