<?xml version="1.0" encoding="utf-8"?>
<!-- Generator: Adobe Illustrator 19.1.0, SVG Export Plug-In . SVG Version: 6.00 Build 0)  -->
<svg version="1.1" id="Layer_1" xmlns="http://www.w3.org/2000/svg" xmlns:xlink="http://www.w3.org/1999/xlink" x="0px" y="0px"
	 viewBox="0 0 200 200" style="enable-background:new 0 0 200 200;" xml:space="preserve">
<style type="text/css">
	.st0{fill:#CCCCCC;}
</style>
<path class="st0" d="M200,100c0,55.2-44.8,100-100,100S0,155.2,0,100S44.8,0,100,0S200,44.8,200,100z M41,69.7
	c7.7,5.9,15.3,11.8,22.9,17.7C66,81.3,69.5,75.6,74,71c5.7-5.8,13-9.9,20.8-11.6c6.8-1.5,13.9-1.2,20.5,0.8c5.6,1.7,10.8,4.8,15,8.8
	c4.3-4.3,8.6-8.5,12.8-12.8c2.2-2.3,4.6-4.5,6.8-6.9c-6.5-6-14.1-10.8-22.5-13.9c-15-5.5-31.9-5.6-47-0.4
	C63.6,40.9,49.1,53.6,41,69.7z M41.1,132.2c7.6-5.9,15.2-11.8,22.8-17.7c-3-8.7-3-18.4,0-27.2c-7.7-5.9-15.3-11.8-22.9-17.7
	c-2.8,5.6-4.8,11.5-6.1,17.6C31.9,102.3,34.1,118.5,41.1,132.2z M103.3,115.1c12.7,0,25.4,0,38,0c-1.5,8.7-6.6,16.6-14,21.6
	c7.4,5.7,14.8,11.5,22.2,17.2c8.4-7.8,14.5-18,17.7-29c3.5-12,3.9-24.8,1.8-37.1c-21.9,0-43.8,0-65.6,0
	C103.4,97,103.4,106,103.3,115.1z M59.9,155.5c7.5,6,16.1,10.4,25.3,12.8c11.6,3.1,24,3,35.7,0.4c10.6-2.4,20.6-7.5,28.6-14.9
	c-7.4-5.7-14.8-11.5-22.2-17.2c-4.6,3.1-9.9,5.1-15.4,6.1c-5.5,0.9-11.2,1.1-16.6,0c-5.5-1.1-10.9-3.4-15.5-6.7
	c-7.4-5.2-13-12.8-16-21.4c-7.6,5.9-15.2,11.8-22.8,17.7C45.6,141.3,52.1,149.3,59.9,155.5z"/>
</svg>
