<?xml version="1.0" encoding="utf-8"?>
<!-- Generator: Adobe Illustrator 19.1.0, SVG Export Plug-In . SVG Version: 6.00 Build 0)  -->
<svg version="1.1" id="Layer_1" xmlns="http://www.w3.org/2000/svg" xmlns:xlink="http://www.w3.org/1999/xlink" x="0px" y="0px"
	 viewBox="-49 51 200 200" style="enable-background:new -49 51 200 200;" xml:space="preserve">
<style type="text/css">
	.st0{clip-path:url(#SVGID_2_);}
</style>
<g>
	<g>
		<defs>
			<rect id="SVGID_1_" x="-48" y="52" width="198" height="198"/>
		</defs>
		<clipPath id="SVGID_2_">
			<use xlink:href="#SVGID_1_"  style="overflow:visible;"/>
		</clipPath>
		<path class="st0" d="M150,55.6c0-1-0.4-1.9-1.1-2.6c-0.7-0.7-1.6-1.1-2.6-1.1c-1.9,0-47.4,1.1-76.7,30.4l-37.1,37.1
			c-8.6-3-38-8.7-79.4,32.6c-1.3,1.3-1.4,3.2-0.4,4.7c0.1,0.2,0.2,0.3,0.4,0.5c1.1,1.1,2.8,1.4,4.2,0.7c0.3-0.1,26.7-12.9,40.7-3.9
			l-9.2,9.2c-0.2,0.2-0.4,0.5-0.6,0.7c-0.4,0.7-9.3,16.6,12,37.9c21.2,21.2,37.2,12.4,37.9,12c0.3-0.2,0.5-0.4,0.7-0.6L48,204
			c9,14-3.8,40.4-3.9,40.7c-0.7,1.4-0.4,3.1,0.7,4.2c0,0,0,0,0.1,0.1c1.4,1.4,3.7,1.4,5.1-0.1c0.1-0.1,0.1-0.1,0.2-0.2
			c41.2-41.3,35.5-70.6,32.4-79.2l37.1-37.1C149,103.1,150,57.6,150,55.6L150,55.6z M102.9,128.1c-8,8-21,8-29,0c-8-8-8-21,0-29
			c8-8,21-8,29,0C110.9,107.1,110.9,120.1,102.9,128.1L102.9,128.1z M102.9,128.1"/>
	</g>
	<path d="M-0.2,223.7c-7.2,1.3-14.6,1.8-21.9,1.6c-0.6,0-1.3-0.8-1.3-1.3c0-1.1,0-2.7,0.1-3.8c0-1.6,0.1-3.2,0.2-4.8
		c0.2-3.7,0.5-7.3,1-10.9c0.9-6.3,2.4-12.5,4.7-18.5c0.3-0.8,0.7-1.6,1-2.4c-6.6,2.8-11.8,8.5-15.4,14.6c-3.5,5.9-5.8,12.5-7.1,19.3
		c-0.8,4-1.1,8-1.2,12.1c0,2.2-0.2,5,0.6,7.1c1.1,3.1,4,5.1,7.2,5.3c2.9,0.2,5.8,0.2,8.7,0c13.2-0.9,27.2-5.4,36.5-15.2
		c2.3-2.5,4.3-5.2,5.6-8.4c-3.3,1.2-6.5,2.6-9.9,3.5C5.7,222.6,2.8,223.2-0.2,223.7L-0.2,223.7z M-0.2,223.7"/>
</g>
</svg>
