<?xml version="1.0" encoding="utf-8"?>
<!-- Generator: Adobe Illustrator 19.1.0, SVG Export Plug-In . SVG Version: 6.00 Build 0)  -->
<svg version="1.1" id="Layer_1" xmlns="http://www.w3.org/2000/svg" xmlns:xlink="http://www.w3.org/1999/xlink" x="0px" y="0px"
	 viewBox="0 0 200 200" style="enable-background:new 0 0 200 200;" xml:space="preserve">
<style type="text/css">
	.st0{fill:#CCCCCC;}
</style>
<path class="st0" d="M200,100c0,55.2-44.8,100-100,100S0,155.2,0,100S44.8,0,100,0S200,44.8,200,100z M139.3,108.4
	c-4.9-6.4-14.1-12.8-27.4-19.2c-10.1-4.8-16.5-8.2-19.2-10c-2.7-1.9-4.7-3.8-5.9-5.8c-1.2-2-1.9-4.3-1.9-7c0-4.3,1.5-7.8,4.6-10.4
	c3.1-2.7,7.5-4,13.2-4c4.8,0,9.7,0.6,14.7,1.9c5,1.2,11.3,3.4,18.9,6.5l9.8-23.5c-7.4-3.2-14.4-5.7-21.1-7.4s-13.8-2.6-21.2-2.6
	c-15.1,0-26.9,3.6-35.5,10.8c-8.6,7.2-12.8,17.2-12.8,29.8c0,6.7,1.3,12.6,3.9,17.6c2.6,5,6.1,9.4,10.4,13.2
	c4.4,3.8,10.9,7.7,19.6,11.8c9.3,4.4,15.5,7.7,18.5,9.7c3,2,5.3,4.1,6.9,6.3c1.6,2.2,2.3,4.7,2.3,7.5c0,5-1.8,8.8-5.3,11.3
	c-3.5,2.5-8.6,3.8-15.3,3.8c-5.5,0-11.6-0.9-18.3-2.6c-6.7-1.8-14.8-4.8-24.5-9.1V165c11.7,5.7,25.2,8.6,40.4,8.6
	c16.5,0,29.4-3.7,38.7-11.1s13.9-17.6,13.9-30.5C146.7,122.7,144.2,114.9,139.3,108.4z"/>
</svg>
