<?xml version="1.0" encoding="utf-8"?>
<!-- Generator: Adobe Illustrator 19.1.0, SVG Export Plug-In . SVG Version: 6.00 Build 0)  -->
<svg version="1.1" id="Layer_1" xmlns="http://www.w3.org/2000/svg" xmlns:xlink="http://www.w3.org/1999/xlink" x="0px" y="0px"
	 viewBox="-49 51 200 200" style="enable-background:new -49 51 200 200;" xml:space="preserve">
<path d="M51,52c-54.7,0-99,44.3-99,99s44.3,99,99,99s99-44.3,99-99S105.7,52,51,52z M116.3,203.6c-9.9-19.3-24.2-23.3-24.2-23.3
	h-8.4c-9.2,0-16.7-7.5-16.7-16.7v-5.4c3.7-4.4,6.4-9.6,8-15.1c0.2-0.9,1.1-1.4,1.7-2c3.2-3.2,3.8-8.6,1.4-12.5
	c-0.3-0.6-0.9-1.1-0.9-1.8c0-4.9,0-9.8,0-14.7c-0.1-5.9-1.8-12.1-6-16.5c-3.4-3.5-8-5.7-12.7-6.6c-6-1.1-12.3-1.1-18.2,0.4
	c-5.2,1.3-10,4.3-13,8.8c-2.7,3.9-3.8,8.6-4,13.3c-0.1,5,0,10,0,15c0.1,1-0.7,1.7-1.1,2.5c-2.3,4.1-1.3,9.7,2.4,12.7
	c0.9,0.6,1.1,1.8,1.4,2.8c1.6,4.9,4.2,9.5,7.5,13.5v5.6c0,9.2-7.5,16.7-16.7,16.7H8.3c0,0-13.7,3.8-23.6,22.1
	c-11-14.2-17.6-32-17.6-51.4c0-46.3,37.6-83.9,83.9-83.9s83.9,37.6,83.9,83.9C134.9,170.9,127.9,189.2,116.3,203.6z"/>
</svg>
