<svg xmlns="http://www.w3.org/2000/svg" xmlns:xlink="http://www.w3.org/1999/xlink" width="1360" height="928"><g transform="translate(0 0)"><path d="M140 45c0-2.76 2.24-5 5-5h230c2.76 0 5 2.24 5 5v50c0 2.76-2.24 5-5 5H145c-2.76 0-5-2.24-5-5z" fill="none"/><use xlink:href="#a" transform="matrix(1,0,0,1,145,45) translate(60.7716049382716 29.444444444444443)"/><path d="M792 30c0-2.76 2.24-5 5-5h230c2.76 0 5 2.24 5 5v80c0 2.76-2.24 5-5 5H797c-2.76 0-5-2.24-5-5z" fill="none"/><use xlink:href="#b" transform="matrix(1,0,0,1,796.9999999999999,30) translate(14.475308641975303 31.111111111111114)"/><use xlink:href="#c" transform="matrix(1,0,0,1,796.9999999999999,30) translate(106.94444444444444 31.111111111111114)"/><use xlink:href="#d" transform="matrix(1,0,0,1,796.9999999999999,30) translate(50.925925925925924 57.77777777777778)"/><use xlink:href="#e" transform="matrix(1,0,0,1,796.9999999999999,30) translate(118.7037037037037 57.77777777777778)"/><path d="M140 205c0-2.76 2.24-5 5-5h190c2.76 0 5 2.24 5 5v50c0 2.76-2.24 5-5 5H145c-2.76 0-5-2.24-5-5z" stroke="#000" stroke-width="2" fill="#fff"/><use xlink:href="#f" transform="matrix(1,0,0,1,145,200.00000000000003) translate(41.574999999999996 33.6)"/><use xlink:href="#g" transform="matrix(1,0,0,1,145,200.00000000000003) translate(46.574999999999996 33.6)"/><path d="M20 305c0-2.76 2.24-5 5-5h190c2.76 0 5 2.24 5 5v50c0 2.76-2.24 5-5 5H25c-2.76 0-5-2.24-5-5z" stroke="#000" stroke-width="2" fill="#fff"/><use xlink:href="#h" transform="matrix(1,0,0,1,25,300) translate(67.05 33.6)"/><path d="M240 260v15c0 2.76-2.24 5-5 5H125c-2.76 0-5 2.24-5 5v15" stroke="#000" stroke-width="2" fill="none"/><path d="M20 405c0-2.76 2.24-5 5-5h190c2.76 0 5 2.24 5 5v50c0 2.76-2.24 5-5 5H25c-2.76 0-5-2.24-5-5z" stroke="#000" stroke-width="2" fill="#fff"/><use xlink:href="#i" transform="matrix(1,0,0,1,25,400) translate(41.574999999999996 33.6)"/><use xlink:href="#j" transform="matrix(1,0,0,1,25,400) translate(75.57499999999999 33.6)"/><path d="M120 360v40" stroke="#000" stroke-width="2" fill="none"/><path d="M260 305c0-2.76 2.24-5 5-5h190c2.76 0 5 2.24 5 5v50c0 2.76-2.24 5-5 5H265c-2.76 0-5-2.24-5-5z" stroke="#000" stroke-width="2" fill="#fff"/><use xlink:href="#k" transform="matrix(1,0,0,1,265,300) translate(58.025 33.6)"/><path d="M240 260v15c0 2.76 2.24 5 5 5h110c2.76 0 5 2.24 5 5v15" stroke="#000" stroke-width="2" fill="none"/><path d="M260 405c0-2.76 2.24-5 5-5h190c2.76 0 5 2.24 5 5v50c0 2.76-2.24 5-5 5H265c-2.76 0-5-2.24-5-5z" stroke="#000" stroke-width="2" fill="#fff"/><use xlink:href="#l" transform="matrix(1,0,0,1,265,400) translate(70.025 33.6)"/><path d="M360 360v40" stroke="#000" stroke-width="2" fill="none"/><path d="M260 505c0-2.76 2.24-5 5-5h190c2.76 0 5 2.24 5 5v50c0 2.76-2.24 5-5 5H265c-2.76 0-5-2.24-5-5z" stroke="#000" stroke-width="2" fill="#fff"/><use xlink:href="#m" transform="matrix(1,0,0,1,265,500) translate(76.525 33.6)"/><path d="M360 460v40" stroke="#000" stroke-width="2" fill="none"/><path d="M700 265c0-2.76 2.24-5 5-5h150c2.76 0 5 2.24 5 5v50c0 2.76-2.24 5-5 5H705c-2.76 0-5-2.24-5-5z" stroke="#000" stroke-width="2" fill="#fff"/><use xlink:href="#n" transform="matrix(1,0,0,1,705,265) translate(11.124999999999993 28.6)"/><use xlink:href="#o" transform="matrix(1,0,0,1,705,265) translate(46.074999999999996 28.6)"/><use xlink:href="#p" transform="matrix(1,0,0,1,705,265) translate(101.975 28.6)"/><path d="M560 385c0-2.76 2.24-5 5-5h150c2.76 0 5 2.24 5 5v50c0 2.76-2.24 5-5 5H565c-2.76 0-5-2.24-5-5z" stroke="#000" stroke-width="2" fill="#fff"/><use xlink:href="#q" transform="matrix(1,0,0,1,565,385) translate(19.099999999999994 17.799999999999997)"/><use xlink:href="#r" transform="matrix(1,0,0,1,565,385) translate(80 17.799999999999997)"/><use xlink:href="#p" transform="matrix(1,0,0,1,565,385) translate(56.55 39.4)"/><path d="M560 505c0-2.76 2.24-5 5-5h150c2.76 0 5 2.24 5 5v50c0 2.76-2.24 5-5 5H565c-2.76 0-5-2.24-5-5z" stroke="#000" stroke-width="2" fill="#fff"/><use xlink:href="#i" transform="matrix(1,0,0,1,565,505) translate(21.574999999999996 17.799999999999997)"/><use xlink:href="#s" transform="matrix(1,0,0,1,565,505) translate(55.574999999999996 17.799999999999997)"/><use xlink:href="#o" transform="matrix(1,0,0,1,565,505) translate(28.599999999999994 39.4)"/><use xlink:href="#p" transform="matrix(1,0,0,1,565,505) translate(84.5 39.4)"/><path d="M968 385c0-2.76 2.24-5 5-5h150c2.76 0 5 2.24 5 5v50c0 2.76-2.24 5-5 5H973c-2.76 0-5-2.24-5-5z" stroke="#000" stroke-width="2" fill="#fff"/><use xlink:href="#t" transform="matrix(1,0,0,1,973,385) translate(10.074999999999989 28.6)"/><use xlink:href="#u" transform="matrix(1,0,0,1,973,385) translate(89.02499999999999 28.6)"/><path d="M968 505c0-2.76 2.24-5 5-5h150c2.76 0 5 2.24 5 5v50c0 2.76-2.24 5-5 5H973c-2.76 0-5-2.24-5-5z" stroke="#000" stroke-width="2" fill="#fff"/><use xlink:href="#t" transform="matrix(1,0,0,1,973,505) translate(10.549999999999997 17.799999999999997)"/><use xlink:href="#v" transform="matrix(1,0,0,1,973,505) translate(89.5 17.799999999999997)"/><use xlink:href="#u" transform="matrix(1,0,0,1,973,505) translate(49.55 39.4)"/><path d="M700 145c0-2.76 2.24-5 5-5h150c2.76 0 5 2.24 5 5v50c0 2.76-2.24 5-5 5H705c-2.76 0-5-2.24-5-5z" stroke="#000" stroke-width="2" fill="#fff"/><use xlink:href="#w" transform="matrix(1,0,0,1,705,145) translate(17.074999999999996 17.799999999999997)"/><use xlink:href="#r" transform="matrix(1,0,0,1,705,145) translate(82.025 17.799999999999997)"/><use xlink:href="#p" transform="matrix(1,0,0,1,705,145) translate(56.55 39.4)"/><path d="M780 200v59" stroke="#000" stroke-width="2" fill="none"/><path d="M781 200h-2 2zM781 260h-2v-1h2z"/><path d="M1048 380v-.2l-.02-.22-.02-.2-.03-.22-.04-.2-.06-.22-.06-.2-.07-.23-.07-.2-.1-.24-.1-.23-.13-.24-.15-.26-.16-.26-.2-.27-.22-.27-.24-.3-.3-.32-.32-.33-.4-.36-.44-.38-.54-.43-.64-.47-.77-.5-.94-.58-1.18-.65-1.48-.73-1.9-.84-2.5-1-3.42-1.17-4.84-1.46-7.25-1.85-11.83-2.48-22.6-3.76-164.6-21.17-11.83-2.48-7.25-1.85-4.84-1.46-3.4-1.18-2.52-1-1.9-.83-1.48-.73-1.17-.65-.93-.57-.77-.5-.64-.47-.54-.42-.45-.4-.4-.35-.32-.34-.3-.33-.23-.3-.22-.28-.2-.28-.15-.26-.15-.25-.12-.23-.1-.23-.1-.23-.1-.2-.06-.23-.06-.2-.05-.22-.03-.2-.03-.22-.02-.2-.02-.22v-.2" stroke="#000" stroke-width="2" fill="none"/><path d="M1049.5 380h-1.5l.67-.74zM779.33 320.74l-.82-.74h1.5z"/><path d="M640 380v-.4l.03-.4.04-.4.06-.38.08-.38.1-.4.1-.38.13-.4.15-.38.17-.4.2-.42.2-.4.26-.44.3-.45.3-.46.37-.46.4-.5.5-.53.53-.54.63-.6.72-.6.85-.7 1-.72 1.2-.8 1.47-.88 1.78-.97 2.24-1.12 2.85-1.27 3.8-1.5 5.26-1.82 7.9-2.37 14.48-3.66 58.3-13.35 7.9-2.38 5.28-1.83 3.8-1.5 2.85-1.28 2.25-1.1 1.78-.98 1.46-.88 1.2-.8 1-.73.85-.68.72-.62.63-.6.54-.54.48-.54.4-.5.37-.47.3-.47.3-.45.24-.43.22-.4.2-.42.16-.4.15-.4.13-.4.1-.38.1-.4.07-.37.06-.4.04-.38.02-.4v-.4" stroke="#000" stroke-width="2" fill="none"/><path d="M640 380h-1.24l.43-.6zM780.8 320.6l-.8-.6h1.24z"/><path d="M1048 500v-60" stroke="#000" stroke-width="2" fill="none"/><path d="M1049 500h-2 2z"/><path d="M640 500v-60" stroke="#000" stroke-width="2" fill="none"/><path d="M641 500h-2 2z"/><path d="M1068 260c17.67 0 32 13.43 32 30s-14.33 30-32 30h-96c-17.67 0-32-13.43-32-30s14.33-30 32-30z" stroke="#000" stroke-width="2" fill="#fff"/><use xlink:href="#n" transform="matrix(1,0,0,1,945,265) translate(19.074999999999996 28.6)"/><use xlink:href="#x" transform="matrix(1,0,0,1,945,265) translate(54.025 28.6)"/><path d="M880 380c17.67 0 32 13.43 32 30s-14.33 30-32 30h-96c-17.67 0-32-13.43-32-30s14.33-30 32-30z" stroke="#000" stroke-width="2" fill="#fff"/><use xlink:href="#q" transform="matrix(1,0,0,1,757,385) translate(6.099999999999994 28.6)"/><use xlink:href="#x" transform="matrix(1,0,0,1,757,385) translate(67 28.6)"/><path d="M880 500c17.67 0 32 13.43 32 30s-14.33 30-32 30h-96c-17.67 0-32-13.43-32-30s14.33-30 32-30z" stroke="#000" stroke-width="2" fill="#fff"/><use xlink:href="#i" transform="matrix(1,0,0,1,757,505) translate(21.574999999999996 17.799999999999997)"/><use xlink:href="#s" transform="matrix(1,0,0,1,757,505) translate(55.574999999999996 17.799999999999997)"/><use xlink:href="#x" transform="matrix(1,0,0,1,757,505) translate(36.55 39.4)"/><path d="M1300 380c17.67 0 32 13.43 32 30s-14.33 30-32 30h-96c-17.67 0-32-13.43-32-30s14.33-30 32-30z" stroke="#000" stroke-width="2" fill="#fff"/><use xlink:href="#y" transform="matrix(1,0,0,1,1177,385) translate(38.025 17.799999999999997)"/><use xlink:href="#x" transform="matrix(1,0,0,1,1177,385) translate(36.55 39.4)"/><path d="M1300 500c17.67 0 32 13.43 32 30s-14.33 30-32 30h-96c-17.67 0-32-13.43-32-30s14.33-30 32-30z" stroke="#000" stroke-width="2" fill="#fff"/><use xlink:href="#t" transform="matrix(1,0,0,1,1177,505) translate(10.549999999999997 17.799999999999997)"/><use xlink:href="#v" transform="matrix(1,0,0,1,1177,505) translate(89.5 17.799999999999997)"/><use xlink:href="#x" transform="matrix(1,0,0,1,1177,505) translate(36.55 39.4)"/><path d="M1096 620c17.67 0 32 13.43 32 30s-14.33 30-32 30h-96c-17.67 0-32-13.43-32-30s14.33-30 32-30z" stroke="#000" stroke-width="2" fill="#fff"/><use xlink:href="#t" transform="matrix(1,0,0,1,973,625) translate(17.049999999999997 17.799999999999997)"/><use xlink:href="#z" transform="matrix(1,0,0,1,973,625) translate(96 17.799999999999997)"/><use xlink:href="#x" transform="matrix(1,0,0,1,973,625) translate(36.55 39.4)"/><path d="M940 290h-79" stroke="#000" stroke-width="2" fill="none"/><path d="M940 290v.24l.07.76H940v-2h.08zM875.27 294.64L861 290l14.27-4.64z"/><path d="M876.27 296L860 290.74v-1.46l16.27-5.28zm-12.03-6l10.03 3.26v-6.52z"/><path d="M752 530h-31" stroke="#000" stroke-width="2" fill="none"/><path d="M752 530v.24l.07.76H752v-2h.08zM735.27 534.64L721 530l14.27-4.64z"/><path d="M736.27 536L720 530.74v-1.46l16.27-5.28zm-12.03-6l10.03 3.26v-6.52z"/><path d="M752 410h-31" stroke="#000" stroke-width="2" fill="none"/><path d="M752 410v.24l.07.76H752v-2h.08zM735.27 414.64L721 410l14.27-4.64z"/><path d="M736.27 416L720 410.74v-1.46l16.27-5.28zm-12.03-6l10.03 3.26v-6.52z"/><path d="M1048 620v-59" stroke="#000" stroke-width="2" fill="none"/><path d="M1049 620h-2 2zM1052.64 575.27h-9.28L1048 561z"/><path d="M1054 576.27h-12l5.27-16.27h1.46zm-9.26-2h6.52l-3.26-10.03z"/><path d="M1172 530h-43" stroke="#000" stroke-width="2" fill="none"/><path d="M1172 530v.24l.07.76h-.07v-2h.08zM1143.27 534.64L1129 530l14.27-4.64z"/><path d="M1144.27 536l-16.27-5.27v-1.46l16.27-5.28zm-12.03-6l10.03 3.26v-6.52z"/><path d="M1172 410h-43" stroke="#000" stroke-width="2" fill="none"/><path d="M1172 410v.24l.07.76h-.07v-2h.08zM1143.27 414.64L1129 410l14.27-4.64z"/><path d="M1144.27 416l-16.27-5.27v-1.46l16.27-5.28zm-12.03-6l10.03 3.26v-6.52z"/><path d="M520 40v700" stroke="#000" stroke-width="2" fill="none"/><path d="M160 765c0-2.76 2.24-5 5-5h1010c2.76 0 5 2.24 5 5v151.2c0 2.76-2.24 5-5 5H165c-2.76 0-5-2.24-5-5z" fill="none"/><g><use xlink:href="#A" transform="matrix(1,0,0,1,165,765) translate(43.60000000000002 58)"/><use xlink:href="#B" transform="matrix(1,0,0,1,165,765) translate(70.60000000000002 58)"/><use xlink:href="#C" transform="matrix(1,0,0,1,165,765) translate(143.50000000000003 58)"/><use xlink:href="#D" transform="matrix(1,0,0,1,165,765) translate(163.50000000000003 58)"/><use xlink:href="#E" transform="matrix(1,0,0,1,165,765) translate(206.45000000000005 58)"/><use xlink:href="#F" transform="matrix(1,0,0,1,165,765) translate(231.45000000000005 58)"/><use xlink:href="#G" transform="matrix(1,0,0,1,165,765) translate(322.30000000000007 58)"/><use xlink:href="#H" transform="matrix(1,0,0,1,165,765) translate(362.30000000000007 58)"/><use xlink:href="#I" transform="matrix(1,0,0,1,165,765) translate(416.20000000000005 58)"/><use xlink:href="#J" transform="matrix(1,0,0,1,165,765) translate(465.1 58)"/><use xlink:href="#K" transform="matrix(1,0,0,1,165,765) translate(503.05 58)"/><use xlink:href="#L" transform="matrix(1,0,0,1,165,765) translate(539.95 58)"/><use xlink:href="#D" transform="matrix(1,0,0,1,165,765) translate(574.9499999999999 58)"/><use xlink:href="#M" transform="matrix(1,0,0,1,165,765) translate(617.9 58)"/><use xlink:href="#N" transform="matrix(1,0,0,1,165,765) translate(647.9 58)"/><use xlink:href="#O" transform="matrix(1,0,0,1,165,765) translate(738.85 58)"/><use xlink:href="#H" transform="matrix(1,0,0,1,165,765) translate(793.75 58)"/><use xlink:href="#I" transform="matrix(1,0,0,1,165,765) translate(847.65 58)"/><use xlink:href="#J" transform="matrix(1,0,0,1,165,765) translate(896.55 58)"/><use xlink:href="#P" transform="matrix(1,0,0,1,165,765) translate(934.5 58)"/><use xlink:href="#Q" transform="matrix(1,0,0,1,165,765) translate(505 79.60000000000001)"/><use xlink:href="#R" transform="matrix(1,0,0,1,165,765) translate(15.824999999999932 101.20000000000002)"/><use xlink:href="#S" transform="matrix(1,0,0,1,165,765) translate(58.774999999999935 101.20000000000002)"/><use xlink:href="#M" transform="matrix(1,0,0,1,165,765) translate(93.77499999999993 101.20000000000002)"/><use xlink:href="#N" transform="matrix(1,0,0,1,165,765) translate(123.77499999999993 101.20000000000002)"/><use xlink:href="#O" transform="matrix(1,0,0,1,165,765) translate(214.72499999999994 101.20000000000002)"/><use xlink:href="#H" transform="matrix(1,0,0,1,165,765) translate(269.62499999999994 101.20000000000002)"/><use xlink:href="#T" transform="matrix(1,0,0,1,165,765) translate(323.525 101.20000000000002)"/><use xlink:href="#U" transform="matrix(1,0,0,1,165,765) translate(341.47499999999997 101.20000000000002)"/><use xlink:href="#V" transform="matrix(1,0,0,1,165,765) translate(404.325 101.20000000000002)"/><use xlink:href="#W" transform="matrix(1,0,0,1,165,765) translate(437.275 101.20000000000002)"/><use xlink:href="#L" transform="matrix(1,0,0,1,165,765) translate(521.175 101.20000000000002)"/><use xlink:href="#T" transform="matrix(1,0,0,1,165,765) translate(556.175 101.20000000000002)"/><use xlink:href="#X" transform="matrix(1,0,0,1,165,765) translate(574.125 101.20000000000002)"/><use xlink:href="#Y" transform="matrix(1,0,0,1,165,765) translate(613.125 101.20000000000002)"/><use xlink:href="#Z" transform="matrix(1,0,0,1,165,765) translate(632.075 101.20000000000002)"/><use xlink:href="#aa" transform="matrix(1,0,0,1,165,765) translate(674.075 101.20000000000002)"/><use xlink:href="#M" transform="matrix(1,0,0,1,165,765) translate(710.975 101.20000000000002)"/><use xlink:href="#F" transform="matrix(1,0,0,1,165,765) translate(740.975 101.20000000000002)"/><use xlink:href="#H" transform="matrix(1,0,0,1,165,765) translate(831.825 101.20000000000002)"/><use xlink:href="#ab" transform="matrix(1,0,0,1,165,765) translate(885.725 101.20000000000002)"/></g><defs><path d="M205 0l-28-72H64L36 0H1l101-248h38L239 0h-34zm-38-99l-47-123c-12 45-31 82-46 123h93" id="ac"/><path d="M115-194c55 1 70 41 70 98S169 2 115 4C84 4 66-9 55-30l1 105H24l-1-265h31l2 30c10-21 28-34 59-34zm-8 174c40 0 45-34 45-75s-6-73-45-74c-42 0-51 32-51 76 0 43 10 73 51 73" id="ad"/><path d="M24 0v-261h32V0H24" id="ae"/><path d="M24-231v-30h32v30H24zM24 0v-190h32V0H24" id="af"/><path d="M96-169c-40 0-48 33-48 73s9 75 48 75c24 0 41-14 43-38l32 2c-6 37-31 61-74 61-59 0-76-41-82-99-10-93 101-131 147-64 4 7 5 14 7 22l-32 3c-4-21-16-35-41-35" id="ag"/><path d="M141-36C126-15 110 5 73 4 37 3 15-17 15-53c-1-64 63-63 125-63 3-35-9-54-41-54-24 1-41 7-42 31l-33-3c5-37 33-52 76-52 45 0 72 20 72 64v82c-1 20 7 32 28 27v20c-31 9-61-2-59-35zM48-53c0 20 12 33 32 33 41-3 63-29 60-74-43 2-92-5-92 41" id="ah"/><path d="M59-47c-2 24 18 29 38 22v24C64 9 27 4 27-40v-127H5v-23h24l9-43h21v43h35v23H59v120" id="ai"/><path d="M100-194c62-1 85 37 85 99 1 63-27 99-86 99S16-35 15-95c0-66 28-99 85-99zM99-20c44 1 53-31 53-75 0-43-8-75-51-75s-53 32-53 75 10 74 51 75" id="aj"/><path d="M117-194c89-4 53 116 60 194h-32v-121c0-31-8-49-39-48C34-167 62-67 57 0H25l-1-190h30c1 10-1 24 2 32 11-22 29-35 61-36" id="ak"/><g id="a"><use transform="matrix(0.06172839506172839,0,0,0.06172839506172839,0,0)" xlink:href="#ac"/><use transform="matrix(0.06172839506172839,0,0,0.06172839506172839,14.814814814814813,0)" xlink:href="#ad"/><use transform="matrix(0.06172839506172839,0,0,0.06172839506172839,27.160493827160494,0)" xlink:href="#ad"/><use transform="matrix(0.06172839506172839,0,0,0.06172839506172839,39.50617283950617,0)" xlink:href="#ae"/><use transform="matrix(0.06172839506172839,0,0,0.06172839506172839,44.382716049382715,0)" xlink:href="#af"/><use transform="matrix(0.06172839506172839,0,0,0.06172839506172839,49.25925925925926,0)" xlink:href="#ag"/><use transform="matrix(0.06172839506172839,0,0,0.06172839506172839,60.37037037037037,0)" xlink:href="#ah"/><use transform="matrix(0.06172839506172839,0,0,0.06172839506172839,72.71604938271605,0)" xlink:href="#ai"/><use transform="matrix(0.06172839506172839,0,0,0.06172839506172839,78.88888888888889,0)" xlink:href="#af"/><use transform="matrix(0.06172839506172839,0,0,0.06172839506172839,83.76543209876543,0)" xlink:href="#aj"/><use transform="matrix(0.06172839506172839,0,0,0.06172839506172839,96.11111111111111,0)" xlink:href="#ak"/></g><path d="M30 0v-248h187v28H63v79h144v27H63v87h162V0H30" id="al"/><path d="M141 0L90-78 38 0H4l68-98-65-92h35l48 74 47-74h35l-64 92 68 98h-35" id="am"/><path d="M210-169c-67 3-38 105-44 169h-31v-121c0-29-5-50-35-48C34-165 62-65 56 0H25l-1-190h30c1 10-1 24 2 32 10-44 99-50 107 0 11-21 27-35 58-36 85-2 47 119 55 194h-31v-121c0-29-5-49-35-48" id="an"/><path d="M100-194c63 0 86 42 84 106H49c0 40 14 67 53 68 26 1 43-12 49-29l28 8c-11 28-37 45-77 45C44 4 14-33 15-96c1-61 26-98 85-98zm52 81c6-60-76-77-97-28-3 7-6 17-6 28h103" id="ao"/><g id="b"><use transform="matrix(0.06172839506172839,0,0,0.06172839506172839,0,0)" xlink:href="#al"/><use transform="matrix(0.06172839506172839,0,0,0.06172839506172839,14.814814814814813,0)" xlink:href="#am"/><use transform="matrix(0.06172839506172839,0,0,0.06172839506172839,25.925925925925924,0)" xlink:href="#ah"/><use transform="matrix(0.06172839506172839,0,0,0.06172839506172839,38.2716049382716,0)" xlink:href="#an"/><use transform="matrix(0.06172839506172839,0,0,0.06172839506172839,56.72839506172839,0)" xlink:href="#ad"/><use transform="matrix(0.06172839506172839,0,0,0.06172839506172839,69.07407407407408,0)" xlink:href="#ae"/><use transform="matrix(0.06172839506172839,0,0,0.06172839506172839,73.95061728395062,0)" xlink:href="#ao"/></g><path d="M135-143c-3-34-86-38-87 0 15 53 115 12 119 90S17 21 10-45l28-5c4 36 97 45 98 0-10-56-113-15-118-90-4-57 82-63 122-42 12 7 21 19 24 35" id="ap"/><path d="M85-194c31 0 48 13 60 33l-1-100h32l1 261h-30c-2-10 0-23-3-31C134-8 116 4 85 4 32 4 16-35 15-94c0-66 23-100 70-100zm9 24c-40 0-46 34-46 75 0 40 6 74 45 74 42 0 51-32 51-76 0-42-9-74-50-73" id="aq"/><g id="c"><use transform="matrix(0.06172839506172839,0,0,0.06172839506172839,0,0)" xlink:href="#ac"/><use transform="matrix(0.06172839506172839,0,0,0.06172839506172839,14.814814814814813,0)" xlink:href="#ap"/><use transform="matrix(0.06172839506172839,0,0,0.06172839506172839,25.925925925925924,0)" xlink:href="#ap"/><use transform="matrix(0.06172839506172839,0,0,0.06172839506172839,37.03703703703704,0)" xlink:href="#aj"/><use transform="matrix(0.06172839506172839,0,0,0.06172839506172839,49.382716049382715,0)" xlink:href="#ag"/><use transform="matrix(0.06172839506172839,0,0,0.06172839506172839,60.49382716049382,0)" xlink:href="#af"/><use transform="matrix(0.06172839506172839,0,0,0.06172839506172839,65.37037037037037,0)" xlink:href="#ah"/><use transform="matrix(0.06172839506172839,0,0,0.06172839506172839,77.71604938271605,0)" xlink:href="#ai"/><use transform="matrix(0.06172839506172839,0,0,0.06172839506172839,83.88888888888889,0)" xlink:href="#ao"/><use transform="matrix(0.06172839506172839,0,0,0.06172839506172839,96.23456790123457,0)" xlink:href="#aq"/></g><path d="M233-177c-1 41-23 64-60 70L243 0h-38l-65-103H63V0H30v-248c88 3 205-21 203 71zM63-129c60-2 137 13 137-47 0-61-80-42-137-45v92" id="ar"/><path d="M160-131c35 5 61 23 61 61C221 17 115-2 30 0v-248c76 3 177-17 177 60 0 33-19 50-47 57zm-97-11c50-1 110 9 110-42 0-47-63-36-110-37v79zm0 115c55-2 124 14 124-45 0-56-70-42-124-44v89" id="as"/><path d="M212-179c-10-28-35-45-73-45-59 0-87 40-87 99 0 60 29 101 89 101 43 0 62-24 78-52l27 14C228-24 195 4 139 4 59 4 22-46 18-125c-6-104 99-153 187-111 19 9 31 26 39 46" id="at"/><g id="d"><use transform="matrix(0.06172839506172839,0,0,0.06172839506172839,0,0)" xlink:href="#ar"/><use transform="matrix(0.06172839506172839,0,0,0.06172839506172839,15.987654320987653,0)" xlink:href="#as"/><use transform="matrix(0.06172839506172839,0,0,0.06172839506172839,30.80246913580247,0)" xlink:href="#ac"/><use transform="matrix(0.06172839506172839,0,0,0.06172839506172839,45.61728395061728,0)" xlink:href="#at"/></g><path d="M240 0l2-218c-23 76-54 145-80 218h-23L58-218 59 0H30v-248h44l77 211c21-75 51-140 76-211h43V0h-30" id="au"/><g id="e"><use transform="matrix(0.06172839506172839,0,0,0.06172839506172839,0,0)" xlink:href="#au"/><use transform="matrix(0.06172839506172839,0,0,0.06172839506172839,18.456790123456788,0)" xlink:href="#aj"/><use transform="matrix(0.06172839506172839,0,0,0.06172839506172839,30.80246913580247,0)" xlink:href="#aq"/><use transform="matrix(0.06172839506172839,0,0,0.06172839506172839,43.148148148148145,0)" xlink:href="#ao"/><use transform="matrix(0.06172839506172839,0,0,0.06172839506172839,55.49382716049382,0)" xlink:href="#ae"/></g><path d="M140-251c81 0 123 46 123 126C263-46 219 4 140 4 59 4 17-45 17-125s42-126 123-126zm0 227c63 0 89-41 89-101s-29-99-89-99c-61 0-89 39-89 99S79-25 140-24" id="av"/><path d="M114-163C36-179 61-72 57 0H25l-1-190h30c1 12-1 29 2 39 6-27 23-49 58-41v29" id="aw"/><path d="M177-190C167-65 218 103 67 71c-23-6-38-20-44-43l32-5c15 47 100 32 89-28v-30C133-14 115 1 83 1 29 1 15-40 15-95c0-56 16-97 71-98 29-1 48 16 59 35 1-10 0-23 2-32h30zM94-22c36 0 50-32 50-73 0-42-14-75-50-75-39 0-46 34-46 75s6 73 46 73" id="ax"/><path d="M9 0v-24l116-142H16v-24h144v24L44-24h123V0H9" id="ay"/><g id="g"><use transform="matrix(0.05,0,0,0.05,0,0)" xlink:href="#av"/><use transform="matrix(0.05,0,0,0.05,14,0)" xlink:href="#aw"/><use transform="matrix(0.05,0,0,0.05,19.95,0)" xlink:href="#ax"/><use transform="matrix(0.05,0,0,0.05,29.950000000000003,0)" xlink:href="#ah"/><use transform="matrix(0.05,0,0,0.05,39.95,0)" xlink:href="#ak"/><use transform="matrix(0.05,0,0,0.05,49.95,0)" xlink:href="#af"/><use transform="matrix(0.05,0,0,0.05,53.900000000000006,0)" xlink:href="#ay"/><use transform="matrix(0.05,0,0,0.05,62.900000000000006,0)" xlink:href="#ah"/><use transform="matrix(0.05,0,0,0.05,72.9,0)" xlink:href="#ai"/><use transform="matrix(0.05,0,0,0.05,77.9,0)" xlink:href="#af"/><use transform="matrix(0.05,0,0,0.05,81.85000000000001,0)" xlink:href="#aj"/><use transform="matrix(0.05,0,0,0.05,91.85000000000001,0)" xlink:href="#ak"/></g><path d="M30-248c87 1 191-15 191 75 0 78-77 80-158 76V0H30v-248zm33 125c57 0 124 11 124-50 0-59-68-47-124-48v98" id="az"/><path d="M24-231v-30h32v30H24zM-9 49c24 4 33-6 33-30v-209h32V24c2 40-23 58-65 49V49" id="aA"/><g id="h"><use transform="matrix(0.05,0,0,0.05,0,0)" xlink:href="#az"/><use transform="matrix(0.05,0,0,0.05,12,0)" xlink:href="#aw"/><use transform="matrix(0.05,0,0,0.05,17.95,0)" xlink:href="#aj"/><use transform="matrix(0.05,0,0,0.05,27.950000000000003,0)" xlink:href="#aA"/><use transform="matrix(0.05,0,0,0.05,31.899999999999995,0)" xlink:href="#ao"/><use transform="matrix(0.05,0,0,0.05,41.9,0)" xlink:href="#ag"/><use transform="matrix(0.05,0,0,0.05,50.9,0)" xlink:href="#ai"/></g><path d="M153-248C145-148 188 4 80 4 36 3 13-21 6-62l32-5c4 25 16 42 43 43 27 0 39-20 39-49v-147H72v-28h81" id="aB"/><path d="M115-194c53 0 69 39 70 98 0 66-23 100-70 100C84 3 66-7 56-30L54 0H23l1-261h32v101c10-23 28-34 59-34zm-8 174c40 0 45-34 45-75 0-40-5-75-45-74-42 0-51 32-51 76 0 43 10 73 51 73" id="aC"/><g id="i"><use transform="matrix(0.05,0,0,0.05,0,0)" xlink:href="#aB"/><use transform="matrix(0.05,0,0,0.05,9,0)" xlink:href="#aj"/><use transform="matrix(0.05,0,0,0.05,19,0)" xlink:href="#aC"/></g><path d="M127-220V0H93v-220H8v-28h204v28h-85" id="aD"/><g id="j"><use transform="matrix(0.05,0,0,0.05,0,0)" xlink:href="#aD"/><use transform="matrix(0.05,0,0,0.05,8.950000000000001,0)" xlink:href="#ao"/><use transform="matrix(0.05,0,0,0.05,18.950000000000003,0)" xlink:href="#an"/><use transform="matrix(0.05,0,0,0.05,33.900000000000006,0)" xlink:href="#ad"/><use transform="matrix(0.05,0,0,0.05,43.900000000000006,0)" xlink:href="#ae"/><use transform="matrix(0.05,0,0,0.05,47.85000000000001,0)" xlink:href="#ah"/><use transform="matrix(0.05,0,0,0.05,57.85,0)" xlink:href="#ai"/><use transform="matrix(0.05,0,0,0.05,62.85,0)" xlink:href="#ao"/></g><path d="M33 0v-248h34V0H33" id="aE"/><path d="M108 0H70L1-190h34L89-25l56-165h34" id="aF"/><path d="M179-190L93 31C79 59 56 82 12 73V49c39 6 53-20 64-50L1-190h34L92-34l54-156h33" id="aG"/><g id="k"><use transform="matrix(0.05,0,0,0.05,0,0)" xlink:href="#aE"/><use transform="matrix(0.05,0,0,0.05,5,0)" xlink:href="#ak"/><use transform="matrix(0.05,0,0,0.05,15,0)" xlink:href="#aF"/><use transform="matrix(0.05,0,0,0.05,24,0)" xlink:href="#ao"/><use transform="matrix(0.05,0,0,0.05,34,0)" xlink:href="#ak"/><use transform="matrix(0.05,0,0,0.05,44,0)" xlink:href="#ai"/><use transform="matrix(0.05,0,0,0.05,49,0)" xlink:href="#aj"/><use transform="matrix(0.05,0,0,0.05,59,0)" xlink:href="#aw"/><use transform="matrix(0.05,0,0,0.05,64.95,0)" xlink:href="#aG"/></g><path d="M143 4C61 4 22-44 18-125c-5-107 100-154 193-111 17 8 29 25 37 43l-32 9c-13-25-37-40-76-40-61 0-88 39-88 99 0 61 29 100 91 101 35 0 62-11 79-27v-45h-74v-28h105v86C228-13 192 4 143 4" id="aH"/><path d="M84 4C-5 8 30-112 23-190h32v120c0 31 7 50 39 49 72-2 45-101 50-169h31l1 190h-30c-1-10 1-25-2-33-11 22-28 36-60 37" id="aI"/><g id="l"><use transform="matrix(0.05,0,0,0.05,0,0)" xlink:href="#aH"/><use transform="matrix(0.05,0,0,0.05,14,0)" xlink:href="#aw"/><use transform="matrix(0.05,0,0,0.05,19.95,0)" xlink:href="#aj"/><use transform="matrix(0.05,0,0,0.05,29.950000000000003,0)" xlink:href="#aI"/><use transform="matrix(0.05,0,0,0.05,39.95,0)" xlink:href="#ad"/></g><path d="M197 0v-115H63V0H30v-248h33v105h134v-105h34V0h-34" id="aJ"/><g id="m"><use transform="matrix(0.05,0,0,0.05,0,0)" xlink:href="#aJ"/><use transform="matrix(0.05,0,0,0.05,12.950000000000001,0)" xlink:href="#aj"/><use transform="matrix(0.05,0,0,0.05,22.950000000000003,0)" xlink:href="#ap"/><use transform="matrix(0.05,0,0,0.05,31.950000000000003,0)" xlink:href="#ai"/></g><g id="n"><use transform="matrix(0.05,0,0,0.05,0,0)" xlink:href="#av"/><use transform="matrix(0.05,0,0,0.05,14,0)" xlink:href="#aw"/><use transform="matrix(0.05,0,0,0.05,19.95,0)" xlink:href="#ax"/></g><g id="o"><use transform="matrix(0.05,0,0,0.05,0,0)" xlink:href="#ac"/><use transform="matrix(0.05,0,0,0.05,12,0)" xlink:href="#aq"/><use transform="matrix(0.05,0,0,0.05,22,0)" xlink:href="#an"/><use transform="matrix(0.05,0,0,0.05,36.95,0)" xlink:href="#af"/><use transform="matrix(0.05,0,0,0.05,40.900000000000006,0)" xlink:href="#ak"/></g><g id="p"><use transform="matrix(0.05,0,0,0.05,0,0)" xlink:href="#ar"/><use transform="matrix(0.05,0,0,0.05,12.950000000000001,0)" xlink:href="#aj"/><use transform="matrix(0.05,0,0,0.05,22.950000000000003,0)" xlink:href="#ae"/><use transform="matrix(0.05,0,0,0.05,26.900000000000002,0)" xlink:href="#ao"/></g><g id="q"><use transform="matrix(0.05,0,0,0.05,0,0)" xlink:href="#az"/><use transform="matrix(0.05,0,0,0.05,12,0)" xlink:href="#aw"/><use transform="matrix(0.05,0,0,0.05,17.95,0)" xlink:href="#aj"/><use transform="matrix(0.05,0,0,0.05,27.950000000000003,0)" xlink:href="#aA"/><use transform="matrix(0.05,0,0,0.05,31.899999999999995,0)" xlink:href="#ao"/><use transform="matrix(0.05,0,0,0.05,41.9,0)" xlink:href="#ag"/><use transform="matrix(0.05,0,0,0.05,50.9,0)" xlink:href="#ai"/></g><g id="r"><use transform="matrix(0.05,0,0,0.05,0,0)" xlink:href="#ac"/><use transform="matrix(0.05,0,0,0.05,12,0)" xlink:href="#aq"/><use transform="matrix(0.05,0,0,0.05,22,0)" xlink:href="#an"/><use transform="matrix(0.05,0,0,0.05,36.95,0)" xlink:href="#af"/><use transform="matrix(0.05,0,0,0.05,40.900000000000006,0)" xlink:href="#ak"/></g><g id="s"><use transform="matrix(0.05,0,0,0.05,0,0)" xlink:href="#aD"/><use transform="matrix(0.05,0,0,0.05,8.950000000000001,0)" xlink:href="#ao"/><use transform="matrix(0.05,0,0,0.05,18.950000000000003,0)" xlink:href="#an"/><use transform="matrix(0.05,0,0,0.05,33.900000000000006,0)" xlink:href="#ad"/><use transform="matrix(0.05,0,0,0.05,43.900000000000006,0)" xlink:href="#ae"/><use transform="matrix(0.05,0,0,0.05,47.85000000000001,0)" xlink:href="#ah"/><use transform="matrix(0.05,0,0,0.05,57.85,0)" xlink:href="#ai"/><use transform="matrix(0.05,0,0,0.05,62.85,0)" xlink:href="#ao"/></g><g id="t"><use transform="matrix(0.05,0,0,0.05,0,0)" xlink:href="#aE"/><use transform="matrix(0.05,0,0,0.05,5,0)" xlink:href="#ak"/><use transform="matrix(0.05,0,0,0.05,15,0)" xlink:href="#aF"/><use transform="matrix(0.05,0,0,0.05,24,0)" xlink:href="#ao"/><use transform="matrix(0.05,0,0,0.05,34,0)" xlink:href="#ak"/><use transform="matrix(0.05,0,0,0.05,44,0)" xlink:href="#ai"/><use transform="matrix(0.05,0,0,0.05,49,0)" xlink:href="#aj"/><use transform="matrix(0.05,0,0,0.05,59,0)" xlink:href="#aw"/><use transform="matrix(0.05,0,0,0.05,64.95,0)" xlink:href="#aG"/></g><g id="u"><use transform="matrix(0.05,0,0,0.05,0,0)" xlink:href="#ac"/><use transform="matrix(0.05,0,0,0.05,12,0)" xlink:href="#aq"/><use transform="matrix(0.05,0,0,0.05,22,0)" xlink:href="#an"/><use transform="matrix(0.05,0,0,0.05,36.95,0)" xlink:href="#af"/><use transform="matrix(0.05,0,0,0.05,40.900000000000006,0)" xlink:href="#ak"/></g><g id="v"><use transform="matrix(0.05,0,0,0.05,0,0)" xlink:href="#aH"/><use transform="matrix(0.05,0,0,0.05,14,0)" xlink:href="#aw"/><use transform="matrix(0.05,0,0,0.05,19.95,0)" xlink:href="#aj"/><use transform="matrix(0.05,0,0,0.05,29.950000000000003,0)" xlink:href="#aI"/><use transform="matrix(0.05,0,0,0.05,39.95,0)" xlink:href="#ad"/></g><path d="M185-189c-5-48-123-54-124 2 14 75 158 14 163 119 3 78-121 87-175 55-17-10-28-26-33-46l33-7c5 56 141 63 141-1 0-78-155-14-162-118-5-82 145-84 179-34 5 7 8 16 11 25" id="aK"/><g id="w"><use transform="matrix(0.05,0,0,0.05,0,0)" xlink:href="#aK"/><use transform="matrix(0.05,0,0,0.05,12,0)" xlink:href="#aG"/><use transform="matrix(0.05,0,0,0.05,21,0)" xlink:href="#ap"/><use transform="matrix(0.05,0,0,0.05,30,0)" xlink:href="#ai"/><use transform="matrix(0.05,0,0,0.05,35,0)" xlink:href="#ao"/><use transform="matrix(0.05,0,0,0.05,45,0)" xlink:href="#an"/></g><g id="x"><use transform="matrix(0.05,0,0,0.05,0,0)" xlink:href="#ar"/><use transform="matrix(0.05,0,0,0.05,12.950000000000001,0)" xlink:href="#ao"/><use transform="matrix(0.05,0,0,0.05,22.950000000000003,0)" xlink:href="#ap"/><use transform="matrix(0.05,0,0,0.05,31.950000000000003,0)" xlink:href="#aj"/><use transform="matrix(0.05,0,0,0.05,41.95,0)" xlink:href="#aI"/><use transform="matrix(0.05,0,0,0.05,51.95,0)" xlink:href="#aw"/><use transform="matrix(0.05,0,0,0.05,57.900000000000006,0)" xlink:href="#ag"/><use transform="matrix(0.05,0,0,0.05,66.9,0)" xlink:href="#ao"/></g><g id="y"><use transform="matrix(0.05,0,0,0.05,0,0)" xlink:href="#aE"/><use transform="matrix(0.05,0,0,0.05,5,0)" xlink:href="#ak"/><use transform="matrix(0.05,0,0,0.05,15,0)" xlink:href="#aF"/><use transform="matrix(0.05,0,0,0.05,24,0)" xlink:href="#ao"/><use transform="matrix(0.05,0,0,0.05,34,0)" xlink:href="#ak"/><use transform="matrix(0.05,0,0,0.05,44,0)" xlink:href="#ai"/><use transform="matrix(0.05,0,0,0.05,49,0)" xlink:href="#aj"/><use transform="matrix(0.05,0,0,0.05,59,0)" xlink:href="#aw"/><use transform="matrix(0.05,0,0,0.05,64.95,0)" xlink:href="#aG"/></g><g id="z"><use transform="matrix(0.05,0,0,0.05,0,0)" xlink:href="#aJ"/><use transform="matrix(0.05,0,0,0.05,12.950000000000001,0)" xlink:href="#aj"/><use transform="matrix(0.05,0,0,0.05,22.950000000000003,0)" xlink:href="#ap"/><use transform="matrix(0.05,0,0,0.05,31.950000000000003,0)" xlink:href="#ai"/></g><g id="A"><use transform="matrix(0.05,0,0,0.05,0,0)" xlink:href="#ac"/><use transform="matrix(0.05,0,0,0.05,12,0)" xlink:href="#ak"/></g><g id="B"><use transform="matrix(0.05,0,0,0.05,0,0)" xlink:href="#ao"/><use transform="matrix(0.05,0,0,0.05,10,0)" xlink:href="#am"/><use transform="matrix(0.05,0,0,0.05,19,0)" xlink:href="#ah"/><use transform="matrix(0.05,0,0,0.05,29,0)" xlink:href="#an"/><use transform="matrix(0.05,0,0,0.05,43.95,0)" xlink:href="#ad"/><use transform="matrix(0.05,0,0,0.05,53.95,0)" xlink:href="#ae"/><use transform="matrix(0.05,0,0,0.05,57.900000000000006,0)" xlink:href="#ao"/></g><path d="M101-234c-31-9-42 10-38 44h38v23H63V0H32v-167H5v-23h27c-7-52 17-82 69-68v24" id="aL"/><g id="C"><use transform="matrix(0.05,0,0,0.05,0,0)" xlink:href="#aj"/><use transform="matrix(0.05,0,0,0.05,10,0)" xlink:href="#aL"/></g><path d="M206 0h-36l-40-164L89 0H53L-1-190h32L70-26l43-164h34l41 164 42-164h31" id="aM"/><path d="M106-169C34-169 62-67 57 0H25v-261h32l-1 103c12-21 28-36 61-36 89 0 53 116 60 194h-32v-121c2-32-8-49-39-48" id="aN"/><g id="D"><use transform="matrix(0.05,0,0,0.05,0,0)" xlink:href="#aM"/><use transform="matrix(0.05,0,0,0.05,12.950000000000001,0)" xlink:href="#aN"/><use transform="matrix(0.05,0,0,0.05,22.950000000000003,0)" xlink:href="#ah"/><use transform="matrix(0.05,0,0,0.05,32.95,0)" xlink:href="#ai"/></g><g id="E"><use transform="matrix(0.05,0,0,0.05,0,0)" xlink:href="#ah"/><use transform="matrix(0.05,0,0,0.05,10,0)" xlink:href="#ak"/></g><g id="F"><use transform="matrix(0.05,0,0,0.05,0,0)" xlink:href="#ah"/><use transform="matrix(0.05,0,0,0.05,10,0)" xlink:href="#ad"/><use transform="matrix(0.05,0,0,0.05,20,0)" xlink:href="#ad"/><use transform="matrix(0.05,0,0,0.05,30,0)" xlink:href="#ae"/><use transform="matrix(0.05,0,0,0.05,33.95,0)" xlink:href="#af"/><use transform="matrix(0.05,0,0,0.05,37.900000000000006,0)" xlink:href="#ag"/><use transform="matrix(0.05,0,0,0.05,46.900000000000006,0)" xlink:href="#ah"/><use transform="matrix(0.05,0,0,0.05,56.900000000000006,0)" xlink:href="#ai"/><use transform="matrix(0.05,0,0,0.05,61.900000000000006,0)" xlink:href="#af"/><use transform="matrix(0.05,0,0,0.05,65.85000000000001,0)" xlink:href="#aj"/><use transform="matrix(0.05,0,0,0.05,75.85000000000001,0)" xlink:href="#ak"/></g><g id="G"><use transform="matrix(0.05,0,0,0.05,0,0)" xlink:href="#aq"/><use transform="matrix(0.05,0,0,0.05,10,0)" xlink:href="#ah"/><use transform="matrix(0.05,0,0,0.05,20,0)" xlink:href="#ai"/><use transform="matrix(0.05,0,0,0.05,25,0)" xlink:href="#ah"/></g><g id="H"><use transform="matrix(0.05,0,0,0.05,0,0)" xlink:href="#an"/><use transform="matrix(0.05,0,0,0.05,14.950000000000001,0)" xlink:href="#aj"/><use transform="matrix(0.05,0,0,0.05,24.950000000000003,0)" xlink:href="#aq"/><use transform="matrix(0.05,0,0,0.05,34.95,0)" xlink:href="#ao"/><use transform="matrix(0.05,0,0,0.05,44.95,0)" xlink:href="#ae"/></g><g id="I"><use transform="matrix(0.05,0,0,0.05,0,0)" xlink:href="#an"/><use transform="matrix(0.05,0,0,0.05,14.950000000000001,0)" xlink:href="#af"/><use transform="matrix(0.05,0,0,0.05,18.900000000000002,0)" xlink:href="#ax"/><use transform="matrix(0.05,0,0,0.05,28.900000000000002,0)" xlink:href="#aN"/><use transform="matrix(0.05,0,0,0.05,38.900000000000006,0)" xlink:href="#ai"/></g><path d="M143 0L79-87 56-68V0H24v-261h32v163l83-92h37l-77 82L181 0h-38" id="aO"/><g id="J"><use transform="matrix(0.05,0,0,0.05,0,0)" xlink:href="#ae"/><use transform="matrix(0.05,0,0,0.05,3.95,0)" xlink:href="#aj"/><use transform="matrix(0.05,0,0,0.05,13.949999999999998,0)" xlink:href="#aj"/><use transform="matrix(0.05,0,0,0.05,23.95,0)" xlink:href="#aO"/></g><path d="M68-38c1 34 0 65-14 84H32c9-13 17-26 17-46H33v-38h35" id="aP"/><g id="K"><use transform="matrix(0.05,0,0,0.05,0,0)" xlink:href="#ae"/><use transform="matrix(0.05,0,0,0.05,3.95,0)" xlink:href="#af"/><use transform="matrix(0.05,0,0,0.05,7.9,0)" xlink:href="#aO"/><use transform="matrix(0.05,0,0,0.05,16.9,0)" xlink:href="#ao"/><use transform="matrix(0.05,0,0,0.05,26.899999999999995,0)" xlink:href="#aP"/></g><g id="L"><use transform="matrix(0.05,0,0,0.05,0,0)" xlink:href="#ah"/><use transform="matrix(0.05,0,0,0.05,10,0)" xlink:href="#ak"/><use transform="matrix(0.05,0,0,0.05,20,0)" xlink:href="#aq"/></g><g id="M"><use transform="matrix(0.05,0,0,0.05,0,0)" xlink:href="#ai"/><use transform="matrix(0.05,0,0,0.05,5,0)" xlink:href="#aN"/><use transform="matrix(0.05,0,0,0.05,15,0)" xlink:href="#ao"/></g><g id="N"><use transform="matrix(0.05,0,0,0.05,0,0)" xlink:href="#ah"/><use transform="matrix(0.05,0,0,0.05,10,0)" xlink:href="#ap"/><use transform="matrix(0.05,0,0,0.05,19,0)" xlink:href="#ap"/><use transform="matrix(0.05,0,0,0.05,28,0)" xlink:href="#aj"/><use transform="matrix(0.05,0,0,0.05,38,0)" xlink:href="#ag"/><use transform="matrix(0.05,0,0,0.05,47,0)" xlink:href="#af"/><use transform="matrix(0.05,0,0,0.05,50.95,0)" xlink:href="#ah"/><use transform="matrix(0.05,0,0,0.05,60.95,0)" xlink:href="#ai"/><use transform="matrix(0.05,0,0,0.05,65.95,0)" xlink:href="#ao"/><use transform="matrix(0.05,0,0,0.05,75.95,0)" xlink:href="#aq"/></g><g id="O"><use transform="matrix(0.05,0,0,0.05,0,0)" xlink:href="#ar"/><use transform="matrix(0.05,0,0,0.05,12.950000000000001,0)" xlink:href="#as"/><use transform="matrix(0.05,0,0,0.05,24.950000000000003,0)" xlink:href="#ac"/><use transform="matrix(0.05,0,0,0.05,36.95,0)" xlink:href="#at"/></g><path d="M33 0v-38h34V0H33" id="aQ"/><g id="P"><use transform="matrix(0.05,0,0,0.05,0,0)" xlink:href="#ae"/><use transform="matrix(0.05,0,0,0.05,3.95,0)" xlink:href="#af"/><use transform="matrix(0.05,0,0,0.05,7.9,0)" xlink:href="#aO"/><use transform="matrix(0.05,0,0,0.05,16.9,0)" xlink:href="#ao"/><use transform="matrix(0.05,0,0,0.05,26.899999999999995,0)" xlink:href="#aQ"/></g><path d="M190 0L58-211 59 0H30v-248h39L202-35l-2-213h31V0h-41" id="aR"/><g id="R"><use transform="matrix(0.05,0,0,0.05,0,0)" xlink:href="#aR"/><use transform="matrix(0.05,0,0,0.05,12.950000000000001,0)" xlink:href="#aj"/><use transform="matrix(0.05,0,0,0.05,22.950000000000003,0)" xlink:href="#ai"/><use transform="matrix(0.05,0,0,0.05,27.950000000000003,0)" xlink:href="#ao"/></g><g id="S"><use transform="matrix(0.05,0,0,0.05,0,0)" xlink:href="#ai"/><use transform="matrix(0.05,0,0,0.05,5,0)" xlink:href="#aN"/><use transform="matrix(0.05,0,0,0.05,15,0)" xlink:href="#ah"/><use transform="matrix(0.05,0,0,0.05,25,0)" xlink:href="#ai"/></g><g id="T"><use transform="matrix(0.05,0,0,0.05,0,0)" xlink:href="#af"/><use transform="matrix(0.05,0,0,0.05,3.95,0)" xlink:href="#ap"/></g><g id="U"><use transform="matrix(0.05,0,0,0.05,0,0)" xlink:href="#ao"/><use transform="matrix(0.05,0,0,0.05,10,0)" xlink:href="#ak"/><use transform="matrix(0.05,0,0,0.05,20,0)" xlink:href="#ai"/><use transform="matrix(0.05,0,0,0.05,25,0)" xlink:href="#af"/><use transform="matrix(0.05,0,0,0.05,28.950000000000003,0)" xlink:href="#aw"/><use transform="matrix(0.05,0,0,0.05,34.9,0)" xlink:href="#ao"/><use transform="matrix(0.05,0,0,0.05,44.9,0)" xlink:href="#ae"/><use transform="matrix(0.05,0,0,0.05,48.85,0)" xlink:href="#aG"/></g><g id="V"><use transform="matrix(0.05,0,0,0.05,0,0)" xlink:href="#ap"/><use transform="matrix(0.05,0,0,0.05,9,0)" xlink:href="#ao"/><use transform="matrix(0.05,0,0,0.05,19,0)" xlink:href="#ae"/><use transform="matrix(0.05,0,0,0.05,22.95,0)" xlink:href="#aL"/></g><g id="W"><use transform="matrix(0.05,0,0,0.05,0,0)" xlink:href="#an"/><use transform="matrix(0.05,0,0,0.05,14.950000000000001,0)" xlink:href="#ah"/><use transform="matrix(0.05,0,0,0.05,24.950000000000003,0)" xlink:href="#ak"/><use transform="matrix(0.05,0,0,0.05,34.95,0)" xlink:href="#ah"/><use transform="matrix(0.05,0,0,0.05,44.95,0)" xlink:href="#ax"/><use transform="matrix(0.05,0,0,0.05,54.95,0)" xlink:href="#af"/><use transform="matrix(0.05,0,0,0.05,58.900000000000006,0)" xlink:href="#ak"/><use transform="matrix(0.05,0,0,0.05,68.9,0)" xlink:href="#ax"/></g><g id="X"><use transform="matrix(0.05,0,0,0.05,0,0)" xlink:href="#aO"/><use transform="matrix(0.05,0,0,0.05,9,0)" xlink:href="#ao"/><use transform="matrix(0.05,0,0,0.05,19,0)" xlink:href="#ad"/><use transform="matrix(0.05,0,0,0.05,29,0)" xlink:href="#ai"/></g><g id="Y"><use transform="matrix(0.05,0,0,0.05,0,0)" xlink:href="#af"/><use transform="matrix(0.05,0,0,0.05,3.95,0)" xlink:href="#ak"/></g><g id="Z"><use transform="matrix(0.05,0,0,0.05,0,0)" xlink:href="#ap"/><use transform="matrix(0.05,0,0,0.05,9,0)" xlink:href="#aG"/><use transform="matrix(0.05,0,0,0.05,18,0)" xlink:href="#ak"/><use transform="matrix(0.05,0,0,0.05,28,0)" xlink:href="#ag"/></g><g id="aa"><use transform="matrix(0.05,0,0,0.05,0,0)" xlink:href="#aM"/><use transform="matrix(0.05,0,0,0.05,12.950000000000001,0)" xlink:href="#af"/><use transform="matrix(0.05,0,0,0.05,16.900000000000002,0)" xlink:href="#ai"/><use transform="matrix(0.05,0,0,0.05,21.900000000000002,0)" xlink:href="#aN"/></g><g id="ab"><use transform="matrix(0.05,0,0,0.05,0,0)" xlink:href="#ah"/><use transform="matrix(0.05,0,0,0.05,10,0)" xlink:href="#aI"/><use transform="matrix(0.05,0,0,0.05,20,0)" xlink:href="#ai"/><use transform="matrix(0.05,0,0,0.05,25,0)" xlink:href="#aj"/><use transform="matrix(0.05,0,0,0.05,35,0)" xlink:href="#an"/><use transform="matrix(0.05,0,0,0.05,49.95,0)" xlink:href="#ah"/><use transform="matrix(0.05,0,0,0.05,59.95,0)" xlink:href="#ai"/><use transform="matrix(0.05,0,0,0.05,64.95,0)" xlink:href="#af"/><use transform="matrix(0.05,0,0,0.05,68.9,0)" xlink:href="#ag"/><use transform="matrix(0.05,0,0,0.05,77.9,0)" xlink:href="#ah"/><use transform="matrix(0.05,0,0,0.05,87.9,0)" xlink:href="#ae"/><use transform="matrix(0.05,0,0,0.05,91.85000000000001,0)" xlink:href="#ae"/><use transform="matrix(0.05,0,0,0.05,95.80000000000001,0)" xlink:href="#aG"/><use transform="matrix(0.05,0,0,0.05,103.45,0)" xlink:href="#aQ"/></g></defs></g></svg>