<svg version="1.1" id="Layer_1" xmlns="http://www.w3.org/2000/svg" xmlns:xlink="http://www.w3.org/1999/xlink" x="0px" y="0px"
	 viewBox="0 0 547.21 389.47" style="enable-background:new 0 0 547.21 389.47;" xml:space="preserve">
<style type="text/css">
	.st0{display:none;}
	.st1{display:inline;fill:#FAEDA1;}
	.st2{display:inline;fill:#5D2815;}
	.st3{fill:#FAEDA1;}
	.st4{fill:#5D2815;}
	.st5{fill:#2D8CCE;}
	.st6{fill:#794532;}
	.st7{fill:#026DAE;}
	.st8{fill:#FF4B4B;}
	.st9{fill:#ABDBF7;}
	.st10{fill:#CB2D2F;}
	.st11{fill:#FCA2A3;}
	.st12{fill:none;stroke:#5D2815;stroke-width:5;stroke-miterlimit:10;}
	.st13{fill:#FFFFFF;}
	.st14{fill:#A4CE39;}
</style>
<g class="st0">
	<polygon class="st1" points="176.12,377 130.18,303.5 176.12,230 249.79,230 295.72,303.5 249.79,377 	"/>
	<path class="st2" d="M248.95,231.5l45,72l-45,72h-72l-45-72l45-72H248.95 M250.62,228.5h-1.66h-72h-1.66l-0.88,1.41l-45,72
		l-0.99,1.59l0.99,1.59l45,72l0.88,1.41h1.66h72h1.66l0.88-1.41l45-72l0.99-1.59l-0.99-1.59l-45-72L250.62,228.5L250.62,228.5z"/>
</g>
<g>
	<polygon class="st3" points="416.57,378 370.01,303.5 416.57,229 491.34,229 537.9,303.5 491.34,378 	"/>
	<path class="st4" d="M489.95,231.5l45,72l-45,72h-72l-45-72l45-72H489.95 M492.73,226.5h-2.77h-72h-2.77l-1.47,2.35l-45,72
		l-1.66,2.65l1.66,2.65l45,72l1.47,2.35h2.77h72h2.77l1.47-2.35l45-72l1.66-2.65l-1.66-2.65l-45-72L492.73,226.5L492.73,226.5z"/>
</g>
<g>
	<polygon class="st3" points="416.57,231 370.01,156.5 416.57,82 491.34,82 537.9,156.5 491.34,231 	"/>
	<path class="st4" d="M489.95,84.5l45,72l-45,72h-72l-45-72l45-72H489.95 M492.73,79.5h-2.77h-72h-2.77l-1.47,2.35l-45,72
		l-1.66,2.65l1.66,2.65l45,72l1.47,2.35h2.77h72h2.77l1.47-2.35l45-72l1.66-2.65l-1.66-2.65l-45-72L492.73,79.5L492.73,79.5z"/>
</g>
<g class="st0">
	<polygon class="st1" points="57.12,451 11.18,377.5 57.12,304 130.79,304 176.72,377.5 130.79,451 	"/>
	<path class="st2" d="M129.95,305.5l45,72l-45,72h-72l-45-72l45-72H129.95 M131.62,302.5h-1.66h-72h-1.66l-0.88,1.41l-45,72
		l-0.99,1.59l0.99,1.59l45,72l0.88,1.41h1.66h72h1.66l0.88-1.41l45-72l0.99-1.59l-0.99-1.59l-45-72L131.62,302.5L131.62,302.5z"/>
</g>
<g>
	<polygon class="st3" points="176.57,231 130.01,156.5 176.57,82 251.34,82 297.9,156.5 251.34,231 	"/>
	<path class="st4" d="M249.95,84.5l45,72l-45,72h-72l-45-72l45-72H249.95 M252.73,79.5h-2.77h-72h-2.77l-1.47,2.35l-45,72
		l-1.66,2.65l1.66,2.65l45,72l1.47,2.35h2.77h72h2.77l1.47-2.35l45-72l1.66-2.65l-1.66-2.65l-45-72L252.73,79.5L252.73,79.5z"/>
</g>
<g>
	<polygon class="st3" points="56.57,158 10.01,83.5 56.57,9 131.34,9 177.9,83.5 131.34,158 	"/>
	<path class="st4" d="M129.95,11.5l45,72l-45,72h-72l-45-72l45-72H129.95 M132.73,6.5h-2.77h-72h-2.77l-1.47,2.35l-45,72L7.06,83.5
		l1.66,2.65l45,72l1.47,2.35h2.77h72h2.77l1.47-2.35l45-72l1.66-2.65l-1.66-2.65l-45-72L132.73,6.5L132.73,6.5z"/>
</g>
<rect x="250.95" y="320.5" class="st4" width="40" height="55"/>
<path class="st5" d="M430.45,341h-320c-8.25,0-15-6.75-15-15V136c0-8.25,6.75-15,15-15h320c8.25,0,15,6.75,15,15v190
	C445.45,334.25,438.7,341,430.45,341z"/>
<path class="st4" d="M318.45,384h-95c-4.12,0-7.5-3.38-7.5-7.5l0,0c0-4.12,3.38-7.5,7.5-7.5h95c4.12,0,7.5,3.38,7.5,7.5l0,0
	C325.95,380.62,322.58,384,318.45,384z"/>
<rect x="280.95" y="320.02" class="st6" width="10" height="49"/>
<path class="st7" d="M95.95,272.5v54l349,1v-6c0,0-132-4-242-13S95.95,272.5,95.95,272.5z"/>
<path class="st8" d="M445.45,326c0,8.25-6.75,15-15,15h-320c-8.25,0-15-6.75-15-15"/>
<path class="st9" d="M444.95,185.5v-54c-5.99-10-13.99-9-29.99-9c-46.86,0-97.14-0.87-144-1c-45.41-0.13-90.59,0.13-136,0
	c-13-0.04-34,0-39.01,9c0,2,0,4,0,6c0,0,132,4,242,13S444.95,185.5,444.95,185.5z"/>
<polygon class="st10" points="95.77,325.95 146.66,325.95 154.83,339.66 107.77,339.95 98.77,334.95 "/>
<polygon class="st11" points="445.53,326.13 385.32,326.13 394.58,340.84 433.54,341.11 441.98,335.66 "/>
<path class="st12" d="M430.45,341h-320c-8.25,0-15-6.75-15-15V136c0-8.25,6.75-15,15-15h320c8.25,0,15,6.75,15,15v190
	C445.45,334.25,438.7,341,430.45,341z"/>
<g>
	<path class="st13" d="M207.93,188.72h24.16l8.7,46.08l12.73-46.08h24.07l12.76,46.02l8.71-46.02h24.04l-18.15,82.32h-24.94
		l-14.44-51.83l-14.38,51.83h-24.95L207.93,188.72z"/>
	<path class="st13" d="M325.79,188.72h28.02l14.57,25.32l14.18-25.32h27.74l-25.62,39.87l28.04,42.45h-28.58l-16.26-26.45
		l-16.26,26.45h-28.41l28.4-42.9L325.79,188.72z"/>
</g>
<g>
	<path class="st13" d="M187.02,257.45h-28.88l-4.01,13.59h-25.97l30.94-82.32h27.75l30.93,82.32h-26.64L187.02,257.45z
		 M181.74,239.65l-9.09-29.59l-8.99,29.59H181.74z"/>
</g>
<g>
	<circle class="st14" cx="490.45" cy="83" r="11"/>
	<path class="st4" d="M490.45,74.5c4.69,0,8.5,3.81,8.5,8.5s-3.81,8.5-8.5,8.5s-8.5-3.81-8.5-8.5S485.77,74.5,490.45,74.5
		 M490.45,69.5c-7.46,0-13.5,6.04-13.5,13.5s6.04,13.5,13.5,13.5s13.5-6.04,13.5-13.5S497.91,69.5,490.45,69.5L490.45,69.5z"/>
</g>
<g>
	<circle class="st14" cx="57.45" cy="157" r="11"/>
	<path class="st4" d="M57.45,148.5c4.69,0,8.5,3.81,8.5,8.5s-3.81,8.5-8.5,8.5s-8.5-3.81-8.5-8.5S52.77,148.5,57.45,148.5
		 M57.45,143.5c-7.46,0-13.5,6.04-13.5,13.5s6.04,13.5,13.5,13.5s13.5-6.04,13.5-13.5S64.91,143.5,57.45,143.5L57.45,143.5z"/>
</g>
<g>
	<circle class="st8" cx="491.45" cy="231" r="11"/>
	<path class="st4" d="M491.45,222.5c4.69,0,8.5,3.81,8.5,8.5s-3.81,8.5-8.5,8.5s-8.5-3.81-8.5-8.5S486.77,222.5,491.45,222.5
		 M491.45,217.5c-7.46,0-13.5,6.04-13.5,13.5s6.04,13.5,13.5,13.5s13.5-6.04,13.5-13.5S498.91,217.5,491.45,217.5L491.45,217.5z"/>
</g>
</svg>
