<!-- Copyright (c) 2017 Red Hat, Inc. -->

<svg x="-55px" y="-55px">
    <rect
        x=5
        y=5
        ry=15
        rx=15
        width=100
        height=100
        ng-attr-class="{{item.selected || item.remote_selected ? item.selected && item.remote_selected ? 'NetworkUI__switch--selected-conflict' : item.selected ? 'NetworkUI__switch--selected' : 'NetworkUI__switch--remote-selected' : 'NetworkUI--hidden'}}">
    </rect>
    <path
        class="NetworkUI__switch"
        transform="translate(5,5) scale(2)"
        d="M40.8,0H9.2C4.2,0,0,4.2,0,9.2v31.5C0,45.8,4.2,50,9.2,50h31.5c5.1,0,9.2-4.2,9.2-9.2V9.2C50,4.2,45.8,0,40.8,0
    	z M22.2,12.6l11.1,0l-2.3-2.3c-0.4-0.4-0.4-1.2,0-1.6c0.4-0.4,1.2-0.4,1.6,0l4.2,4.2c0.2,0.2,0.3,0.5,0.3,0.8c0,0.3-0.1,0.6-0.3,0.8
    	l-4.2,4.2c-0.4,0.4-1.2,0.4-1.6,0c-0.4-0.4-0.4-1.2,0-1.6l2.3-2.3H22.2c-0.6,0-1.1-0.5-1.1-1.1C21.1,13.1,21.6,12.6,22.2,12.6z
    	 M10,21.2c0-0.3,0.1-0.6,0.3-0.8l4.2-4.2c0.4-0.4,1.2-0.4,1.6,0c0.4,0.4,0.4,1.2,0,1.6l-2.3,2.3H25c0.6,0,1.1,0.5,1.1,1.1
    	c0,0.6-0.5,1.1-1.1,1.1l-11.1,0l2.3,2.3c0.4,0.4,0.4,1.2,0,1.6c-0.4,0.4-1.2,0.4-1.6,0L10.3,22C10.1,21.8,10,21.5,10,21.2z
    	 M27.8,37.4l-11.1,0l2.3,2.3c0.4,0.4,0.4,1.2,0,1.6c-0.4,0.4-1.2,0.4-1.6,0l-4.2-4.2c-0.2-0.2-0.3-0.5-0.3-0.8
    	c0-0.3,0.1-0.6,0.3-0.8l4.2-4.2c0.4-0.4,1.2-0.4,1.6,0c0.4,0.4,0.4,1.2,0,1.6l-2.3,2.3h11.1c0.6,0,1.1,0.5,1.1,1.1
    	C28.9,36.9,28.4,37.4,27.8,37.4z M39.7,29.6l-4.2,4.2c-0.4,0.4-1.2,0.4-1.6,0c-0.4-0.4-0.4-1.2,0-1.6l2.3-2.3H25
    	c-0.6,0-1.1-0.5-1.1-1.1c0-0.6,0.5-1.1,1.1-1.1l11.1,0l-2.3-2.3c-0.4-0.4-0.4-1.2,0-1.6c0.4-0.4,1.2-0.4,1.6,0l4.2,4.2
    	c0.2,0.2,0.3,0.5,0.3,0.8C40,29.1,39.9,29.4,39.7,29.6z"/>
        <g ng-show="item.icon || current_scale > 0.5">
            <text ng-attr-class="{{item.selected && ! item.edit_label ? 'NetworkUI__router-text--selected' : 'NetworkUI--hidden'}}"
                  filter="url(#selected)"
                  x="22"
                  y="125"> {{item.name}}</text>
            <text class="NetworkUI__router-text" x="22" y="125">{{item.name}}{{item.edit_label?'_':''}}</text>
    </g>
</svg>
